G04 #@! TF.FileFunction,Copper,L1,Top,Signal*
%FSLAX46Y46*%
G04 Gerber Fmt 4.6, Leading zero omitted, Abs format (unit mm)*
G04 Created by KiCad (PCBNEW 4.0.7) date *
%MOMM*%
%LPD*%
G01*
G04 APERTURE LIST*
%ADD10C,0.100000*%
%ADD11C,1.998980*%
%ADD12C,1.600000*%
%ADD13R,1.600000X1.600000*%
%ADD14O,1.600000X1.600000*%
%ADD15R,2.032000X1.727200*%
%ADD16O,2.032000X1.727200*%
%ADD17R,1.800000X1.800000*%
%ADD18C,1.800000*%
%ADD19R,2.032000X2.032000*%
%ADD20O,2.032000X2.032000*%
%ADD21R,1.727200X1.727200*%
%ADD22O,1.727200X1.727200*%
%ADD23C,0.600000*%
%ADD24C,0.250000*%
%ADD25C,0.254000*%
G04 APERTURE END LIST*
D10*
D11*
X129540000Y-101600000D03*
X129540000Y-111760000D03*
X124460000Y-101600000D03*
X124460000Y-111760000D03*
D12*
X109220000Y-116840000D03*
X106720000Y-116840000D03*
X127000000Y-93980000D03*
X124500000Y-93980000D03*
X162560000Y-93980000D03*
X160060000Y-93980000D03*
D13*
X99060000Y-76200000D03*
D14*
X114300000Y-124460000D03*
X99060000Y-78740000D03*
X114300000Y-121920000D03*
X99060000Y-81280000D03*
X114300000Y-119380000D03*
X99060000Y-83820000D03*
X114300000Y-116840000D03*
X99060000Y-86360000D03*
X114300000Y-114300000D03*
X99060000Y-88900000D03*
X114300000Y-111760000D03*
X99060000Y-91440000D03*
X114300000Y-109220000D03*
X99060000Y-93980000D03*
X114300000Y-106680000D03*
X99060000Y-96520000D03*
X114300000Y-104140000D03*
X99060000Y-99060000D03*
X114300000Y-101600000D03*
X99060000Y-101600000D03*
X114300000Y-99060000D03*
X99060000Y-104140000D03*
X114300000Y-96520000D03*
X99060000Y-106680000D03*
X114300000Y-93980000D03*
X99060000Y-109220000D03*
X114300000Y-91440000D03*
X99060000Y-111760000D03*
X114300000Y-88900000D03*
X99060000Y-114300000D03*
X114300000Y-86360000D03*
X99060000Y-116840000D03*
X114300000Y-83820000D03*
X99060000Y-119380000D03*
X114300000Y-81280000D03*
X99060000Y-121920000D03*
X114300000Y-78740000D03*
X99060000Y-124460000D03*
X114300000Y-76200000D03*
D13*
X124460000Y-76200000D03*
D14*
X132080000Y-91440000D03*
X124460000Y-78740000D03*
X132080000Y-88900000D03*
X124460000Y-81280000D03*
X132080000Y-86360000D03*
X124460000Y-83820000D03*
X132080000Y-83820000D03*
X124460000Y-86360000D03*
X132080000Y-81280000D03*
X124460000Y-88900000D03*
X132080000Y-78740000D03*
X124460000Y-91440000D03*
X132080000Y-76200000D03*
D13*
X142240000Y-76200000D03*
D14*
X149860000Y-91440000D03*
X142240000Y-78740000D03*
X149860000Y-88900000D03*
X142240000Y-81280000D03*
X149860000Y-86360000D03*
X142240000Y-83820000D03*
X149860000Y-83820000D03*
X142240000Y-86360000D03*
X149860000Y-81280000D03*
X142240000Y-88900000D03*
X149860000Y-78740000D03*
X142240000Y-91440000D03*
X149860000Y-76200000D03*
D13*
X160020000Y-76200000D03*
D14*
X167640000Y-91440000D03*
X160020000Y-78740000D03*
X167640000Y-88900000D03*
X160020000Y-81280000D03*
X167640000Y-86360000D03*
X160020000Y-83820000D03*
X167640000Y-83820000D03*
X160020000Y-86360000D03*
X167640000Y-81280000D03*
X160020000Y-88900000D03*
X167640000Y-78740000D03*
X160020000Y-91440000D03*
X167640000Y-76200000D03*
D12*
X144780000Y-93980000D03*
X142280000Y-93980000D03*
D15*
X147320000Y-104140000D03*
D16*
X147320000Y-106680000D03*
X147320000Y-109220000D03*
X147320000Y-111760000D03*
X147320000Y-114300000D03*
X147320000Y-116840000D03*
X147320000Y-119380000D03*
X147320000Y-121920000D03*
X147320000Y-124460000D03*
D17*
X137160000Y-124460000D03*
D18*
X139700000Y-124460000D03*
D11*
X134620000Y-101600000D03*
X134620000Y-111760000D03*
D19*
X172720000Y-104140000D03*
D20*
X175260000Y-104140000D03*
D19*
X172720000Y-124460000D03*
D20*
X175260000Y-124460000D03*
D21*
X106680000Y-68580000D03*
D22*
X106680000Y-66040000D03*
X109220000Y-68580000D03*
X109220000Y-66040000D03*
X111760000Y-68580000D03*
X111760000Y-66040000D03*
X114300000Y-68580000D03*
X114300000Y-66040000D03*
X116840000Y-68580000D03*
X116840000Y-66040000D03*
X119380000Y-68580000D03*
X119380000Y-66040000D03*
X121920000Y-68580000D03*
X121920000Y-66040000D03*
X124460000Y-68580000D03*
X124460000Y-66040000D03*
X127000000Y-68580000D03*
X127000000Y-66040000D03*
X129540000Y-68580000D03*
X129540000Y-66040000D03*
X132080000Y-68580000D03*
X132080000Y-66040000D03*
X134620000Y-68580000D03*
X134620000Y-66040000D03*
X137160000Y-68580000D03*
X137160000Y-66040000D03*
X139700000Y-68580000D03*
X139700000Y-66040000D03*
X142240000Y-68580000D03*
X142240000Y-66040000D03*
X144780000Y-68580000D03*
X144780000Y-66040000D03*
X147320000Y-68580000D03*
X147320000Y-66040000D03*
X149860000Y-68580000D03*
X149860000Y-66040000D03*
X152400000Y-68580000D03*
X152400000Y-66040000D03*
X154940000Y-68580000D03*
X154940000Y-66040000D03*
X157480000Y-68580000D03*
X157480000Y-66040000D03*
X160020000Y-68580000D03*
X160020000Y-66040000D03*
X162560000Y-68580000D03*
X162560000Y-66040000D03*
X165100000Y-68580000D03*
X165100000Y-66040000D03*
X167640000Y-68580000D03*
X167640000Y-66040000D03*
D23*
X137160000Y-81280000D03*
D24*
X132080000Y-91440000D02*
X130810000Y-92710000D01*
X102870000Y-92710000D02*
X99060000Y-88900000D01*
X130810000Y-92710000D02*
X102870000Y-92710000D01*
X96520000Y-91440000D02*
X99060000Y-93980000D01*
X96520000Y-69850000D02*
X96520000Y-91440000D01*
X99060000Y-67310000D02*
X96520000Y-69850000D01*
X132080000Y-68580000D02*
X130810000Y-67310000D01*
X130810000Y-67310000D02*
X99060000Y-67310000D01*
X160020000Y-76200000D02*
X157480000Y-76200000D01*
X151130000Y-67310000D02*
X149860000Y-66040000D01*
X151130000Y-69850000D02*
X151130000Y-67310000D01*
X157480000Y-76200000D02*
X151130000Y-69850000D01*
X99060000Y-119380000D02*
X111760000Y-119380000D01*
X129540000Y-114300000D02*
X147320000Y-114300000D01*
X125730000Y-118110000D02*
X129540000Y-114300000D01*
X113030000Y-118110000D02*
X125730000Y-118110000D01*
X111760000Y-119380000D02*
X113030000Y-118110000D01*
X142240000Y-81280000D02*
X140970000Y-81280000D01*
X100330000Y-85090000D02*
X99060000Y-86360000D01*
X137160000Y-85090000D02*
X100330000Y-85090000D01*
X140970000Y-81280000D02*
X137160000Y-85090000D01*
X160020000Y-78740000D02*
X158750000Y-78740000D01*
X115570000Y-90170000D02*
X114300000Y-88900000D01*
X151130000Y-90170000D02*
X115570000Y-90170000D01*
X154940000Y-86360000D02*
X151130000Y-90170000D01*
X154940000Y-82550000D02*
X154940000Y-86360000D01*
X158750000Y-78740000D02*
X154940000Y-82550000D01*
X142240000Y-88900000D02*
X134620000Y-88900000D01*
X115570000Y-87630000D02*
X114300000Y-86360000D01*
X133350000Y-87630000D02*
X115570000Y-87630000D01*
X134620000Y-88900000D02*
X133350000Y-87630000D01*
X137160000Y-124460000D02*
X134620000Y-124460000D01*
X134620000Y-124460000D02*
X114300000Y-124460000D01*
X99060000Y-106680000D02*
X100330000Y-106680000D01*
X148590000Y-116840000D02*
X147320000Y-116840000D01*
X149860000Y-115570000D02*
X148590000Y-116840000D01*
X149860000Y-109220000D02*
X149860000Y-115570000D01*
X148590000Y-107950000D02*
X149860000Y-109220000D01*
X119380000Y-107950000D02*
X148590000Y-107950000D01*
X116840000Y-110490000D02*
X119380000Y-107950000D01*
X104140000Y-110490000D02*
X116840000Y-110490000D01*
X100330000Y-106680000D02*
X104140000Y-110490000D01*
X147320000Y-119380000D02*
X116840000Y-119380000D01*
X100330000Y-120650000D02*
X99060000Y-121920000D01*
X115570000Y-120650000D02*
X100330000Y-120650000D01*
X116840000Y-119380000D02*
X115570000Y-120650000D01*
X147320000Y-121920000D02*
X116840000Y-121920000D01*
X100330000Y-123190000D02*
X99060000Y-124460000D01*
X115570000Y-123190000D02*
X100330000Y-123190000D01*
X116840000Y-121920000D02*
X115570000Y-123190000D01*
X132080000Y-81280000D02*
X137160000Y-81280000D01*
D25*
G36*
X184844989Y-60552152D02*
X185434170Y-60945830D01*
X185827848Y-61535011D01*
X185980000Y-62299931D01*
X185980000Y-130740069D01*
X185827848Y-131504989D01*
X185434170Y-132094170D01*
X184844989Y-132487848D01*
X184080069Y-132640000D01*
X92779931Y-132640000D01*
X92015011Y-132487848D01*
X91425830Y-132094170D01*
X91032152Y-131504989D01*
X90880000Y-130740069D01*
X90880000Y-129982619D01*
X91744613Y-129982619D01*
X92084155Y-130804372D01*
X92712321Y-131433636D01*
X93533481Y-131774611D01*
X94422619Y-131775387D01*
X95244372Y-131435845D01*
X95873636Y-130807679D01*
X96214611Y-129986519D01*
X96214614Y-129982619D01*
X180644613Y-129982619D01*
X180984155Y-130804372D01*
X181612321Y-131433636D01*
X182433481Y-131774611D01*
X183322619Y-131775387D01*
X184144372Y-131435845D01*
X184773636Y-130807679D01*
X185114611Y-129986519D01*
X185115387Y-129097381D01*
X184775845Y-128275628D01*
X184147679Y-127646364D01*
X183326519Y-127305389D01*
X182437381Y-127304613D01*
X181615628Y-127644155D01*
X180986364Y-128272321D01*
X180645389Y-129093481D01*
X180644613Y-129982619D01*
X96214614Y-129982619D01*
X96215387Y-129097381D01*
X95875845Y-128275628D01*
X95247679Y-127646364D01*
X94426519Y-127305389D01*
X93537381Y-127304613D01*
X92715628Y-127644155D01*
X92086364Y-128272321D01*
X91745389Y-129093481D01*
X91744613Y-129982619D01*
X90880000Y-129982619D01*
X90880000Y-69850000D01*
X95760000Y-69850000D01*
X95760000Y-91440000D01*
X95817852Y-91730839D01*
X95982599Y-91977401D01*
X97661312Y-93656114D01*
X97596887Y-93980000D01*
X97706120Y-94529151D01*
X98017189Y-94994698D01*
X98399275Y-95250000D01*
X98017189Y-95505302D01*
X97706120Y-95970849D01*
X97596887Y-96520000D01*
X97706120Y-97069151D01*
X98017189Y-97534698D01*
X98399275Y-97790000D01*
X98017189Y-98045302D01*
X97706120Y-98510849D01*
X97596887Y-99060000D01*
X97706120Y-99609151D01*
X98017189Y-100074698D01*
X98399275Y-100330000D01*
X98017189Y-100585302D01*
X97706120Y-101050849D01*
X97596887Y-101600000D01*
X97706120Y-102149151D01*
X98017189Y-102614698D01*
X98399275Y-102870000D01*
X98017189Y-103125302D01*
X97706120Y-103590849D01*
X97596887Y-104140000D01*
X97706120Y-104689151D01*
X98017189Y-105154698D01*
X98399275Y-105410000D01*
X98017189Y-105665302D01*
X97706120Y-106130849D01*
X97596887Y-106680000D01*
X97706120Y-107229151D01*
X98017189Y-107694698D01*
X98399275Y-107950000D01*
X98017189Y-108205302D01*
X97706120Y-108670849D01*
X97596887Y-109220000D01*
X97706120Y-109769151D01*
X98017189Y-110234698D01*
X98399275Y-110490000D01*
X98017189Y-110745302D01*
X97706120Y-111210849D01*
X97596887Y-111760000D01*
X97706120Y-112309151D01*
X98017189Y-112774698D01*
X98399275Y-113030000D01*
X98017189Y-113285302D01*
X97706120Y-113750849D01*
X97596887Y-114300000D01*
X97706120Y-114849151D01*
X98017189Y-115314698D01*
X98399275Y-115570000D01*
X98017189Y-115825302D01*
X97706120Y-116290849D01*
X97596887Y-116840000D01*
X97706120Y-117389151D01*
X98017189Y-117854698D01*
X98399275Y-118110000D01*
X98017189Y-118365302D01*
X97706120Y-118830849D01*
X97596887Y-119380000D01*
X97706120Y-119929151D01*
X98017189Y-120394698D01*
X98399275Y-120650000D01*
X98017189Y-120905302D01*
X97706120Y-121370849D01*
X97596887Y-121920000D01*
X97706120Y-122469151D01*
X98017189Y-122934698D01*
X98399275Y-123190000D01*
X98017189Y-123445302D01*
X97706120Y-123910849D01*
X97596887Y-124460000D01*
X97706120Y-125009151D01*
X98017189Y-125474698D01*
X98482736Y-125785767D01*
X99031887Y-125895000D01*
X99088113Y-125895000D01*
X99637264Y-125785767D01*
X100102811Y-125474698D01*
X100413880Y-125009151D01*
X100523113Y-124460000D01*
X100458688Y-124136114D01*
X100644802Y-123950000D01*
X112938332Y-123950000D01*
X112836887Y-124460000D01*
X112946120Y-125009151D01*
X113257189Y-125474698D01*
X113722736Y-125785767D01*
X114271887Y-125895000D01*
X114328113Y-125895000D01*
X114877264Y-125785767D01*
X115342811Y-125474698D01*
X115512995Y-125220000D01*
X135612560Y-125220000D01*
X135612560Y-125360000D01*
X135656838Y-125595317D01*
X135795910Y-125811441D01*
X136008110Y-125956431D01*
X136260000Y-126007440D01*
X138060000Y-126007440D01*
X138295317Y-125963162D01*
X138511441Y-125824090D01*
X138656431Y-125611890D01*
X138660567Y-125591466D01*
X138829357Y-125760551D01*
X139393330Y-125994733D01*
X140003991Y-125995265D01*
X140568371Y-125762068D01*
X141000551Y-125330643D01*
X141234733Y-124766670D01*
X141235265Y-124156009D01*
X141002068Y-123591629D01*
X140570643Y-123159449D01*
X140006670Y-122925267D01*
X139396009Y-122924735D01*
X138831629Y-123157932D01*
X138663387Y-123325880D01*
X138663162Y-123324683D01*
X138524090Y-123108559D01*
X138311890Y-122963569D01*
X138060000Y-122912560D01*
X136260000Y-122912560D01*
X136024683Y-122956838D01*
X135808559Y-123095910D01*
X135663569Y-123308110D01*
X135612560Y-123560000D01*
X135612560Y-123700000D01*
X116134802Y-123700000D01*
X117154802Y-122680000D01*
X145875352Y-122680000D01*
X146075585Y-122979670D01*
X146390366Y-123190000D01*
X146075585Y-123400330D01*
X145750729Y-123886511D01*
X145636655Y-124460000D01*
X145750729Y-125033489D01*
X146075585Y-125519670D01*
X146561766Y-125844526D01*
X147135255Y-125958600D01*
X147504745Y-125958600D01*
X148078234Y-125844526D01*
X148564415Y-125519670D01*
X148889271Y-125033489D01*
X149003345Y-124460000D01*
X148889271Y-123886511D01*
X148593595Y-123444000D01*
X171056560Y-123444000D01*
X171056560Y-125476000D01*
X171100838Y-125711317D01*
X171239910Y-125927441D01*
X171452110Y-126072431D01*
X171704000Y-126123440D01*
X173736000Y-126123440D01*
X173971317Y-126079162D01*
X174187441Y-125940090D01*
X174289198Y-125791163D01*
X174628190Y-126017670D01*
X175260000Y-126143345D01*
X175891810Y-126017670D01*
X176427433Y-125659778D01*
X176785325Y-125124155D01*
X176911000Y-124492345D01*
X176911000Y-124427655D01*
X176785325Y-123795845D01*
X176427433Y-123260222D01*
X175891810Y-122902330D01*
X175260000Y-122776655D01*
X174628190Y-122902330D01*
X174288208Y-123129499D01*
X174200090Y-122992559D01*
X173987890Y-122847569D01*
X173736000Y-122796560D01*
X171704000Y-122796560D01*
X171468683Y-122840838D01*
X171252559Y-122979910D01*
X171107569Y-123192110D01*
X171056560Y-123444000D01*
X148593595Y-123444000D01*
X148564415Y-123400330D01*
X148249634Y-123190000D01*
X148564415Y-122979670D01*
X148889271Y-122493489D01*
X149003345Y-121920000D01*
X148889271Y-121346511D01*
X148564415Y-120860330D01*
X148249634Y-120650000D01*
X148564415Y-120439670D01*
X148889271Y-119953489D01*
X149003345Y-119380000D01*
X148889271Y-118806511D01*
X148564415Y-118320330D01*
X148249634Y-118110000D01*
X148564415Y-117899670D01*
X148791419Y-117559935D01*
X148880839Y-117542148D01*
X149127401Y-117377401D01*
X150397401Y-116107401D01*
X150562148Y-115860840D01*
X150620000Y-115570000D01*
X150620000Y-109220000D01*
X150562148Y-108929161D01*
X150562148Y-108929160D01*
X150397401Y-108682599D01*
X149127401Y-107412599D01*
X148889272Y-107253486D01*
X149003345Y-106680000D01*
X148889271Y-106106511D01*
X148564415Y-105620330D01*
X148542220Y-105605500D01*
X148695698Y-105541927D01*
X148874327Y-105363299D01*
X148971000Y-105129910D01*
X148971000Y-104425750D01*
X148812250Y-104267000D01*
X147447000Y-104267000D01*
X147447000Y-104287000D01*
X147193000Y-104287000D01*
X147193000Y-104267000D01*
X145827750Y-104267000D01*
X145669000Y-104425750D01*
X145669000Y-105129910D01*
X145765673Y-105363299D01*
X145944302Y-105541927D01*
X146097780Y-105605500D01*
X146075585Y-105620330D01*
X145750729Y-106106511D01*
X145636655Y-106680000D01*
X145738100Y-107190000D01*
X119380000Y-107190000D01*
X119137414Y-107238254D01*
X119089160Y-107247852D01*
X118842599Y-107412599D01*
X116525198Y-109730000D01*
X115661668Y-109730000D01*
X115763113Y-109220000D01*
X115653880Y-108670849D01*
X115342811Y-108205302D01*
X114960725Y-107950000D01*
X115342811Y-107694698D01*
X115653880Y-107229151D01*
X115763113Y-106680000D01*
X115653880Y-106130849D01*
X115342811Y-105665302D01*
X114960725Y-105410000D01*
X115342811Y-105154698D01*
X115653880Y-104689151D01*
X115763113Y-104140000D01*
X115653880Y-103590849D01*
X115342811Y-103125302D01*
X114960725Y-102870000D01*
X115342811Y-102614698D01*
X115653880Y-102149151D01*
X115698726Y-101923694D01*
X122825226Y-101923694D01*
X123073538Y-102524655D01*
X123532927Y-102984846D01*
X124133453Y-103234206D01*
X124783694Y-103234774D01*
X125384655Y-102986462D01*
X125844846Y-102527073D01*
X126094206Y-101926547D01*
X126094208Y-101923694D01*
X127905226Y-101923694D01*
X128153538Y-102524655D01*
X128612927Y-102984846D01*
X129213453Y-103234206D01*
X129863694Y-103234774D01*
X130464655Y-102986462D01*
X130924846Y-102527073D01*
X131174206Y-101926547D01*
X131174208Y-101923694D01*
X132985226Y-101923694D01*
X133233538Y-102524655D01*
X133692927Y-102984846D01*
X134293453Y-103234206D01*
X134943694Y-103234774D01*
X135148644Y-103150090D01*
X145669000Y-103150090D01*
X145669000Y-103854250D01*
X145827750Y-104013000D01*
X147193000Y-104013000D01*
X147193000Y-102800150D01*
X147447000Y-102800150D01*
X147447000Y-104013000D01*
X148812250Y-104013000D01*
X148971000Y-103854250D01*
X148971000Y-103150090D01*
X148960194Y-103124000D01*
X171056560Y-103124000D01*
X171056560Y-105156000D01*
X171100838Y-105391317D01*
X171239910Y-105607441D01*
X171452110Y-105752431D01*
X171704000Y-105803440D01*
X173736000Y-105803440D01*
X173971317Y-105759162D01*
X174187441Y-105620090D01*
X174289198Y-105471163D01*
X174628190Y-105697670D01*
X175260000Y-105823345D01*
X175891810Y-105697670D01*
X176427433Y-105339778D01*
X176785325Y-104804155D01*
X176911000Y-104172345D01*
X176911000Y-104107655D01*
X176785325Y-103475845D01*
X176427433Y-102940222D01*
X175891810Y-102582330D01*
X175260000Y-102456655D01*
X174628190Y-102582330D01*
X174288208Y-102809499D01*
X174200090Y-102672559D01*
X173987890Y-102527569D01*
X173736000Y-102476560D01*
X171704000Y-102476560D01*
X171468683Y-102520838D01*
X171252559Y-102659910D01*
X171107569Y-102872110D01*
X171056560Y-103124000D01*
X148960194Y-103124000D01*
X148874327Y-102916701D01*
X148695698Y-102738073D01*
X148462309Y-102641400D01*
X147605750Y-102641400D01*
X147447000Y-102800150D01*
X147193000Y-102800150D01*
X147034250Y-102641400D01*
X146177691Y-102641400D01*
X145944302Y-102738073D01*
X145765673Y-102916701D01*
X145669000Y-103150090D01*
X135148644Y-103150090D01*
X135544655Y-102986462D01*
X136004846Y-102527073D01*
X136254206Y-101926547D01*
X136254774Y-101276306D01*
X136006462Y-100675345D01*
X135547073Y-100215154D01*
X134946547Y-99965794D01*
X134296306Y-99965226D01*
X133695345Y-100213538D01*
X133235154Y-100672927D01*
X132985794Y-101273453D01*
X132985226Y-101923694D01*
X131174208Y-101923694D01*
X131174774Y-101276306D01*
X130926462Y-100675345D01*
X130467073Y-100215154D01*
X129866547Y-99965794D01*
X129216306Y-99965226D01*
X128615345Y-100213538D01*
X128155154Y-100672927D01*
X127905794Y-101273453D01*
X127905226Y-101923694D01*
X126094208Y-101923694D01*
X126094774Y-101276306D01*
X125846462Y-100675345D01*
X125387073Y-100215154D01*
X124786547Y-99965794D01*
X124136306Y-99965226D01*
X123535345Y-100213538D01*
X123075154Y-100672927D01*
X122825794Y-101273453D01*
X122825226Y-101923694D01*
X115698726Y-101923694D01*
X115763113Y-101600000D01*
X115653880Y-101050849D01*
X115342811Y-100585302D01*
X114960725Y-100330000D01*
X115342811Y-100074698D01*
X115653880Y-99609151D01*
X115763113Y-99060000D01*
X115653880Y-98510849D01*
X115342811Y-98045302D01*
X114960725Y-97790000D01*
X115342811Y-97534698D01*
X115653880Y-97069151D01*
X115763113Y-96520000D01*
X115653880Y-95970849D01*
X115342811Y-95505302D01*
X114960725Y-95250000D01*
X115342811Y-94994698D01*
X115653880Y-94529151D01*
X115763113Y-93980000D01*
X115661668Y-93470000D01*
X123157976Y-93470000D01*
X123065250Y-93693309D01*
X123064752Y-94264187D01*
X123282757Y-94791800D01*
X123686077Y-95195824D01*
X124213309Y-95414750D01*
X124784187Y-95415248D01*
X125311800Y-95197243D01*
X125521663Y-94987745D01*
X126171861Y-94987745D01*
X126245995Y-95233864D01*
X126783223Y-95426965D01*
X127353454Y-95399778D01*
X127754005Y-95233864D01*
X127828139Y-94987745D01*
X127000000Y-94159605D01*
X126171861Y-94987745D01*
X125521663Y-94987745D01*
X125715824Y-94793923D01*
X125743423Y-94727456D01*
X125746136Y-94734005D01*
X125992255Y-94808139D01*
X126820395Y-93980000D01*
X126806252Y-93965858D01*
X126985858Y-93786253D01*
X127000000Y-93800395D01*
X127014143Y-93786253D01*
X127193748Y-93965858D01*
X127179605Y-93980000D01*
X128007745Y-94808139D01*
X128253864Y-94734005D01*
X128446965Y-94196777D01*
X128419778Y-93626546D01*
X128354934Y-93470000D01*
X130810000Y-93470000D01*
X131100839Y-93412148D01*
X131347401Y-93247401D01*
X131774898Y-92819904D01*
X132051887Y-92875000D01*
X132108113Y-92875000D01*
X132657264Y-92765767D01*
X133122811Y-92454698D01*
X133433880Y-91989151D01*
X133543113Y-91440000D01*
X133441668Y-90930000D01*
X140878332Y-90930000D01*
X140776887Y-91440000D01*
X140886120Y-91989151D01*
X141197189Y-92454698D01*
X141585620Y-92714240D01*
X141468200Y-92762757D01*
X141064176Y-93166077D01*
X140845250Y-93693309D01*
X140844752Y-94264187D01*
X141062757Y-94791800D01*
X141466077Y-95195824D01*
X141993309Y-95414750D01*
X142564187Y-95415248D01*
X143091800Y-95197243D01*
X143301663Y-94987745D01*
X143951861Y-94987745D01*
X144025995Y-95233864D01*
X144563223Y-95426965D01*
X145133454Y-95399778D01*
X145534005Y-95233864D01*
X145608139Y-94987745D01*
X144780000Y-94159605D01*
X143951861Y-94987745D01*
X143301663Y-94987745D01*
X143495824Y-94793923D01*
X143523423Y-94727456D01*
X143526136Y-94734005D01*
X143772255Y-94808139D01*
X144600395Y-93980000D01*
X144959605Y-93980000D01*
X145787745Y-94808139D01*
X146033864Y-94734005D01*
X146226965Y-94196777D01*
X146199778Y-93626546D01*
X146033864Y-93225995D01*
X145787745Y-93151861D01*
X144959605Y-93980000D01*
X144600395Y-93980000D01*
X143772255Y-93151861D01*
X143526136Y-93225995D01*
X143523804Y-93232483D01*
X143497243Y-93168200D01*
X143301640Y-92972255D01*
X143951861Y-92972255D01*
X144780000Y-93800395D01*
X145608139Y-92972255D01*
X145534005Y-92726136D01*
X144996777Y-92533035D01*
X144426546Y-92560222D01*
X144025995Y-92726136D01*
X143951861Y-92972255D01*
X143301640Y-92972255D01*
X143093923Y-92764176D01*
X142924766Y-92693936D01*
X143282811Y-92454698D01*
X143593880Y-91989151D01*
X143703113Y-91440000D01*
X143601668Y-90930000D01*
X148498332Y-90930000D01*
X148396887Y-91440000D01*
X148506120Y-91989151D01*
X148817189Y-92454698D01*
X149282736Y-92765767D01*
X149831887Y-92875000D01*
X149888113Y-92875000D01*
X150437264Y-92765767D01*
X150902811Y-92454698D01*
X151213880Y-91989151D01*
X151323113Y-91440000D01*
X151218179Y-90912460D01*
X151420839Y-90872148D01*
X151667401Y-90707401D01*
X155477401Y-86897401D01*
X155642148Y-86650839D01*
X155700000Y-86360000D01*
X155700000Y-82864802D01*
X158910264Y-79654538D01*
X158977189Y-79754698D01*
X159359275Y-80010000D01*
X158977189Y-80265302D01*
X158666120Y-80730849D01*
X158556887Y-81280000D01*
X158666120Y-81829151D01*
X158977189Y-82294698D01*
X159359275Y-82550000D01*
X158977189Y-82805302D01*
X158666120Y-83270849D01*
X158556887Y-83820000D01*
X158666120Y-84369151D01*
X158977189Y-84834698D01*
X159359275Y-85090000D01*
X158977189Y-85345302D01*
X158666120Y-85810849D01*
X158556887Y-86360000D01*
X158666120Y-86909151D01*
X158977189Y-87374698D01*
X159359275Y-87630000D01*
X158977189Y-87885302D01*
X158666120Y-88350849D01*
X158556887Y-88900000D01*
X158666120Y-89449151D01*
X158977189Y-89914698D01*
X159359275Y-90170000D01*
X158977189Y-90425302D01*
X158666120Y-90890849D01*
X158556887Y-91440000D01*
X158666120Y-91989151D01*
X158977189Y-92454698D01*
X159365620Y-92714240D01*
X159248200Y-92762757D01*
X158844176Y-93166077D01*
X158625250Y-93693309D01*
X158624752Y-94264187D01*
X158842757Y-94791800D01*
X159246077Y-95195824D01*
X159773309Y-95414750D01*
X160344187Y-95415248D01*
X160871800Y-95197243D01*
X161081663Y-94987745D01*
X161731861Y-94987745D01*
X161805995Y-95233864D01*
X162343223Y-95426965D01*
X162913454Y-95399778D01*
X163314005Y-95233864D01*
X163388139Y-94987745D01*
X162560000Y-94159605D01*
X161731861Y-94987745D01*
X161081663Y-94987745D01*
X161275824Y-94793923D01*
X161303423Y-94727456D01*
X161306136Y-94734005D01*
X161552255Y-94808139D01*
X162380395Y-93980000D01*
X162739605Y-93980000D01*
X163567745Y-94808139D01*
X163813864Y-94734005D01*
X164006965Y-94196777D01*
X163979778Y-93626546D01*
X163813864Y-93225995D01*
X163567745Y-93151861D01*
X162739605Y-93980000D01*
X162380395Y-93980000D01*
X161552255Y-93151861D01*
X161306136Y-93225995D01*
X161303804Y-93232483D01*
X161277243Y-93168200D01*
X161081640Y-92972255D01*
X161731861Y-92972255D01*
X162560000Y-93800395D01*
X163388139Y-92972255D01*
X163314005Y-92726136D01*
X162776777Y-92533035D01*
X162206546Y-92560222D01*
X161805995Y-92726136D01*
X161731861Y-92972255D01*
X161081640Y-92972255D01*
X160873923Y-92764176D01*
X160704766Y-92693936D01*
X161062811Y-92454698D01*
X161373880Y-91989151D01*
X161483113Y-91440000D01*
X161373880Y-90890849D01*
X161062811Y-90425302D01*
X160680725Y-90170000D01*
X161062811Y-89914698D01*
X161373880Y-89449151D01*
X161483113Y-88900000D01*
X161373880Y-88350849D01*
X161062811Y-87885302D01*
X160680725Y-87630000D01*
X161062811Y-87374698D01*
X161373880Y-86909151D01*
X161483113Y-86360000D01*
X161373880Y-85810849D01*
X161062811Y-85345302D01*
X160680725Y-85090000D01*
X161062811Y-84834698D01*
X161373880Y-84369151D01*
X161483113Y-83820000D01*
X161373880Y-83270849D01*
X161062811Y-82805302D01*
X160680725Y-82550000D01*
X161062811Y-82294698D01*
X161373880Y-81829151D01*
X161483113Y-81280000D01*
X161373880Y-80730849D01*
X161062811Y-80265302D01*
X160680725Y-80010000D01*
X161062811Y-79754698D01*
X161373880Y-79289151D01*
X161483113Y-78740000D01*
X166176887Y-78740000D01*
X166286120Y-79289151D01*
X166597189Y-79754698D01*
X166979275Y-80010000D01*
X166597189Y-80265302D01*
X166286120Y-80730849D01*
X166176887Y-81280000D01*
X166286120Y-81829151D01*
X166597189Y-82294698D01*
X166979275Y-82550000D01*
X166597189Y-82805302D01*
X166286120Y-83270849D01*
X166176887Y-83820000D01*
X166286120Y-84369151D01*
X166597189Y-84834698D01*
X166979275Y-85090000D01*
X166597189Y-85345302D01*
X166286120Y-85810849D01*
X166176887Y-86360000D01*
X166286120Y-86909151D01*
X166597189Y-87374698D01*
X166979275Y-87630000D01*
X166597189Y-87885302D01*
X166286120Y-88350849D01*
X166176887Y-88900000D01*
X166286120Y-89449151D01*
X166597189Y-89914698D01*
X166979275Y-90170000D01*
X166597189Y-90425302D01*
X166286120Y-90890849D01*
X166176887Y-91440000D01*
X166286120Y-91989151D01*
X166597189Y-92454698D01*
X167062736Y-92765767D01*
X167611887Y-92875000D01*
X167668113Y-92875000D01*
X168217264Y-92765767D01*
X168682811Y-92454698D01*
X168993880Y-91989151D01*
X169103113Y-91440000D01*
X168993880Y-90890849D01*
X168682811Y-90425302D01*
X168300725Y-90170000D01*
X168682811Y-89914698D01*
X168993880Y-89449151D01*
X169103113Y-88900000D01*
X168993880Y-88350849D01*
X168682811Y-87885302D01*
X168300725Y-87630000D01*
X168682811Y-87374698D01*
X168993880Y-86909151D01*
X169103113Y-86360000D01*
X168993880Y-85810849D01*
X168682811Y-85345302D01*
X168300725Y-85090000D01*
X168682811Y-84834698D01*
X168993880Y-84369151D01*
X169103113Y-83820000D01*
X168993880Y-83270849D01*
X168682811Y-82805302D01*
X168300725Y-82550000D01*
X168682811Y-82294698D01*
X168993880Y-81829151D01*
X169103113Y-81280000D01*
X168993880Y-80730849D01*
X168682811Y-80265302D01*
X168300725Y-80010000D01*
X168682811Y-79754698D01*
X168993880Y-79289151D01*
X169103113Y-78740000D01*
X168993880Y-78190849D01*
X168682811Y-77725302D01*
X168278297Y-77455014D01*
X168495134Y-77352389D01*
X168871041Y-76937423D01*
X169031904Y-76549039D01*
X168909915Y-76327000D01*
X167767000Y-76327000D01*
X167767000Y-76347000D01*
X167513000Y-76347000D01*
X167513000Y-76327000D01*
X166370085Y-76327000D01*
X166248096Y-76549039D01*
X166408959Y-76937423D01*
X166784866Y-77352389D01*
X167001703Y-77455014D01*
X166597189Y-77725302D01*
X166286120Y-78190849D01*
X166176887Y-78740000D01*
X161483113Y-78740000D01*
X161373880Y-78190849D01*
X161062811Y-77725302D01*
X160918535Y-77628899D01*
X161055317Y-77603162D01*
X161271441Y-77464090D01*
X161416431Y-77251890D01*
X161467440Y-77000000D01*
X161467440Y-75850961D01*
X166248096Y-75850961D01*
X166370085Y-76073000D01*
X167513000Y-76073000D01*
X167513000Y-74929371D01*
X167767000Y-74929371D01*
X167767000Y-76073000D01*
X168909915Y-76073000D01*
X169031904Y-75850961D01*
X168871041Y-75462577D01*
X168495134Y-75047611D01*
X167989041Y-74808086D01*
X167767000Y-74929371D01*
X167513000Y-74929371D01*
X167290959Y-74808086D01*
X166784866Y-75047611D01*
X166408959Y-75462577D01*
X166248096Y-75850961D01*
X161467440Y-75850961D01*
X161467440Y-75400000D01*
X161423162Y-75164683D01*
X161284090Y-74948559D01*
X161071890Y-74803569D01*
X160820000Y-74752560D01*
X159220000Y-74752560D01*
X158984683Y-74796838D01*
X158768559Y-74935910D01*
X158623569Y-75148110D01*
X158572560Y-75400000D01*
X158572560Y-75440000D01*
X157794802Y-75440000D01*
X152452348Y-70097546D01*
X152973489Y-69993885D01*
X153459670Y-69669029D01*
X153670000Y-69354248D01*
X153880330Y-69669029D01*
X154366511Y-69993885D01*
X154940000Y-70107959D01*
X155513489Y-69993885D01*
X155999670Y-69669029D01*
X156210000Y-69354248D01*
X156420330Y-69669029D01*
X156906511Y-69993885D01*
X157480000Y-70107959D01*
X158053489Y-69993885D01*
X158539670Y-69669029D01*
X158750000Y-69354248D01*
X158960330Y-69669029D01*
X159446511Y-69993885D01*
X160020000Y-70107959D01*
X160593489Y-69993885D01*
X161079670Y-69669029D01*
X161290000Y-69354248D01*
X161500330Y-69669029D01*
X161986511Y-69993885D01*
X162560000Y-70107959D01*
X163133489Y-69993885D01*
X163619670Y-69669029D01*
X163830000Y-69354248D01*
X164040330Y-69669029D01*
X164526511Y-69993885D01*
X165100000Y-70107959D01*
X165673489Y-69993885D01*
X166159670Y-69669029D01*
X166370000Y-69354248D01*
X166580330Y-69669029D01*
X167066511Y-69993885D01*
X167640000Y-70107959D01*
X168213489Y-69993885D01*
X168699670Y-69669029D01*
X169024526Y-69182848D01*
X169138600Y-68609359D01*
X169138600Y-68550641D01*
X169024526Y-67977152D01*
X168699670Y-67490971D01*
X168428828Y-67310000D01*
X168699670Y-67129029D01*
X169024526Y-66642848D01*
X169138600Y-66069359D01*
X169138600Y-66010641D01*
X169024526Y-65437152D01*
X168699670Y-64950971D01*
X168213489Y-64626115D01*
X167640000Y-64512041D01*
X167066511Y-64626115D01*
X166580330Y-64950971D01*
X166370000Y-65265752D01*
X166159670Y-64950971D01*
X165673489Y-64626115D01*
X165100000Y-64512041D01*
X164526511Y-64626115D01*
X164040330Y-64950971D01*
X163830000Y-65265752D01*
X163619670Y-64950971D01*
X163133489Y-64626115D01*
X162560000Y-64512041D01*
X161986511Y-64626115D01*
X161500330Y-64950971D01*
X161290000Y-65265752D01*
X161079670Y-64950971D01*
X160593489Y-64626115D01*
X160020000Y-64512041D01*
X159446511Y-64626115D01*
X158960330Y-64950971D01*
X158750000Y-65265752D01*
X158539670Y-64950971D01*
X158053489Y-64626115D01*
X157480000Y-64512041D01*
X156906511Y-64626115D01*
X156420330Y-64950971D01*
X156210000Y-65265752D01*
X155999670Y-64950971D01*
X155513489Y-64626115D01*
X154940000Y-64512041D01*
X154366511Y-64626115D01*
X153880330Y-64950971D01*
X153670000Y-65265752D01*
X153459670Y-64950971D01*
X152973489Y-64626115D01*
X152400000Y-64512041D01*
X151826511Y-64626115D01*
X151340330Y-64950971D01*
X151130000Y-65265752D01*
X150919670Y-64950971D01*
X150433489Y-64626115D01*
X149860000Y-64512041D01*
X149286511Y-64626115D01*
X148800330Y-64950971D01*
X148590000Y-65265752D01*
X148379670Y-64950971D01*
X147893489Y-64626115D01*
X147320000Y-64512041D01*
X146746511Y-64626115D01*
X146260330Y-64950971D01*
X146050000Y-65265752D01*
X145839670Y-64950971D01*
X145353489Y-64626115D01*
X144780000Y-64512041D01*
X144206511Y-64626115D01*
X143720330Y-64950971D01*
X143510000Y-65265752D01*
X143299670Y-64950971D01*
X142813489Y-64626115D01*
X142240000Y-64512041D01*
X141666511Y-64626115D01*
X141180330Y-64950971D01*
X140970000Y-65265752D01*
X140759670Y-64950971D01*
X140273489Y-64626115D01*
X139700000Y-64512041D01*
X139126511Y-64626115D01*
X138640330Y-64950971D01*
X138430000Y-65265752D01*
X138219670Y-64950971D01*
X137733489Y-64626115D01*
X137160000Y-64512041D01*
X136586511Y-64626115D01*
X136100330Y-64950971D01*
X135890000Y-65265752D01*
X135679670Y-64950971D01*
X135193489Y-64626115D01*
X134620000Y-64512041D01*
X134046511Y-64626115D01*
X133560330Y-64950971D01*
X133350000Y-65265752D01*
X133139670Y-64950971D01*
X132653489Y-64626115D01*
X132080000Y-64512041D01*
X131506511Y-64626115D01*
X131020330Y-64950971D01*
X130810000Y-65265752D01*
X130599670Y-64950971D01*
X130113489Y-64626115D01*
X129540000Y-64512041D01*
X128966511Y-64626115D01*
X128480330Y-64950971D01*
X128270000Y-65265752D01*
X128059670Y-64950971D01*
X127573489Y-64626115D01*
X127000000Y-64512041D01*
X126426511Y-64626115D01*
X125940330Y-64950971D01*
X125730000Y-65265752D01*
X125519670Y-64950971D01*
X125033489Y-64626115D01*
X124460000Y-64512041D01*
X123886511Y-64626115D01*
X123400330Y-64950971D01*
X123190000Y-65265752D01*
X122979670Y-64950971D01*
X122493489Y-64626115D01*
X121920000Y-64512041D01*
X121346511Y-64626115D01*
X120860330Y-64950971D01*
X120650000Y-65265752D01*
X120439670Y-64950971D01*
X119953489Y-64626115D01*
X119380000Y-64512041D01*
X118806511Y-64626115D01*
X118320330Y-64950971D01*
X118110000Y-65265752D01*
X117899670Y-64950971D01*
X117413489Y-64626115D01*
X116840000Y-64512041D01*
X116266511Y-64626115D01*
X115780330Y-64950971D01*
X115570000Y-65265752D01*
X115359670Y-64950971D01*
X114873489Y-64626115D01*
X114300000Y-64512041D01*
X113726511Y-64626115D01*
X113240330Y-64950971D01*
X113030000Y-65265752D01*
X112819670Y-64950971D01*
X112333489Y-64626115D01*
X111760000Y-64512041D01*
X111186511Y-64626115D01*
X110700330Y-64950971D01*
X110490000Y-65265752D01*
X110279670Y-64950971D01*
X109793489Y-64626115D01*
X109220000Y-64512041D01*
X108646511Y-64626115D01*
X108160330Y-64950971D01*
X107950000Y-65265752D01*
X107739670Y-64950971D01*
X107253489Y-64626115D01*
X106680000Y-64512041D01*
X106106511Y-64626115D01*
X105620330Y-64950971D01*
X105295474Y-65437152D01*
X105181400Y-66010641D01*
X105181400Y-66069359D01*
X105277005Y-66550000D01*
X99060000Y-66550000D01*
X98817414Y-66598254D01*
X98769160Y-66607852D01*
X98522599Y-66772599D01*
X95982599Y-69312599D01*
X95817852Y-69559161D01*
X95760000Y-69850000D01*
X90880000Y-69850000D01*
X90880000Y-63942619D01*
X91744613Y-63942619D01*
X92084155Y-64764372D01*
X92712321Y-65393636D01*
X93533481Y-65734611D01*
X94422619Y-65735387D01*
X95244372Y-65395845D01*
X95873636Y-64767679D01*
X96214611Y-63946519D01*
X96214614Y-63942619D01*
X180644613Y-63942619D01*
X180984155Y-64764372D01*
X181612321Y-65393636D01*
X182433481Y-65734611D01*
X183322619Y-65735387D01*
X184144372Y-65395845D01*
X184773636Y-64767679D01*
X185114611Y-63946519D01*
X185115387Y-63057381D01*
X184775845Y-62235628D01*
X184147679Y-61606364D01*
X183326519Y-61265389D01*
X182437381Y-61264613D01*
X181615628Y-61604155D01*
X180986364Y-62232321D01*
X180645389Y-63053481D01*
X180644613Y-63942619D01*
X96214614Y-63942619D01*
X96215387Y-63057381D01*
X95875845Y-62235628D01*
X95247679Y-61606364D01*
X94426519Y-61265389D01*
X93537381Y-61264613D01*
X92715628Y-61604155D01*
X92086364Y-62232321D01*
X91745389Y-63053481D01*
X91744613Y-63942619D01*
X90880000Y-63942619D01*
X90880000Y-62299931D01*
X91032152Y-61535011D01*
X91425830Y-60945830D01*
X92015011Y-60552152D01*
X92779931Y-60400000D01*
X184080069Y-60400000D01*
X184844989Y-60552152D01*
X184844989Y-60552152D01*
G37*
X184844989Y-60552152D02*
X185434170Y-60945830D01*
X185827848Y-61535011D01*
X185980000Y-62299931D01*
X185980000Y-130740069D01*
X185827848Y-131504989D01*
X185434170Y-132094170D01*
X184844989Y-132487848D01*
X184080069Y-132640000D01*
X92779931Y-132640000D01*
X92015011Y-132487848D01*
X91425830Y-132094170D01*
X91032152Y-131504989D01*
X90880000Y-130740069D01*
X90880000Y-129982619D01*
X91744613Y-129982619D01*
X92084155Y-130804372D01*
X92712321Y-131433636D01*
X93533481Y-131774611D01*
X94422619Y-131775387D01*
X95244372Y-131435845D01*
X95873636Y-130807679D01*
X96214611Y-129986519D01*
X96214614Y-129982619D01*
X180644613Y-129982619D01*
X180984155Y-130804372D01*
X181612321Y-131433636D01*
X182433481Y-131774611D01*
X183322619Y-131775387D01*
X184144372Y-131435845D01*
X184773636Y-130807679D01*
X185114611Y-129986519D01*
X185115387Y-129097381D01*
X184775845Y-128275628D01*
X184147679Y-127646364D01*
X183326519Y-127305389D01*
X182437381Y-127304613D01*
X181615628Y-127644155D01*
X180986364Y-128272321D01*
X180645389Y-129093481D01*
X180644613Y-129982619D01*
X96214614Y-129982619D01*
X96215387Y-129097381D01*
X95875845Y-128275628D01*
X95247679Y-127646364D01*
X94426519Y-127305389D01*
X93537381Y-127304613D01*
X92715628Y-127644155D01*
X92086364Y-128272321D01*
X91745389Y-129093481D01*
X91744613Y-129982619D01*
X90880000Y-129982619D01*
X90880000Y-69850000D01*
X95760000Y-69850000D01*
X95760000Y-91440000D01*
X95817852Y-91730839D01*
X95982599Y-91977401D01*
X97661312Y-93656114D01*
X97596887Y-93980000D01*
X97706120Y-94529151D01*
X98017189Y-94994698D01*
X98399275Y-95250000D01*
X98017189Y-95505302D01*
X97706120Y-95970849D01*
X97596887Y-96520000D01*
X97706120Y-97069151D01*
X98017189Y-97534698D01*
X98399275Y-97790000D01*
X98017189Y-98045302D01*
X97706120Y-98510849D01*
X97596887Y-99060000D01*
X97706120Y-99609151D01*
X98017189Y-100074698D01*
X98399275Y-100330000D01*
X98017189Y-100585302D01*
X97706120Y-101050849D01*
X97596887Y-101600000D01*
X97706120Y-102149151D01*
X98017189Y-102614698D01*
X98399275Y-102870000D01*
X98017189Y-103125302D01*
X97706120Y-103590849D01*
X97596887Y-104140000D01*
X97706120Y-104689151D01*
X98017189Y-105154698D01*
X98399275Y-105410000D01*
X98017189Y-105665302D01*
X97706120Y-106130849D01*
X97596887Y-106680000D01*
X97706120Y-107229151D01*
X98017189Y-107694698D01*
X98399275Y-107950000D01*
X98017189Y-108205302D01*
X97706120Y-108670849D01*
X97596887Y-109220000D01*
X97706120Y-109769151D01*
X98017189Y-110234698D01*
X98399275Y-110490000D01*
X98017189Y-110745302D01*
X97706120Y-111210849D01*
X97596887Y-111760000D01*
X97706120Y-112309151D01*
X98017189Y-112774698D01*
X98399275Y-113030000D01*
X98017189Y-113285302D01*
X97706120Y-113750849D01*
X97596887Y-114300000D01*
X97706120Y-114849151D01*
X98017189Y-115314698D01*
X98399275Y-115570000D01*
X98017189Y-115825302D01*
X97706120Y-116290849D01*
X97596887Y-116840000D01*
X97706120Y-117389151D01*
X98017189Y-117854698D01*
X98399275Y-118110000D01*
X98017189Y-118365302D01*
X97706120Y-118830849D01*
X97596887Y-119380000D01*
X97706120Y-119929151D01*
X98017189Y-120394698D01*
X98399275Y-120650000D01*
X98017189Y-120905302D01*
X97706120Y-121370849D01*
X97596887Y-121920000D01*
X97706120Y-122469151D01*
X98017189Y-122934698D01*
X98399275Y-123190000D01*
X98017189Y-123445302D01*
X97706120Y-123910849D01*
X97596887Y-124460000D01*
X97706120Y-125009151D01*
X98017189Y-125474698D01*
X98482736Y-125785767D01*
X99031887Y-125895000D01*
X99088113Y-125895000D01*
X99637264Y-125785767D01*
X100102811Y-125474698D01*
X100413880Y-125009151D01*
X100523113Y-124460000D01*
X100458688Y-124136114D01*
X100644802Y-123950000D01*
X112938332Y-123950000D01*
X112836887Y-124460000D01*
X112946120Y-125009151D01*
X113257189Y-125474698D01*
X113722736Y-125785767D01*
X114271887Y-125895000D01*
X114328113Y-125895000D01*
X114877264Y-125785767D01*
X115342811Y-125474698D01*
X115512995Y-125220000D01*
X135612560Y-125220000D01*
X135612560Y-125360000D01*
X135656838Y-125595317D01*
X135795910Y-125811441D01*
X136008110Y-125956431D01*
X136260000Y-126007440D01*
X138060000Y-126007440D01*
X138295317Y-125963162D01*
X138511441Y-125824090D01*
X138656431Y-125611890D01*
X138660567Y-125591466D01*
X138829357Y-125760551D01*
X139393330Y-125994733D01*
X140003991Y-125995265D01*
X140568371Y-125762068D01*
X141000551Y-125330643D01*
X141234733Y-124766670D01*
X141235265Y-124156009D01*
X141002068Y-123591629D01*
X140570643Y-123159449D01*
X140006670Y-122925267D01*
X139396009Y-122924735D01*
X138831629Y-123157932D01*
X138663387Y-123325880D01*
X138663162Y-123324683D01*
X138524090Y-123108559D01*
X138311890Y-122963569D01*
X138060000Y-122912560D01*
X136260000Y-122912560D01*
X136024683Y-122956838D01*
X135808559Y-123095910D01*
X135663569Y-123308110D01*
X135612560Y-123560000D01*
X135612560Y-123700000D01*
X116134802Y-123700000D01*
X117154802Y-122680000D01*
X145875352Y-122680000D01*
X146075585Y-122979670D01*
X146390366Y-123190000D01*
X146075585Y-123400330D01*
X145750729Y-123886511D01*
X145636655Y-124460000D01*
X145750729Y-125033489D01*
X146075585Y-125519670D01*
X146561766Y-125844526D01*
X147135255Y-125958600D01*
X147504745Y-125958600D01*
X148078234Y-125844526D01*
X148564415Y-125519670D01*
X148889271Y-125033489D01*
X149003345Y-124460000D01*
X148889271Y-123886511D01*
X148593595Y-123444000D01*
X171056560Y-123444000D01*
X171056560Y-125476000D01*
X171100838Y-125711317D01*
X171239910Y-125927441D01*
X171452110Y-126072431D01*
X171704000Y-126123440D01*
X173736000Y-126123440D01*
X173971317Y-126079162D01*
X174187441Y-125940090D01*
X174289198Y-125791163D01*
X174628190Y-126017670D01*
X175260000Y-126143345D01*
X175891810Y-126017670D01*
X176427433Y-125659778D01*
X176785325Y-125124155D01*
X176911000Y-124492345D01*
X176911000Y-124427655D01*
X176785325Y-123795845D01*
X176427433Y-123260222D01*
X175891810Y-122902330D01*
X175260000Y-122776655D01*
X174628190Y-122902330D01*
X174288208Y-123129499D01*
X174200090Y-122992559D01*
X173987890Y-122847569D01*
X173736000Y-122796560D01*
X171704000Y-122796560D01*
X171468683Y-122840838D01*
X171252559Y-122979910D01*
X171107569Y-123192110D01*
X171056560Y-123444000D01*
X148593595Y-123444000D01*
X148564415Y-123400330D01*
X148249634Y-123190000D01*
X148564415Y-122979670D01*
X148889271Y-122493489D01*
X149003345Y-121920000D01*
X148889271Y-121346511D01*
X148564415Y-120860330D01*
X148249634Y-120650000D01*
X148564415Y-120439670D01*
X148889271Y-119953489D01*
X149003345Y-119380000D01*
X148889271Y-118806511D01*
X148564415Y-118320330D01*
X148249634Y-118110000D01*
X148564415Y-117899670D01*
X148791419Y-117559935D01*
X148880839Y-117542148D01*
X149127401Y-117377401D01*
X150397401Y-116107401D01*
X150562148Y-115860840D01*
X150620000Y-115570000D01*
X150620000Y-109220000D01*
X150562148Y-108929161D01*
X150562148Y-108929160D01*
X150397401Y-108682599D01*
X149127401Y-107412599D01*
X148889272Y-107253486D01*
X149003345Y-106680000D01*
X148889271Y-106106511D01*
X148564415Y-105620330D01*
X148542220Y-105605500D01*
X148695698Y-105541927D01*
X148874327Y-105363299D01*
X148971000Y-105129910D01*
X148971000Y-104425750D01*
X148812250Y-104267000D01*
X147447000Y-104267000D01*
X147447000Y-104287000D01*
X147193000Y-104287000D01*
X147193000Y-104267000D01*
X145827750Y-104267000D01*
X145669000Y-104425750D01*
X145669000Y-105129910D01*
X145765673Y-105363299D01*
X145944302Y-105541927D01*
X146097780Y-105605500D01*
X146075585Y-105620330D01*
X145750729Y-106106511D01*
X145636655Y-106680000D01*
X145738100Y-107190000D01*
X119380000Y-107190000D01*
X119137414Y-107238254D01*
X119089160Y-107247852D01*
X118842599Y-107412599D01*
X116525198Y-109730000D01*
X115661668Y-109730000D01*
X115763113Y-109220000D01*
X115653880Y-108670849D01*
X115342811Y-108205302D01*
X114960725Y-107950000D01*
X115342811Y-107694698D01*
X115653880Y-107229151D01*
X115763113Y-106680000D01*
X115653880Y-106130849D01*
X115342811Y-105665302D01*
X114960725Y-105410000D01*
X115342811Y-105154698D01*
X115653880Y-104689151D01*
X115763113Y-104140000D01*
X115653880Y-103590849D01*
X115342811Y-103125302D01*
X114960725Y-102870000D01*
X115342811Y-102614698D01*
X115653880Y-102149151D01*
X115698726Y-101923694D01*
X122825226Y-101923694D01*
X123073538Y-102524655D01*
X123532927Y-102984846D01*
X124133453Y-103234206D01*
X124783694Y-103234774D01*
X125384655Y-102986462D01*
X125844846Y-102527073D01*
X126094206Y-101926547D01*
X126094208Y-101923694D01*
X127905226Y-101923694D01*
X128153538Y-102524655D01*
X128612927Y-102984846D01*
X129213453Y-103234206D01*
X129863694Y-103234774D01*
X130464655Y-102986462D01*
X130924846Y-102527073D01*
X131174206Y-101926547D01*
X131174208Y-101923694D01*
X132985226Y-101923694D01*
X133233538Y-102524655D01*
X133692927Y-102984846D01*
X134293453Y-103234206D01*
X134943694Y-103234774D01*
X135148644Y-103150090D01*
X145669000Y-103150090D01*
X145669000Y-103854250D01*
X145827750Y-104013000D01*
X147193000Y-104013000D01*
X147193000Y-102800150D01*
X147447000Y-102800150D01*
X147447000Y-104013000D01*
X148812250Y-104013000D01*
X148971000Y-103854250D01*
X148971000Y-103150090D01*
X148960194Y-103124000D01*
X171056560Y-103124000D01*
X171056560Y-105156000D01*
X171100838Y-105391317D01*
X171239910Y-105607441D01*
X171452110Y-105752431D01*
X171704000Y-105803440D01*
X173736000Y-105803440D01*
X173971317Y-105759162D01*
X174187441Y-105620090D01*
X174289198Y-105471163D01*
X174628190Y-105697670D01*
X175260000Y-105823345D01*
X175891810Y-105697670D01*
X176427433Y-105339778D01*
X176785325Y-104804155D01*
X176911000Y-104172345D01*
X176911000Y-104107655D01*
X176785325Y-103475845D01*
X176427433Y-102940222D01*
X175891810Y-102582330D01*
X175260000Y-102456655D01*
X174628190Y-102582330D01*
X174288208Y-102809499D01*
X174200090Y-102672559D01*
X173987890Y-102527569D01*
X173736000Y-102476560D01*
X171704000Y-102476560D01*
X171468683Y-102520838D01*
X171252559Y-102659910D01*
X171107569Y-102872110D01*
X171056560Y-103124000D01*
X148960194Y-103124000D01*
X148874327Y-102916701D01*
X148695698Y-102738073D01*
X148462309Y-102641400D01*
X147605750Y-102641400D01*
X147447000Y-102800150D01*
X147193000Y-102800150D01*
X147034250Y-102641400D01*
X146177691Y-102641400D01*
X145944302Y-102738073D01*
X145765673Y-102916701D01*
X145669000Y-103150090D01*
X135148644Y-103150090D01*
X135544655Y-102986462D01*
X136004846Y-102527073D01*
X136254206Y-101926547D01*
X136254774Y-101276306D01*
X136006462Y-100675345D01*
X135547073Y-100215154D01*
X134946547Y-99965794D01*
X134296306Y-99965226D01*
X133695345Y-100213538D01*
X133235154Y-100672927D01*
X132985794Y-101273453D01*
X132985226Y-101923694D01*
X131174208Y-101923694D01*
X131174774Y-101276306D01*
X130926462Y-100675345D01*
X130467073Y-100215154D01*
X129866547Y-99965794D01*
X129216306Y-99965226D01*
X128615345Y-100213538D01*
X128155154Y-100672927D01*
X127905794Y-101273453D01*
X127905226Y-101923694D01*
X126094208Y-101923694D01*
X126094774Y-101276306D01*
X125846462Y-100675345D01*
X125387073Y-100215154D01*
X124786547Y-99965794D01*
X124136306Y-99965226D01*
X123535345Y-100213538D01*
X123075154Y-100672927D01*
X122825794Y-101273453D01*
X122825226Y-101923694D01*
X115698726Y-101923694D01*
X115763113Y-101600000D01*
X115653880Y-101050849D01*
X115342811Y-100585302D01*
X114960725Y-100330000D01*
X115342811Y-100074698D01*
X115653880Y-99609151D01*
X115763113Y-99060000D01*
X115653880Y-98510849D01*
X115342811Y-98045302D01*
X114960725Y-97790000D01*
X115342811Y-97534698D01*
X115653880Y-97069151D01*
X115763113Y-96520000D01*
X115653880Y-95970849D01*
X115342811Y-95505302D01*
X114960725Y-95250000D01*
X115342811Y-94994698D01*
X115653880Y-94529151D01*
X115763113Y-93980000D01*
X115661668Y-93470000D01*
X123157976Y-93470000D01*
X123065250Y-93693309D01*
X123064752Y-94264187D01*
X123282757Y-94791800D01*
X123686077Y-95195824D01*
X124213309Y-95414750D01*
X124784187Y-95415248D01*
X125311800Y-95197243D01*
X125521663Y-94987745D01*
X126171861Y-94987745D01*
X126245995Y-95233864D01*
X126783223Y-95426965D01*
X127353454Y-95399778D01*
X127754005Y-95233864D01*
X127828139Y-94987745D01*
X127000000Y-94159605D01*
X126171861Y-94987745D01*
X125521663Y-94987745D01*
X125715824Y-94793923D01*
X125743423Y-94727456D01*
X125746136Y-94734005D01*
X125992255Y-94808139D01*
X126820395Y-93980000D01*
X126806252Y-93965858D01*
X126985858Y-93786253D01*
X127000000Y-93800395D01*
X127014143Y-93786253D01*
X127193748Y-93965858D01*
X127179605Y-93980000D01*
X128007745Y-94808139D01*
X128253864Y-94734005D01*
X128446965Y-94196777D01*
X128419778Y-93626546D01*
X128354934Y-93470000D01*
X130810000Y-93470000D01*
X131100839Y-93412148D01*
X131347401Y-93247401D01*
X131774898Y-92819904D01*
X132051887Y-92875000D01*
X132108113Y-92875000D01*
X132657264Y-92765767D01*
X133122811Y-92454698D01*
X133433880Y-91989151D01*
X133543113Y-91440000D01*
X133441668Y-90930000D01*
X140878332Y-90930000D01*
X140776887Y-91440000D01*
X140886120Y-91989151D01*
X141197189Y-92454698D01*
X141585620Y-92714240D01*
X141468200Y-92762757D01*
X141064176Y-93166077D01*
X140845250Y-93693309D01*
X140844752Y-94264187D01*
X141062757Y-94791800D01*
X141466077Y-95195824D01*
X141993309Y-95414750D01*
X142564187Y-95415248D01*
X143091800Y-95197243D01*
X143301663Y-94987745D01*
X143951861Y-94987745D01*
X144025995Y-95233864D01*
X144563223Y-95426965D01*
X145133454Y-95399778D01*
X145534005Y-95233864D01*
X145608139Y-94987745D01*
X144780000Y-94159605D01*
X143951861Y-94987745D01*
X143301663Y-94987745D01*
X143495824Y-94793923D01*
X143523423Y-94727456D01*
X143526136Y-94734005D01*
X143772255Y-94808139D01*
X144600395Y-93980000D01*
X144959605Y-93980000D01*
X145787745Y-94808139D01*
X146033864Y-94734005D01*
X146226965Y-94196777D01*
X146199778Y-93626546D01*
X146033864Y-93225995D01*
X145787745Y-93151861D01*
X144959605Y-93980000D01*
X144600395Y-93980000D01*
X143772255Y-93151861D01*
X143526136Y-93225995D01*
X143523804Y-93232483D01*
X143497243Y-93168200D01*
X143301640Y-92972255D01*
X143951861Y-92972255D01*
X144780000Y-93800395D01*
X145608139Y-92972255D01*
X145534005Y-92726136D01*
X144996777Y-92533035D01*
X144426546Y-92560222D01*
X144025995Y-92726136D01*
X143951861Y-92972255D01*
X143301640Y-92972255D01*
X143093923Y-92764176D01*
X142924766Y-92693936D01*
X143282811Y-92454698D01*
X143593880Y-91989151D01*
X143703113Y-91440000D01*
X143601668Y-90930000D01*
X148498332Y-90930000D01*
X148396887Y-91440000D01*
X148506120Y-91989151D01*
X148817189Y-92454698D01*
X149282736Y-92765767D01*
X149831887Y-92875000D01*
X149888113Y-92875000D01*
X150437264Y-92765767D01*
X150902811Y-92454698D01*
X151213880Y-91989151D01*
X151323113Y-91440000D01*
X151218179Y-90912460D01*
X151420839Y-90872148D01*
X151667401Y-90707401D01*
X155477401Y-86897401D01*
X155642148Y-86650839D01*
X155700000Y-86360000D01*
X155700000Y-82864802D01*
X158910264Y-79654538D01*
X158977189Y-79754698D01*
X159359275Y-80010000D01*
X158977189Y-80265302D01*
X158666120Y-80730849D01*
X158556887Y-81280000D01*
X158666120Y-81829151D01*
X158977189Y-82294698D01*
X159359275Y-82550000D01*
X158977189Y-82805302D01*
X158666120Y-83270849D01*
X158556887Y-83820000D01*
X158666120Y-84369151D01*
X158977189Y-84834698D01*
X159359275Y-85090000D01*
X158977189Y-85345302D01*
X158666120Y-85810849D01*
X158556887Y-86360000D01*
X158666120Y-86909151D01*
X158977189Y-87374698D01*
X159359275Y-87630000D01*
X158977189Y-87885302D01*
X158666120Y-88350849D01*
X158556887Y-88900000D01*
X158666120Y-89449151D01*
X158977189Y-89914698D01*
X159359275Y-90170000D01*
X158977189Y-90425302D01*
X158666120Y-90890849D01*
X158556887Y-91440000D01*
X158666120Y-91989151D01*
X158977189Y-92454698D01*
X159365620Y-92714240D01*
X159248200Y-92762757D01*
X158844176Y-93166077D01*
X158625250Y-93693309D01*
X158624752Y-94264187D01*
X158842757Y-94791800D01*
X159246077Y-95195824D01*
X159773309Y-95414750D01*
X160344187Y-95415248D01*
X160871800Y-95197243D01*
X161081663Y-94987745D01*
X161731861Y-94987745D01*
X161805995Y-95233864D01*
X162343223Y-95426965D01*
X162913454Y-95399778D01*
X163314005Y-95233864D01*
X163388139Y-94987745D01*
X162560000Y-94159605D01*
X161731861Y-94987745D01*
X161081663Y-94987745D01*
X161275824Y-94793923D01*
X161303423Y-94727456D01*
X161306136Y-94734005D01*
X161552255Y-94808139D01*
X162380395Y-93980000D01*
X162739605Y-93980000D01*
X163567745Y-94808139D01*
X163813864Y-94734005D01*
X164006965Y-94196777D01*
X163979778Y-93626546D01*
X163813864Y-93225995D01*
X163567745Y-93151861D01*
X162739605Y-93980000D01*
X162380395Y-93980000D01*
X161552255Y-93151861D01*
X161306136Y-93225995D01*
X161303804Y-93232483D01*
X161277243Y-93168200D01*
X161081640Y-92972255D01*
X161731861Y-92972255D01*
X162560000Y-93800395D01*
X163388139Y-92972255D01*
X163314005Y-92726136D01*
X162776777Y-92533035D01*
X162206546Y-92560222D01*
X161805995Y-92726136D01*
X161731861Y-92972255D01*
X161081640Y-92972255D01*
X160873923Y-92764176D01*
X160704766Y-92693936D01*
X161062811Y-92454698D01*
X161373880Y-91989151D01*
X161483113Y-91440000D01*
X161373880Y-90890849D01*
X161062811Y-90425302D01*
X160680725Y-90170000D01*
X161062811Y-89914698D01*
X161373880Y-89449151D01*
X161483113Y-88900000D01*
X161373880Y-88350849D01*
X161062811Y-87885302D01*
X160680725Y-87630000D01*
X161062811Y-87374698D01*
X161373880Y-86909151D01*
X161483113Y-86360000D01*
X161373880Y-85810849D01*
X161062811Y-85345302D01*
X160680725Y-85090000D01*
X161062811Y-84834698D01*
X161373880Y-84369151D01*
X161483113Y-83820000D01*
X161373880Y-83270849D01*
X161062811Y-82805302D01*
X160680725Y-82550000D01*
X161062811Y-82294698D01*
X161373880Y-81829151D01*
X161483113Y-81280000D01*
X161373880Y-80730849D01*
X161062811Y-80265302D01*
X160680725Y-80010000D01*
X161062811Y-79754698D01*
X161373880Y-79289151D01*
X161483113Y-78740000D01*
X166176887Y-78740000D01*
X166286120Y-79289151D01*
X166597189Y-79754698D01*
X166979275Y-80010000D01*
X166597189Y-80265302D01*
X166286120Y-80730849D01*
X166176887Y-81280000D01*
X166286120Y-81829151D01*
X166597189Y-82294698D01*
X166979275Y-82550000D01*
X166597189Y-82805302D01*
X166286120Y-83270849D01*
X166176887Y-83820000D01*
X166286120Y-84369151D01*
X166597189Y-84834698D01*
X166979275Y-85090000D01*
X166597189Y-85345302D01*
X166286120Y-85810849D01*
X166176887Y-86360000D01*
X166286120Y-86909151D01*
X166597189Y-87374698D01*
X166979275Y-87630000D01*
X166597189Y-87885302D01*
X166286120Y-88350849D01*
X166176887Y-88900000D01*
X166286120Y-89449151D01*
X166597189Y-89914698D01*
X166979275Y-90170000D01*
X166597189Y-90425302D01*
X166286120Y-90890849D01*
X166176887Y-91440000D01*
X166286120Y-91989151D01*
X166597189Y-92454698D01*
X167062736Y-92765767D01*
X167611887Y-92875000D01*
X167668113Y-92875000D01*
X168217264Y-92765767D01*
X168682811Y-92454698D01*
X168993880Y-91989151D01*
X169103113Y-91440000D01*
X168993880Y-90890849D01*
X168682811Y-90425302D01*
X168300725Y-90170000D01*
X168682811Y-89914698D01*
X168993880Y-89449151D01*
X169103113Y-88900000D01*
X168993880Y-88350849D01*
X168682811Y-87885302D01*
X168300725Y-87630000D01*
X168682811Y-87374698D01*
X168993880Y-86909151D01*
X169103113Y-86360000D01*
X168993880Y-85810849D01*
X168682811Y-85345302D01*
X168300725Y-85090000D01*
X168682811Y-84834698D01*
X168993880Y-84369151D01*
X169103113Y-83820000D01*
X168993880Y-83270849D01*
X168682811Y-82805302D01*
X168300725Y-82550000D01*
X168682811Y-82294698D01*
X168993880Y-81829151D01*
X169103113Y-81280000D01*
X168993880Y-80730849D01*
X168682811Y-80265302D01*
X168300725Y-80010000D01*
X168682811Y-79754698D01*
X168993880Y-79289151D01*
X169103113Y-78740000D01*
X168993880Y-78190849D01*
X168682811Y-77725302D01*
X168278297Y-77455014D01*
X168495134Y-77352389D01*
X168871041Y-76937423D01*
X169031904Y-76549039D01*
X168909915Y-76327000D01*
X167767000Y-76327000D01*
X167767000Y-76347000D01*
X167513000Y-76347000D01*
X167513000Y-76327000D01*
X166370085Y-76327000D01*
X166248096Y-76549039D01*
X166408959Y-76937423D01*
X166784866Y-77352389D01*
X167001703Y-77455014D01*
X166597189Y-77725302D01*
X166286120Y-78190849D01*
X166176887Y-78740000D01*
X161483113Y-78740000D01*
X161373880Y-78190849D01*
X161062811Y-77725302D01*
X160918535Y-77628899D01*
X161055317Y-77603162D01*
X161271441Y-77464090D01*
X161416431Y-77251890D01*
X161467440Y-77000000D01*
X161467440Y-75850961D01*
X166248096Y-75850961D01*
X166370085Y-76073000D01*
X167513000Y-76073000D01*
X167513000Y-74929371D01*
X167767000Y-74929371D01*
X167767000Y-76073000D01*
X168909915Y-76073000D01*
X169031904Y-75850961D01*
X168871041Y-75462577D01*
X168495134Y-75047611D01*
X167989041Y-74808086D01*
X167767000Y-74929371D01*
X167513000Y-74929371D01*
X167290959Y-74808086D01*
X166784866Y-75047611D01*
X166408959Y-75462577D01*
X166248096Y-75850961D01*
X161467440Y-75850961D01*
X161467440Y-75400000D01*
X161423162Y-75164683D01*
X161284090Y-74948559D01*
X161071890Y-74803569D01*
X160820000Y-74752560D01*
X159220000Y-74752560D01*
X158984683Y-74796838D01*
X158768559Y-74935910D01*
X158623569Y-75148110D01*
X158572560Y-75400000D01*
X158572560Y-75440000D01*
X157794802Y-75440000D01*
X152452348Y-70097546D01*
X152973489Y-69993885D01*
X153459670Y-69669029D01*
X153670000Y-69354248D01*
X153880330Y-69669029D01*
X154366511Y-69993885D01*
X154940000Y-70107959D01*
X155513489Y-69993885D01*
X155999670Y-69669029D01*
X156210000Y-69354248D01*
X156420330Y-69669029D01*
X156906511Y-69993885D01*
X157480000Y-70107959D01*
X158053489Y-69993885D01*
X158539670Y-69669029D01*
X158750000Y-69354248D01*
X158960330Y-69669029D01*
X159446511Y-69993885D01*
X160020000Y-70107959D01*
X160593489Y-69993885D01*
X161079670Y-69669029D01*
X161290000Y-69354248D01*
X161500330Y-69669029D01*
X161986511Y-69993885D01*
X162560000Y-70107959D01*
X163133489Y-69993885D01*
X163619670Y-69669029D01*
X163830000Y-69354248D01*
X164040330Y-69669029D01*
X164526511Y-69993885D01*
X165100000Y-70107959D01*
X165673489Y-69993885D01*
X166159670Y-69669029D01*
X166370000Y-69354248D01*
X166580330Y-69669029D01*
X167066511Y-69993885D01*
X167640000Y-70107959D01*
X168213489Y-69993885D01*
X168699670Y-69669029D01*
X169024526Y-69182848D01*
X169138600Y-68609359D01*
X169138600Y-68550641D01*
X169024526Y-67977152D01*
X168699670Y-67490971D01*
X168428828Y-67310000D01*
X168699670Y-67129029D01*
X169024526Y-66642848D01*
X169138600Y-66069359D01*
X169138600Y-66010641D01*
X169024526Y-65437152D01*
X168699670Y-64950971D01*
X168213489Y-64626115D01*
X167640000Y-64512041D01*
X167066511Y-64626115D01*
X166580330Y-64950971D01*
X166370000Y-65265752D01*
X166159670Y-64950971D01*
X165673489Y-64626115D01*
X165100000Y-64512041D01*
X164526511Y-64626115D01*
X164040330Y-64950971D01*
X163830000Y-65265752D01*
X163619670Y-64950971D01*
X163133489Y-64626115D01*
X162560000Y-64512041D01*
X161986511Y-64626115D01*
X161500330Y-64950971D01*
X161290000Y-65265752D01*
X161079670Y-64950971D01*
X160593489Y-64626115D01*
X160020000Y-64512041D01*
X159446511Y-64626115D01*
X158960330Y-64950971D01*
X158750000Y-65265752D01*
X158539670Y-64950971D01*
X158053489Y-64626115D01*
X157480000Y-64512041D01*
X156906511Y-64626115D01*
X156420330Y-64950971D01*
X156210000Y-65265752D01*
X155999670Y-64950971D01*
X155513489Y-64626115D01*
X154940000Y-64512041D01*
X154366511Y-64626115D01*
X153880330Y-64950971D01*
X153670000Y-65265752D01*
X153459670Y-64950971D01*
X152973489Y-64626115D01*
X152400000Y-64512041D01*
X151826511Y-64626115D01*
X151340330Y-64950971D01*
X151130000Y-65265752D01*
X150919670Y-64950971D01*
X150433489Y-64626115D01*
X149860000Y-64512041D01*
X149286511Y-64626115D01*
X148800330Y-64950971D01*
X148590000Y-65265752D01*
X148379670Y-64950971D01*
X147893489Y-64626115D01*
X147320000Y-64512041D01*
X146746511Y-64626115D01*
X146260330Y-64950971D01*
X146050000Y-65265752D01*
X145839670Y-64950971D01*
X145353489Y-64626115D01*
X144780000Y-64512041D01*
X144206511Y-64626115D01*
X143720330Y-64950971D01*
X143510000Y-65265752D01*
X143299670Y-64950971D01*
X142813489Y-64626115D01*
X142240000Y-64512041D01*
X141666511Y-64626115D01*
X141180330Y-64950971D01*
X140970000Y-65265752D01*
X140759670Y-64950971D01*
X140273489Y-64626115D01*
X139700000Y-64512041D01*
X139126511Y-64626115D01*
X138640330Y-64950971D01*
X138430000Y-65265752D01*
X138219670Y-64950971D01*
X137733489Y-64626115D01*
X137160000Y-64512041D01*
X136586511Y-64626115D01*
X136100330Y-64950971D01*
X135890000Y-65265752D01*
X135679670Y-64950971D01*
X135193489Y-64626115D01*
X134620000Y-64512041D01*
X134046511Y-64626115D01*
X133560330Y-64950971D01*
X133350000Y-65265752D01*
X133139670Y-64950971D01*
X132653489Y-64626115D01*
X132080000Y-64512041D01*
X131506511Y-64626115D01*
X131020330Y-64950971D01*
X130810000Y-65265752D01*
X130599670Y-64950971D01*
X130113489Y-64626115D01*
X129540000Y-64512041D01*
X128966511Y-64626115D01*
X128480330Y-64950971D01*
X128270000Y-65265752D01*
X128059670Y-64950971D01*
X127573489Y-64626115D01*
X127000000Y-64512041D01*
X126426511Y-64626115D01*
X125940330Y-64950971D01*
X125730000Y-65265752D01*
X125519670Y-64950971D01*
X125033489Y-64626115D01*
X124460000Y-64512041D01*
X123886511Y-64626115D01*
X123400330Y-64950971D01*
X123190000Y-65265752D01*
X122979670Y-64950971D01*
X122493489Y-64626115D01*
X121920000Y-64512041D01*
X121346511Y-64626115D01*
X120860330Y-64950971D01*
X120650000Y-65265752D01*
X120439670Y-64950971D01*
X119953489Y-64626115D01*
X119380000Y-64512041D01*
X118806511Y-64626115D01*
X118320330Y-64950971D01*
X118110000Y-65265752D01*
X117899670Y-64950971D01*
X117413489Y-64626115D01*
X116840000Y-64512041D01*
X116266511Y-64626115D01*
X115780330Y-64950971D01*
X115570000Y-65265752D01*
X115359670Y-64950971D01*
X114873489Y-64626115D01*
X114300000Y-64512041D01*
X113726511Y-64626115D01*
X113240330Y-64950971D01*
X113030000Y-65265752D01*
X112819670Y-64950971D01*
X112333489Y-64626115D01*
X111760000Y-64512041D01*
X111186511Y-64626115D01*
X110700330Y-64950971D01*
X110490000Y-65265752D01*
X110279670Y-64950971D01*
X109793489Y-64626115D01*
X109220000Y-64512041D01*
X108646511Y-64626115D01*
X108160330Y-64950971D01*
X107950000Y-65265752D01*
X107739670Y-64950971D01*
X107253489Y-64626115D01*
X106680000Y-64512041D01*
X106106511Y-64626115D01*
X105620330Y-64950971D01*
X105295474Y-65437152D01*
X105181400Y-66010641D01*
X105181400Y-66069359D01*
X105277005Y-66550000D01*
X99060000Y-66550000D01*
X98817414Y-66598254D01*
X98769160Y-66607852D01*
X98522599Y-66772599D01*
X95982599Y-69312599D01*
X95817852Y-69559161D01*
X95760000Y-69850000D01*
X90880000Y-69850000D01*
X90880000Y-63942619D01*
X91744613Y-63942619D01*
X92084155Y-64764372D01*
X92712321Y-65393636D01*
X93533481Y-65734611D01*
X94422619Y-65735387D01*
X95244372Y-65395845D01*
X95873636Y-64767679D01*
X96214611Y-63946519D01*
X96214614Y-63942619D01*
X180644613Y-63942619D01*
X180984155Y-64764372D01*
X181612321Y-65393636D01*
X182433481Y-65734611D01*
X183322619Y-65735387D01*
X184144372Y-65395845D01*
X184773636Y-64767679D01*
X185114611Y-63946519D01*
X185115387Y-63057381D01*
X184775845Y-62235628D01*
X184147679Y-61606364D01*
X183326519Y-61265389D01*
X182437381Y-61264613D01*
X181615628Y-61604155D01*
X180986364Y-62232321D01*
X180645389Y-63053481D01*
X180644613Y-63942619D01*
X96214614Y-63942619D01*
X96215387Y-63057381D01*
X95875845Y-62235628D01*
X95247679Y-61606364D01*
X94426519Y-61265389D01*
X93537381Y-61264613D01*
X92715628Y-61604155D01*
X92086364Y-62232321D01*
X91745389Y-63053481D01*
X91744613Y-63942619D01*
X90880000Y-63942619D01*
X90880000Y-62299931D01*
X91032152Y-61535011D01*
X91425830Y-60945830D01*
X92015011Y-60552152D01*
X92779931Y-60400000D01*
X184080069Y-60400000D01*
X184844989Y-60552152D01*
G36*
X103602599Y-111027401D02*
X103849161Y-111192148D01*
X104140000Y-111250000D01*
X112974764Y-111250000D01*
X112908096Y-111410961D01*
X113030085Y-111633000D01*
X114173000Y-111633000D01*
X114173000Y-111613000D01*
X114427000Y-111613000D01*
X114427000Y-111633000D01*
X115569915Y-111633000D01*
X115645412Y-111495582D01*
X122814599Y-111495582D01*
X122838659Y-112145377D01*
X123041035Y-112633958D01*
X123307837Y-112732557D01*
X124280395Y-111760000D01*
X124639605Y-111760000D01*
X125612163Y-112732557D01*
X125878965Y-112633958D01*
X126105401Y-112024418D01*
X126085820Y-111495582D01*
X127894599Y-111495582D01*
X127918659Y-112145377D01*
X128121035Y-112633958D01*
X128387837Y-112732557D01*
X129360395Y-111760000D01*
X129719605Y-111760000D01*
X130692163Y-112732557D01*
X130958965Y-112633958D01*
X131185401Y-112024418D01*
X131165820Y-111495582D01*
X132974599Y-111495582D01*
X132998659Y-112145377D01*
X133201035Y-112633958D01*
X133467837Y-112732557D01*
X134440395Y-111760000D01*
X134799605Y-111760000D01*
X135772163Y-112732557D01*
X136038965Y-112633958D01*
X136265401Y-112024418D01*
X136241341Y-111374623D01*
X136038965Y-110886042D01*
X135772163Y-110787443D01*
X134799605Y-111760000D01*
X134440395Y-111760000D01*
X133467837Y-110787443D01*
X133201035Y-110886042D01*
X132974599Y-111495582D01*
X131165820Y-111495582D01*
X131161341Y-111374623D01*
X130958965Y-110886042D01*
X130692163Y-110787443D01*
X129719605Y-111760000D01*
X129360395Y-111760000D01*
X128387837Y-110787443D01*
X128121035Y-110886042D01*
X127894599Y-111495582D01*
X126085820Y-111495582D01*
X126081341Y-111374623D01*
X125878965Y-110886042D01*
X125612163Y-110787443D01*
X124639605Y-111760000D01*
X124280395Y-111760000D01*
X123307837Y-110787443D01*
X123041035Y-110886042D01*
X122814599Y-111495582D01*
X115645412Y-111495582D01*
X115691904Y-111410961D01*
X115625236Y-111250000D01*
X116840000Y-111250000D01*
X117130839Y-111192148D01*
X117377401Y-111027401D01*
X117796965Y-110607837D01*
X123487443Y-110607837D01*
X124460000Y-111580395D01*
X125432557Y-110607837D01*
X128567443Y-110607837D01*
X129540000Y-111580395D01*
X130512557Y-110607837D01*
X133647443Y-110607837D01*
X134620000Y-111580395D01*
X135592557Y-110607837D01*
X135493958Y-110341035D01*
X134884418Y-110114599D01*
X134234623Y-110138659D01*
X133746042Y-110341035D01*
X133647443Y-110607837D01*
X130512557Y-110607837D01*
X130413958Y-110341035D01*
X129804418Y-110114599D01*
X129154623Y-110138659D01*
X128666042Y-110341035D01*
X128567443Y-110607837D01*
X125432557Y-110607837D01*
X125333958Y-110341035D01*
X124724418Y-110114599D01*
X124074623Y-110138659D01*
X123586042Y-110341035D01*
X123487443Y-110607837D01*
X117796965Y-110607837D01*
X119694802Y-108710000D01*
X145738100Y-108710000D01*
X145636655Y-109220000D01*
X145750729Y-109793489D01*
X146075585Y-110279670D01*
X146390366Y-110490000D01*
X146075585Y-110700330D01*
X145750729Y-111186511D01*
X145636655Y-111760000D01*
X145750729Y-112333489D01*
X146075585Y-112819670D01*
X146390366Y-113030000D01*
X146075585Y-113240330D01*
X145875352Y-113540000D01*
X129540000Y-113540000D01*
X129249161Y-113597852D01*
X129002599Y-113762599D01*
X125415198Y-117350000D01*
X115661668Y-117350000D01*
X115763113Y-116840000D01*
X115653880Y-116290849D01*
X115342811Y-115825302D01*
X114960725Y-115570000D01*
X115342811Y-115314698D01*
X115653880Y-114849151D01*
X115763113Y-114300000D01*
X115653880Y-113750849D01*
X115342811Y-113285302D01*
X114938297Y-113015014D01*
X115155134Y-112912389D01*
X115155338Y-112912163D01*
X123487443Y-112912163D01*
X123586042Y-113178965D01*
X124195582Y-113405401D01*
X124845377Y-113381341D01*
X125333958Y-113178965D01*
X125432557Y-112912163D01*
X128567443Y-112912163D01*
X128666042Y-113178965D01*
X129275582Y-113405401D01*
X129925377Y-113381341D01*
X130413958Y-113178965D01*
X130512557Y-112912163D01*
X133647443Y-112912163D01*
X133746042Y-113178965D01*
X134355582Y-113405401D01*
X135005377Y-113381341D01*
X135493958Y-113178965D01*
X135592557Y-112912163D01*
X134620000Y-111939605D01*
X133647443Y-112912163D01*
X130512557Y-112912163D01*
X129540000Y-111939605D01*
X128567443Y-112912163D01*
X125432557Y-112912163D01*
X124460000Y-111939605D01*
X123487443Y-112912163D01*
X115155338Y-112912163D01*
X115531041Y-112497423D01*
X115691904Y-112109039D01*
X115569915Y-111887000D01*
X114427000Y-111887000D01*
X114427000Y-111907000D01*
X114173000Y-111907000D01*
X114173000Y-111887000D01*
X113030085Y-111887000D01*
X112908096Y-112109039D01*
X113068959Y-112497423D01*
X113444866Y-112912389D01*
X113661703Y-113015014D01*
X113257189Y-113285302D01*
X112946120Y-113750849D01*
X112836887Y-114300000D01*
X112946120Y-114849151D01*
X113257189Y-115314698D01*
X113639275Y-115570000D01*
X113257189Y-115825302D01*
X112946120Y-116290849D01*
X112836887Y-116840000D01*
X112941821Y-117367540D01*
X112739160Y-117407852D01*
X112492599Y-117572599D01*
X111445198Y-118620000D01*
X100272995Y-118620000D01*
X100102811Y-118365302D01*
X99720725Y-118110000D01*
X100102811Y-117854698D01*
X100413880Y-117389151D01*
X100466584Y-117124187D01*
X105284752Y-117124187D01*
X105502757Y-117651800D01*
X105906077Y-118055824D01*
X106433309Y-118274750D01*
X107004187Y-118275248D01*
X107531800Y-118057243D01*
X107741663Y-117847745D01*
X108391861Y-117847745D01*
X108465995Y-118093864D01*
X109003223Y-118286965D01*
X109573454Y-118259778D01*
X109974005Y-118093864D01*
X110048139Y-117847745D01*
X109220000Y-117019605D01*
X108391861Y-117847745D01*
X107741663Y-117847745D01*
X107935824Y-117653923D01*
X107963423Y-117587456D01*
X107966136Y-117594005D01*
X108212255Y-117668139D01*
X109040395Y-116840000D01*
X109399605Y-116840000D01*
X110227745Y-117668139D01*
X110473864Y-117594005D01*
X110666965Y-117056777D01*
X110639778Y-116486546D01*
X110473864Y-116085995D01*
X110227745Y-116011861D01*
X109399605Y-116840000D01*
X109040395Y-116840000D01*
X108212255Y-116011861D01*
X107966136Y-116085995D01*
X107963804Y-116092483D01*
X107937243Y-116028200D01*
X107741640Y-115832255D01*
X108391861Y-115832255D01*
X109220000Y-116660395D01*
X110048139Y-115832255D01*
X109974005Y-115586136D01*
X109436777Y-115393035D01*
X108866546Y-115420222D01*
X108465995Y-115586136D01*
X108391861Y-115832255D01*
X107741640Y-115832255D01*
X107533923Y-115624176D01*
X107006691Y-115405250D01*
X106435813Y-115404752D01*
X105908200Y-115622757D01*
X105504176Y-116026077D01*
X105285250Y-116553309D01*
X105284752Y-117124187D01*
X100466584Y-117124187D01*
X100523113Y-116840000D01*
X100413880Y-116290849D01*
X100102811Y-115825302D01*
X99720725Y-115570000D01*
X100102811Y-115314698D01*
X100413880Y-114849151D01*
X100523113Y-114300000D01*
X100413880Y-113750849D01*
X100102811Y-113285302D01*
X99720725Y-113030000D01*
X100102811Y-112774698D01*
X100413880Y-112309151D01*
X100523113Y-111760000D01*
X100413880Y-111210849D01*
X100102811Y-110745302D01*
X99720725Y-110490000D01*
X100102811Y-110234698D01*
X100413880Y-109769151D01*
X100523113Y-109220000D01*
X100413880Y-108670849D01*
X100102811Y-108205302D01*
X99720725Y-107950000D01*
X100102811Y-107694698D01*
X100169736Y-107594538D01*
X103602599Y-111027401D01*
X103602599Y-111027401D01*
G37*
X103602599Y-111027401D02*
X103849161Y-111192148D01*
X104140000Y-111250000D01*
X112974764Y-111250000D01*
X112908096Y-111410961D01*
X113030085Y-111633000D01*
X114173000Y-111633000D01*
X114173000Y-111613000D01*
X114427000Y-111613000D01*
X114427000Y-111633000D01*
X115569915Y-111633000D01*
X115645412Y-111495582D01*
X122814599Y-111495582D01*
X122838659Y-112145377D01*
X123041035Y-112633958D01*
X123307837Y-112732557D01*
X124280395Y-111760000D01*
X124639605Y-111760000D01*
X125612163Y-112732557D01*
X125878965Y-112633958D01*
X126105401Y-112024418D01*
X126085820Y-111495582D01*
X127894599Y-111495582D01*
X127918659Y-112145377D01*
X128121035Y-112633958D01*
X128387837Y-112732557D01*
X129360395Y-111760000D01*
X129719605Y-111760000D01*
X130692163Y-112732557D01*
X130958965Y-112633958D01*
X131185401Y-112024418D01*
X131165820Y-111495582D01*
X132974599Y-111495582D01*
X132998659Y-112145377D01*
X133201035Y-112633958D01*
X133467837Y-112732557D01*
X134440395Y-111760000D01*
X134799605Y-111760000D01*
X135772163Y-112732557D01*
X136038965Y-112633958D01*
X136265401Y-112024418D01*
X136241341Y-111374623D01*
X136038965Y-110886042D01*
X135772163Y-110787443D01*
X134799605Y-111760000D01*
X134440395Y-111760000D01*
X133467837Y-110787443D01*
X133201035Y-110886042D01*
X132974599Y-111495582D01*
X131165820Y-111495582D01*
X131161341Y-111374623D01*
X130958965Y-110886042D01*
X130692163Y-110787443D01*
X129719605Y-111760000D01*
X129360395Y-111760000D01*
X128387837Y-110787443D01*
X128121035Y-110886042D01*
X127894599Y-111495582D01*
X126085820Y-111495582D01*
X126081341Y-111374623D01*
X125878965Y-110886042D01*
X125612163Y-110787443D01*
X124639605Y-111760000D01*
X124280395Y-111760000D01*
X123307837Y-110787443D01*
X123041035Y-110886042D01*
X122814599Y-111495582D01*
X115645412Y-111495582D01*
X115691904Y-111410961D01*
X115625236Y-111250000D01*
X116840000Y-111250000D01*
X117130839Y-111192148D01*
X117377401Y-111027401D01*
X117796965Y-110607837D01*
X123487443Y-110607837D01*
X124460000Y-111580395D01*
X125432557Y-110607837D01*
X128567443Y-110607837D01*
X129540000Y-111580395D01*
X130512557Y-110607837D01*
X133647443Y-110607837D01*
X134620000Y-111580395D01*
X135592557Y-110607837D01*
X135493958Y-110341035D01*
X134884418Y-110114599D01*
X134234623Y-110138659D01*
X133746042Y-110341035D01*
X133647443Y-110607837D01*
X130512557Y-110607837D01*
X130413958Y-110341035D01*
X129804418Y-110114599D01*
X129154623Y-110138659D01*
X128666042Y-110341035D01*
X128567443Y-110607837D01*
X125432557Y-110607837D01*
X125333958Y-110341035D01*
X124724418Y-110114599D01*
X124074623Y-110138659D01*
X123586042Y-110341035D01*
X123487443Y-110607837D01*
X117796965Y-110607837D01*
X119694802Y-108710000D01*
X145738100Y-108710000D01*
X145636655Y-109220000D01*
X145750729Y-109793489D01*
X146075585Y-110279670D01*
X146390366Y-110490000D01*
X146075585Y-110700330D01*
X145750729Y-111186511D01*
X145636655Y-111760000D01*
X145750729Y-112333489D01*
X146075585Y-112819670D01*
X146390366Y-113030000D01*
X146075585Y-113240330D01*
X145875352Y-113540000D01*
X129540000Y-113540000D01*
X129249161Y-113597852D01*
X129002599Y-113762599D01*
X125415198Y-117350000D01*
X115661668Y-117350000D01*
X115763113Y-116840000D01*
X115653880Y-116290849D01*
X115342811Y-115825302D01*
X114960725Y-115570000D01*
X115342811Y-115314698D01*
X115653880Y-114849151D01*
X115763113Y-114300000D01*
X115653880Y-113750849D01*
X115342811Y-113285302D01*
X114938297Y-113015014D01*
X115155134Y-112912389D01*
X115155338Y-112912163D01*
X123487443Y-112912163D01*
X123586042Y-113178965D01*
X124195582Y-113405401D01*
X124845377Y-113381341D01*
X125333958Y-113178965D01*
X125432557Y-112912163D01*
X128567443Y-112912163D01*
X128666042Y-113178965D01*
X129275582Y-113405401D01*
X129925377Y-113381341D01*
X130413958Y-113178965D01*
X130512557Y-112912163D01*
X133647443Y-112912163D01*
X133746042Y-113178965D01*
X134355582Y-113405401D01*
X135005377Y-113381341D01*
X135493958Y-113178965D01*
X135592557Y-112912163D01*
X134620000Y-111939605D01*
X133647443Y-112912163D01*
X130512557Y-112912163D01*
X129540000Y-111939605D01*
X128567443Y-112912163D01*
X125432557Y-112912163D01*
X124460000Y-111939605D01*
X123487443Y-112912163D01*
X115155338Y-112912163D01*
X115531041Y-112497423D01*
X115691904Y-112109039D01*
X115569915Y-111887000D01*
X114427000Y-111887000D01*
X114427000Y-111907000D01*
X114173000Y-111907000D01*
X114173000Y-111887000D01*
X113030085Y-111887000D01*
X112908096Y-112109039D01*
X113068959Y-112497423D01*
X113444866Y-112912389D01*
X113661703Y-113015014D01*
X113257189Y-113285302D01*
X112946120Y-113750849D01*
X112836887Y-114300000D01*
X112946120Y-114849151D01*
X113257189Y-115314698D01*
X113639275Y-115570000D01*
X113257189Y-115825302D01*
X112946120Y-116290849D01*
X112836887Y-116840000D01*
X112941821Y-117367540D01*
X112739160Y-117407852D01*
X112492599Y-117572599D01*
X111445198Y-118620000D01*
X100272995Y-118620000D01*
X100102811Y-118365302D01*
X99720725Y-118110000D01*
X100102811Y-117854698D01*
X100413880Y-117389151D01*
X100466584Y-117124187D01*
X105284752Y-117124187D01*
X105502757Y-117651800D01*
X105906077Y-118055824D01*
X106433309Y-118274750D01*
X107004187Y-118275248D01*
X107531800Y-118057243D01*
X107741663Y-117847745D01*
X108391861Y-117847745D01*
X108465995Y-118093864D01*
X109003223Y-118286965D01*
X109573454Y-118259778D01*
X109974005Y-118093864D01*
X110048139Y-117847745D01*
X109220000Y-117019605D01*
X108391861Y-117847745D01*
X107741663Y-117847745D01*
X107935824Y-117653923D01*
X107963423Y-117587456D01*
X107966136Y-117594005D01*
X108212255Y-117668139D01*
X109040395Y-116840000D01*
X109399605Y-116840000D01*
X110227745Y-117668139D01*
X110473864Y-117594005D01*
X110666965Y-117056777D01*
X110639778Y-116486546D01*
X110473864Y-116085995D01*
X110227745Y-116011861D01*
X109399605Y-116840000D01*
X109040395Y-116840000D01*
X108212255Y-116011861D01*
X107966136Y-116085995D01*
X107963804Y-116092483D01*
X107937243Y-116028200D01*
X107741640Y-115832255D01*
X108391861Y-115832255D01*
X109220000Y-116660395D01*
X110048139Y-115832255D01*
X109974005Y-115586136D01*
X109436777Y-115393035D01*
X108866546Y-115420222D01*
X108465995Y-115586136D01*
X108391861Y-115832255D01*
X107741640Y-115832255D01*
X107533923Y-115624176D01*
X107006691Y-115405250D01*
X106435813Y-115404752D01*
X105908200Y-115622757D01*
X105504176Y-116026077D01*
X105285250Y-116553309D01*
X105284752Y-117124187D01*
X100466584Y-117124187D01*
X100523113Y-116840000D01*
X100413880Y-116290849D01*
X100102811Y-115825302D01*
X99720725Y-115570000D01*
X100102811Y-115314698D01*
X100413880Y-114849151D01*
X100523113Y-114300000D01*
X100413880Y-113750849D01*
X100102811Y-113285302D01*
X99720725Y-113030000D01*
X100102811Y-112774698D01*
X100413880Y-112309151D01*
X100523113Y-111760000D01*
X100413880Y-111210849D01*
X100102811Y-110745302D01*
X99720725Y-110490000D01*
X100102811Y-110234698D01*
X100413880Y-109769151D01*
X100523113Y-109220000D01*
X100413880Y-108670849D01*
X100102811Y-108205302D01*
X99720725Y-107950000D01*
X100102811Y-107694698D01*
X100169736Y-107594538D01*
X103602599Y-111027401D01*
G36*
X105181400Y-68294250D02*
X105340150Y-68453000D01*
X106553000Y-68453000D01*
X106553000Y-68433000D01*
X106807000Y-68433000D01*
X106807000Y-68453000D01*
X106827000Y-68453000D01*
X106827000Y-68707000D01*
X106807000Y-68707000D01*
X106807000Y-69919850D01*
X106965750Y-70078600D01*
X107669910Y-70078600D01*
X107903299Y-69981927D01*
X108081927Y-69803298D01*
X108146263Y-69647977D01*
X108160330Y-69669029D01*
X108646511Y-69993885D01*
X109220000Y-70107959D01*
X109793489Y-69993885D01*
X110279670Y-69669029D01*
X110490000Y-69354248D01*
X110700330Y-69669029D01*
X111186511Y-69993885D01*
X111760000Y-70107959D01*
X112333489Y-69993885D01*
X112819670Y-69669029D01*
X113030000Y-69354248D01*
X113240330Y-69669029D01*
X113726511Y-69993885D01*
X114300000Y-70107959D01*
X114873489Y-69993885D01*
X115359670Y-69669029D01*
X115570000Y-69354248D01*
X115780330Y-69669029D01*
X116266511Y-69993885D01*
X116840000Y-70107959D01*
X117413489Y-69993885D01*
X117899670Y-69669029D01*
X118110000Y-69354248D01*
X118320330Y-69669029D01*
X118806511Y-69993885D01*
X119380000Y-70107959D01*
X119953489Y-69993885D01*
X120439670Y-69669029D01*
X120650000Y-69354248D01*
X120860330Y-69669029D01*
X121346511Y-69993885D01*
X121920000Y-70107959D01*
X122493489Y-69993885D01*
X122979670Y-69669029D01*
X123190000Y-69354248D01*
X123400330Y-69669029D01*
X123886511Y-69993885D01*
X124460000Y-70107959D01*
X125033489Y-69993885D01*
X125519670Y-69669029D01*
X125730000Y-69354248D01*
X125940330Y-69669029D01*
X126426511Y-69993885D01*
X127000000Y-70107959D01*
X127573489Y-69993885D01*
X128059670Y-69669029D01*
X128270000Y-69354248D01*
X128480330Y-69669029D01*
X128966511Y-69993885D01*
X129540000Y-70107959D01*
X130113489Y-69993885D01*
X130599670Y-69669029D01*
X130810000Y-69354248D01*
X131020330Y-69669029D01*
X131506511Y-69993885D01*
X132080000Y-70107959D01*
X132653489Y-69993885D01*
X133139670Y-69669029D01*
X133350000Y-69354248D01*
X133560330Y-69669029D01*
X134046511Y-69993885D01*
X134620000Y-70107959D01*
X135193489Y-69993885D01*
X135679670Y-69669029D01*
X135890000Y-69354248D01*
X136100330Y-69669029D01*
X136586511Y-69993885D01*
X137160000Y-70107959D01*
X137733489Y-69993885D01*
X138219670Y-69669029D01*
X138430000Y-69354248D01*
X138640330Y-69669029D01*
X139126511Y-69993885D01*
X139700000Y-70107959D01*
X140273489Y-69993885D01*
X140759670Y-69669029D01*
X140970000Y-69354248D01*
X141180330Y-69669029D01*
X141666511Y-69993885D01*
X142240000Y-70107959D01*
X142813489Y-69993885D01*
X143299670Y-69669029D01*
X143510000Y-69354248D01*
X143720330Y-69669029D01*
X144206511Y-69993885D01*
X144780000Y-70107959D01*
X145353489Y-69993885D01*
X145839670Y-69669029D01*
X146050000Y-69354248D01*
X146260330Y-69669029D01*
X146746511Y-69993885D01*
X147320000Y-70107959D01*
X147893489Y-69993885D01*
X148379670Y-69669029D01*
X148590000Y-69354248D01*
X148800330Y-69669029D01*
X149286511Y-69993885D01*
X149860000Y-70107959D01*
X150399948Y-70000557D01*
X150427852Y-70140839D01*
X150592599Y-70387401D01*
X156942599Y-76737401D01*
X157189161Y-76902148D01*
X157480000Y-76960000D01*
X158572560Y-76960000D01*
X158572560Y-77000000D01*
X158616838Y-77235317D01*
X158755910Y-77451441D01*
X158968110Y-77596431D01*
X159123089Y-77627815D01*
X158977189Y-77725302D01*
X158807005Y-77980000D01*
X158750000Y-77980000D01*
X158459161Y-78037852D01*
X158212599Y-78202599D01*
X154402599Y-82012599D01*
X154237852Y-82259161D01*
X154180000Y-82550000D01*
X154180000Y-86045198D01*
X151322595Y-88902603D01*
X151323113Y-88900000D01*
X151213880Y-88350849D01*
X150902811Y-87885302D01*
X150520725Y-87630000D01*
X150902811Y-87374698D01*
X151213880Y-86909151D01*
X151323113Y-86360000D01*
X151213880Y-85810849D01*
X150902811Y-85345302D01*
X150520725Y-85090000D01*
X150902811Y-84834698D01*
X151213880Y-84369151D01*
X151323113Y-83820000D01*
X151213880Y-83270849D01*
X150902811Y-82805302D01*
X150520725Y-82550000D01*
X150902811Y-82294698D01*
X151213880Y-81829151D01*
X151323113Y-81280000D01*
X151213880Y-80730849D01*
X150902811Y-80265302D01*
X150520725Y-80010000D01*
X150902811Y-79754698D01*
X151213880Y-79289151D01*
X151323113Y-78740000D01*
X151213880Y-78190849D01*
X150902811Y-77725302D01*
X150498297Y-77455014D01*
X150715134Y-77352389D01*
X151091041Y-76937423D01*
X151251904Y-76549039D01*
X151129915Y-76327000D01*
X149987000Y-76327000D01*
X149987000Y-76347000D01*
X149733000Y-76347000D01*
X149733000Y-76327000D01*
X148590085Y-76327000D01*
X148468096Y-76549039D01*
X148628959Y-76937423D01*
X149004866Y-77352389D01*
X149221703Y-77455014D01*
X148817189Y-77725302D01*
X148506120Y-78190849D01*
X148396887Y-78740000D01*
X148506120Y-79289151D01*
X148817189Y-79754698D01*
X149199275Y-80010000D01*
X148817189Y-80265302D01*
X148506120Y-80730849D01*
X148396887Y-81280000D01*
X148506120Y-81829151D01*
X148817189Y-82294698D01*
X149199275Y-82550000D01*
X148817189Y-82805302D01*
X148506120Y-83270849D01*
X148396887Y-83820000D01*
X148506120Y-84369151D01*
X148817189Y-84834698D01*
X149199275Y-85090000D01*
X148817189Y-85345302D01*
X148506120Y-85810849D01*
X148396887Y-86360000D01*
X148506120Y-86909151D01*
X148817189Y-87374698D01*
X149199275Y-87630000D01*
X148817189Y-87885302D01*
X148506120Y-88350849D01*
X148396887Y-88900000D01*
X148498332Y-89410000D01*
X143601668Y-89410000D01*
X143703113Y-88900000D01*
X143593880Y-88350849D01*
X143282811Y-87885302D01*
X142900725Y-87630000D01*
X143282811Y-87374698D01*
X143593880Y-86909151D01*
X143703113Y-86360000D01*
X143593880Y-85810849D01*
X143282811Y-85345302D01*
X142900725Y-85090000D01*
X143282811Y-84834698D01*
X143593880Y-84369151D01*
X143703113Y-83820000D01*
X143593880Y-83270849D01*
X143282811Y-82805302D01*
X142900725Y-82550000D01*
X143282811Y-82294698D01*
X143593880Y-81829151D01*
X143703113Y-81280000D01*
X143593880Y-80730849D01*
X143282811Y-80265302D01*
X142900725Y-80010000D01*
X143282811Y-79754698D01*
X143593880Y-79289151D01*
X143703113Y-78740000D01*
X143593880Y-78190849D01*
X143282811Y-77725302D01*
X143138535Y-77628899D01*
X143275317Y-77603162D01*
X143491441Y-77464090D01*
X143636431Y-77251890D01*
X143687440Y-77000000D01*
X143687440Y-75850961D01*
X148468096Y-75850961D01*
X148590085Y-76073000D01*
X149733000Y-76073000D01*
X149733000Y-74929371D01*
X149987000Y-74929371D01*
X149987000Y-76073000D01*
X151129915Y-76073000D01*
X151251904Y-75850961D01*
X151091041Y-75462577D01*
X150715134Y-75047611D01*
X150209041Y-74808086D01*
X149987000Y-74929371D01*
X149733000Y-74929371D01*
X149510959Y-74808086D01*
X149004866Y-75047611D01*
X148628959Y-75462577D01*
X148468096Y-75850961D01*
X143687440Y-75850961D01*
X143687440Y-75400000D01*
X143643162Y-75164683D01*
X143504090Y-74948559D01*
X143291890Y-74803569D01*
X143040000Y-74752560D01*
X141440000Y-74752560D01*
X141204683Y-74796838D01*
X140988559Y-74935910D01*
X140843569Y-75148110D01*
X140792560Y-75400000D01*
X140792560Y-77000000D01*
X140836838Y-77235317D01*
X140975910Y-77451441D01*
X141188110Y-77596431D01*
X141343089Y-77627815D01*
X141197189Y-77725302D01*
X140886120Y-78190849D01*
X140776887Y-78740000D01*
X140886120Y-79289151D01*
X141197189Y-79754698D01*
X141579275Y-80010000D01*
X141197189Y-80265302D01*
X141027005Y-80520000D01*
X140970000Y-80520000D01*
X140679161Y-80577852D01*
X140432599Y-80742599D01*
X136845198Y-84330000D01*
X133441668Y-84330000D01*
X133543113Y-83820000D01*
X133433880Y-83270849D01*
X133122811Y-82805302D01*
X132740725Y-82550000D01*
X133122811Y-82294698D01*
X133292995Y-82040000D01*
X136597537Y-82040000D01*
X136629673Y-82072192D01*
X136973201Y-82214838D01*
X137345167Y-82215162D01*
X137688943Y-82073117D01*
X137952192Y-81810327D01*
X138094838Y-81466799D01*
X138095162Y-81094833D01*
X137953117Y-80751057D01*
X137690327Y-80487808D01*
X137346799Y-80345162D01*
X136974833Y-80344838D01*
X136631057Y-80486883D01*
X136597882Y-80520000D01*
X133292995Y-80520000D01*
X133122811Y-80265302D01*
X132740725Y-80010000D01*
X133122811Y-79754698D01*
X133433880Y-79289151D01*
X133543113Y-78740000D01*
X133433880Y-78190849D01*
X133122811Y-77725302D01*
X132718297Y-77455014D01*
X132935134Y-77352389D01*
X133311041Y-76937423D01*
X133471904Y-76549039D01*
X133349915Y-76327000D01*
X132207000Y-76327000D01*
X132207000Y-76347000D01*
X131953000Y-76347000D01*
X131953000Y-76327000D01*
X130810085Y-76327000D01*
X130688096Y-76549039D01*
X130848959Y-76937423D01*
X131224866Y-77352389D01*
X131441703Y-77455014D01*
X131037189Y-77725302D01*
X130726120Y-78190849D01*
X130616887Y-78740000D01*
X130726120Y-79289151D01*
X131037189Y-79754698D01*
X131419275Y-80010000D01*
X131037189Y-80265302D01*
X130726120Y-80730849D01*
X130616887Y-81280000D01*
X130726120Y-81829151D01*
X131037189Y-82294698D01*
X131419275Y-82550000D01*
X131037189Y-82805302D01*
X130726120Y-83270849D01*
X130616887Y-83820000D01*
X130718332Y-84330000D01*
X125821668Y-84330000D01*
X125923113Y-83820000D01*
X125813880Y-83270849D01*
X125502811Y-82805302D01*
X125120725Y-82550000D01*
X125502811Y-82294698D01*
X125813880Y-81829151D01*
X125923113Y-81280000D01*
X125813880Y-80730849D01*
X125502811Y-80265302D01*
X125120725Y-80010000D01*
X125502811Y-79754698D01*
X125813880Y-79289151D01*
X125923113Y-78740000D01*
X125813880Y-78190849D01*
X125502811Y-77725302D01*
X125358535Y-77628899D01*
X125495317Y-77603162D01*
X125711441Y-77464090D01*
X125856431Y-77251890D01*
X125907440Y-77000000D01*
X125907440Y-75850961D01*
X130688096Y-75850961D01*
X130810085Y-76073000D01*
X131953000Y-76073000D01*
X131953000Y-74929371D01*
X132207000Y-74929371D01*
X132207000Y-76073000D01*
X133349915Y-76073000D01*
X133471904Y-75850961D01*
X133311041Y-75462577D01*
X132935134Y-75047611D01*
X132429041Y-74808086D01*
X132207000Y-74929371D01*
X131953000Y-74929371D01*
X131730959Y-74808086D01*
X131224866Y-75047611D01*
X130848959Y-75462577D01*
X130688096Y-75850961D01*
X125907440Y-75850961D01*
X125907440Y-75400000D01*
X125863162Y-75164683D01*
X125724090Y-74948559D01*
X125511890Y-74803569D01*
X125260000Y-74752560D01*
X123660000Y-74752560D01*
X123424683Y-74796838D01*
X123208559Y-74935910D01*
X123063569Y-75148110D01*
X123012560Y-75400000D01*
X123012560Y-77000000D01*
X123056838Y-77235317D01*
X123195910Y-77451441D01*
X123408110Y-77596431D01*
X123563089Y-77627815D01*
X123417189Y-77725302D01*
X123106120Y-78190849D01*
X122996887Y-78740000D01*
X123106120Y-79289151D01*
X123417189Y-79754698D01*
X123799275Y-80010000D01*
X123417189Y-80265302D01*
X123106120Y-80730849D01*
X122996887Y-81280000D01*
X123106120Y-81829151D01*
X123417189Y-82294698D01*
X123799275Y-82550000D01*
X123417189Y-82805302D01*
X123106120Y-83270849D01*
X122996887Y-83820000D01*
X123098332Y-84330000D01*
X115661668Y-84330000D01*
X115763113Y-83820000D01*
X115653880Y-83270849D01*
X115342811Y-82805302D01*
X114960725Y-82550000D01*
X115342811Y-82294698D01*
X115653880Y-81829151D01*
X115763113Y-81280000D01*
X115653880Y-80730849D01*
X115342811Y-80265302D01*
X114960725Y-80010000D01*
X115342811Y-79754698D01*
X115653880Y-79289151D01*
X115763113Y-78740000D01*
X115653880Y-78190849D01*
X115342811Y-77725302D01*
X114960725Y-77470000D01*
X115342811Y-77214698D01*
X115653880Y-76749151D01*
X115763113Y-76200000D01*
X115653880Y-75650849D01*
X115342811Y-75185302D01*
X114877264Y-74874233D01*
X114328113Y-74765000D01*
X114271887Y-74765000D01*
X113722736Y-74874233D01*
X113257189Y-75185302D01*
X112946120Y-75650849D01*
X112836887Y-76200000D01*
X112946120Y-76749151D01*
X113257189Y-77214698D01*
X113639275Y-77470000D01*
X113257189Y-77725302D01*
X112946120Y-78190849D01*
X112836887Y-78740000D01*
X112946120Y-79289151D01*
X113257189Y-79754698D01*
X113639275Y-80010000D01*
X113257189Y-80265302D01*
X112946120Y-80730849D01*
X112836887Y-81280000D01*
X112946120Y-81829151D01*
X113257189Y-82294698D01*
X113639275Y-82550000D01*
X113257189Y-82805302D01*
X112946120Y-83270849D01*
X112836887Y-83820000D01*
X112938332Y-84330000D01*
X100421668Y-84330000D01*
X100523113Y-83820000D01*
X100413880Y-83270849D01*
X100102811Y-82805302D01*
X99720725Y-82550000D01*
X100102811Y-82294698D01*
X100413880Y-81829151D01*
X100523113Y-81280000D01*
X100413880Y-80730849D01*
X100102811Y-80265302D01*
X99720725Y-80010000D01*
X100102811Y-79754698D01*
X100413880Y-79289151D01*
X100523113Y-78740000D01*
X100413880Y-78190849D01*
X100102811Y-77725302D01*
X99958535Y-77628899D01*
X100095317Y-77603162D01*
X100311441Y-77464090D01*
X100456431Y-77251890D01*
X100507440Y-77000000D01*
X100507440Y-75400000D01*
X100463162Y-75164683D01*
X100324090Y-74948559D01*
X100111890Y-74803569D01*
X99860000Y-74752560D01*
X98260000Y-74752560D01*
X98024683Y-74796838D01*
X97808559Y-74935910D01*
X97663569Y-75148110D01*
X97612560Y-75400000D01*
X97612560Y-77000000D01*
X97656838Y-77235317D01*
X97795910Y-77451441D01*
X98008110Y-77596431D01*
X98163089Y-77627815D01*
X98017189Y-77725302D01*
X97706120Y-78190849D01*
X97596887Y-78740000D01*
X97706120Y-79289151D01*
X98017189Y-79754698D01*
X98399275Y-80010000D01*
X98017189Y-80265302D01*
X97706120Y-80730849D01*
X97596887Y-81280000D01*
X97706120Y-81829151D01*
X98017189Y-82294698D01*
X98399275Y-82550000D01*
X98017189Y-82805302D01*
X97706120Y-83270849D01*
X97596887Y-83820000D01*
X97706120Y-84369151D01*
X98017189Y-84834698D01*
X98399275Y-85090000D01*
X98017189Y-85345302D01*
X97706120Y-85810849D01*
X97596887Y-86360000D01*
X97706120Y-86909151D01*
X98017189Y-87374698D01*
X98399275Y-87630000D01*
X98017189Y-87885302D01*
X97706120Y-88350849D01*
X97596887Y-88900000D01*
X97706120Y-89449151D01*
X98017189Y-89914698D01*
X98399275Y-90170000D01*
X98017189Y-90425302D01*
X97706120Y-90890849D01*
X97596887Y-91440000D01*
X97597405Y-91442603D01*
X97280000Y-91125198D01*
X97280000Y-70164802D01*
X98579052Y-68865750D01*
X105181400Y-68865750D01*
X105181400Y-69569909D01*
X105278073Y-69803298D01*
X105456701Y-69981927D01*
X105690090Y-70078600D01*
X106394250Y-70078600D01*
X106553000Y-69919850D01*
X106553000Y-68707000D01*
X105340150Y-68707000D01*
X105181400Y-68865750D01*
X98579052Y-68865750D01*
X99374802Y-68070000D01*
X105181400Y-68070000D01*
X105181400Y-68294250D01*
X105181400Y-68294250D01*
G37*
X105181400Y-68294250D02*
X105340150Y-68453000D01*
X106553000Y-68453000D01*
X106553000Y-68433000D01*
X106807000Y-68433000D01*
X106807000Y-68453000D01*
X106827000Y-68453000D01*
X106827000Y-68707000D01*
X106807000Y-68707000D01*
X106807000Y-69919850D01*
X106965750Y-70078600D01*
X107669910Y-70078600D01*
X107903299Y-69981927D01*
X108081927Y-69803298D01*
X108146263Y-69647977D01*
X108160330Y-69669029D01*
X108646511Y-69993885D01*
X109220000Y-70107959D01*
X109793489Y-69993885D01*
X110279670Y-69669029D01*
X110490000Y-69354248D01*
X110700330Y-69669029D01*
X111186511Y-69993885D01*
X111760000Y-70107959D01*
X112333489Y-69993885D01*
X112819670Y-69669029D01*
X113030000Y-69354248D01*
X113240330Y-69669029D01*
X113726511Y-69993885D01*
X114300000Y-70107959D01*
X114873489Y-69993885D01*
X115359670Y-69669029D01*
X115570000Y-69354248D01*
X115780330Y-69669029D01*
X116266511Y-69993885D01*
X116840000Y-70107959D01*
X117413489Y-69993885D01*
X117899670Y-69669029D01*
X118110000Y-69354248D01*
X118320330Y-69669029D01*
X118806511Y-69993885D01*
X119380000Y-70107959D01*
X119953489Y-69993885D01*
X120439670Y-69669029D01*
X120650000Y-69354248D01*
X120860330Y-69669029D01*
X121346511Y-69993885D01*
X121920000Y-70107959D01*
X122493489Y-69993885D01*
X122979670Y-69669029D01*
X123190000Y-69354248D01*
X123400330Y-69669029D01*
X123886511Y-69993885D01*
X124460000Y-70107959D01*
X125033489Y-69993885D01*
X125519670Y-69669029D01*
X125730000Y-69354248D01*
X125940330Y-69669029D01*
X126426511Y-69993885D01*
X127000000Y-70107959D01*
X127573489Y-69993885D01*
X128059670Y-69669029D01*
X128270000Y-69354248D01*
X128480330Y-69669029D01*
X128966511Y-69993885D01*
X129540000Y-70107959D01*
X130113489Y-69993885D01*
X130599670Y-69669029D01*
X130810000Y-69354248D01*
X131020330Y-69669029D01*
X131506511Y-69993885D01*
X132080000Y-70107959D01*
X132653489Y-69993885D01*
X133139670Y-69669029D01*
X133350000Y-69354248D01*
X133560330Y-69669029D01*
X134046511Y-69993885D01*
X134620000Y-70107959D01*
X135193489Y-69993885D01*
X135679670Y-69669029D01*
X135890000Y-69354248D01*
X136100330Y-69669029D01*
X136586511Y-69993885D01*
X137160000Y-70107959D01*
X137733489Y-69993885D01*
X138219670Y-69669029D01*
X138430000Y-69354248D01*
X138640330Y-69669029D01*
X139126511Y-69993885D01*
X139700000Y-70107959D01*
X140273489Y-69993885D01*
X140759670Y-69669029D01*
X140970000Y-69354248D01*
X141180330Y-69669029D01*
X141666511Y-69993885D01*
X142240000Y-70107959D01*
X142813489Y-69993885D01*
X143299670Y-69669029D01*
X143510000Y-69354248D01*
X143720330Y-69669029D01*
X144206511Y-69993885D01*
X144780000Y-70107959D01*
X145353489Y-69993885D01*
X145839670Y-69669029D01*
X146050000Y-69354248D01*
X146260330Y-69669029D01*
X146746511Y-69993885D01*
X147320000Y-70107959D01*
X147893489Y-69993885D01*
X148379670Y-69669029D01*
X148590000Y-69354248D01*
X148800330Y-69669029D01*
X149286511Y-69993885D01*
X149860000Y-70107959D01*
X150399948Y-70000557D01*
X150427852Y-70140839D01*
X150592599Y-70387401D01*
X156942599Y-76737401D01*
X157189161Y-76902148D01*
X157480000Y-76960000D01*
X158572560Y-76960000D01*
X158572560Y-77000000D01*
X158616838Y-77235317D01*
X158755910Y-77451441D01*
X158968110Y-77596431D01*
X159123089Y-77627815D01*
X158977189Y-77725302D01*
X158807005Y-77980000D01*
X158750000Y-77980000D01*
X158459161Y-78037852D01*
X158212599Y-78202599D01*
X154402599Y-82012599D01*
X154237852Y-82259161D01*
X154180000Y-82550000D01*
X154180000Y-86045198D01*
X151322595Y-88902603D01*
X151323113Y-88900000D01*
X151213880Y-88350849D01*
X150902811Y-87885302D01*
X150520725Y-87630000D01*
X150902811Y-87374698D01*
X151213880Y-86909151D01*
X151323113Y-86360000D01*
X151213880Y-85810849D01*
X150902811Y-85345302D01*
X150520725Y-85090000D01*
X150902811Y-84834698D01*
X151213880Y-84369151D01*
X151323113Y-83820000D01*
X151213880Y-83270849D01*
X150902811Y-82805302D01*
X150520725Y-82550000D01*
X150902811Y-82294698D01*
X151213880Y-81829151D01*
X151323113Y-81280000D01*
X151213880Y-80730849D01*
X150902811Y-80265302D01*
X150520725Y-80010000D01*
X150902811Y-79754698D01*
X151213880Y-79289151D01*
X151323113Y-78740000D01*
X151213880Y-78190849D01*
X150902811Y-77725302D01*
X150498297Y-77455014D01*
X150715134Y-77352389D01*
X151091041Y-76937423D01*
X151251904Y-76549039D01*
X151129915Y-76327000D01*
X149987000Y-76327000D01*
X149987000Y-76347000D01*
X149733000Y-76347000D01*
X149733000Y-76327000D01*
X148590085Y-76327000D01*
X148468096Y-76549039D01*
X148628959Y-76937423D01*
X149004866Y-77352389D01*
X149221703Y-77455014D01*
X148817189Y-77725302D01*
X148506120Y-78190849D01*
X148396887Y-78740000D01*
X148506120Y-79289151D01*
X148817189Y-79754698D01*
X149199275Y-80010000D01*
X148817189Y-80265302D01*
X148506120Y-80730849D01*
X148396887Y-81280000D01*
X148506120Y-81829151D01*
X148817189Y-82294698D01*
X149199275Y-82550000D01*
X148817189Y-82805302D01*
X148506120Y-83270849D01*
X148396887Y-83820000D01*
X148506120Y-84369151D01*
X148817189Y-84834698D01*
X149199275Y-85090000D01*
X148817189Y-85345302D01*
X148506120Y-85810849D01*
X148396887Y-86360000D01*
X148506120Y-86909151D01*
X148817189Y-87374698D01*
X149199275Y-87630000D01*
X148817189Y-87885302D01*
X148506120Y-88350849D01*
X148396887Y-88900000D01*
X148498332Y-89410000D01*
X143601668Y-89410000D01*
X143703113Y-88900000D01*
X143593880Y-88350849D01*
X143282811Y-87885302D01*
X142900725Y-87630000D01*
X143282811Y-87374698D01*
X143593880Y-86909151D01*
X143703113Y-86360000D01*
X143593880Y-85810849D01*
X143282811Y-85345302D01*
X142900725Y-85090000D01*
X143282811Y-84834698D01*
X143593880Y-84369151D01*
X143703113Y-83820000D01*
X143593880Y-83270849D01*
X143282811Y-82805302D01*
X142900725Y-82550000D01*
X143282811Y-82294698D01*
X143593880Y-81829151D01*
X143703113Y-81280000D01*
X143593880Y-80730849D01*
X143282811Y-80265302D01*
X142900725Y-80010000D01*
X143282811Y-79754698D01*
X143593880Y-79289151D01*
X143703113Y-78740000D01*
X143593880Y-78190849D01*
X143282811Y-77725302D01*
X143138535Y-77628899D01*
X143275317Y-77603162D01*
X143491441Y-77464090D01*
X143636431Y-77251890D01*
X143687440Y-77000000D01*
X143687440Y-75850961D01*
X148468096Y-75850961D01*
X148590085Y-76073000D01*
X149733000Y-76073000D01*
X149733000Y-74929371D01*
X149987000Y-74929371D01*
X149987000Y-76073000D01*
X151129915Y-76073000D01*
X151251904Y-75850961D01*
X151091041Y-75462577D01*
X150715134Y-75047611D01*
X150209041Y-74808086D01*
X149987000Y-74929371D01*
X149733000Y-74929371D01*
X149510959Y-74808086D01*
X149004866Y-75047611D01*
X148628959Y-75462577D01*
X148468096Y-75850961D01*
X143687440Y-75850961D01*
X143687440Y-75400000D01*
X143643162Y-75164683D01*
X143504090Y-74948559D01*
X143291890Y-74803569D01*
X143040000Y-74752560D01*
X141440000Y-74752560D01*
X141204683Y-74796838D01*
X140988559Y-74935910D01*
X140843569Y-75148110D01*
X140792560Y-75400000D01*
X140792560Y-77000000D01*
X140836838Y-77235317D01*
X140975910Y-77451441D01*
X141188110Y-77596431D01*
X141343089Y-77627815D01*
X141197189Y-77725302D01*
X140886120Y-78190849D01*
X140776887Y-78740000D01*
X140886120Y-79289151D01*
X141197189Y-79754698D01*
X141579275Y-80010000D01*
X141197189Y-80265302D01*
X141027005Y-80520000D01*
X140970000Y-80520000D01*
X140679161Y-80577852D01*
X140432599Y-80742599D01*
X136845198Y-84330000D01*
X133441668Y-84330000D01*
X133543113Y-83820000D01*
X133433880Y-83270849D01*
X133122811Y-82805302D01*
X132740725Y-82550000D01*
X133122811Y-82294698D01*
X133292995Y-82040000D01*
X136597537Y-82040000D01*
X136629673Y-82072192D01*
X136973201Y-82214838D01*
X137345167Y-82215162D01*
X137688943Y-82073117D01*
X137952192Y-81810327D01*
X138094838Y-81466799D01*
X138095162Y-81094833D01*
X137953117Y-80751057D01*
X137690327Y-80487808D01*
X137346799Y-80345162D01*
X136974833Y-80344838D01*
X136631057Y-80486883D01*
X136597882Y-80520000D01*
X133292995Y-80520000D01*
X133122811Y-80265302D01*
X132740725Y-80010000D01*
X133122811Y-79754698D01*
X133433880Y-79289151D01*
X133543113Y-78740000D01*
X133433880Y-78190849D01*
X133122811Y-77725302D01*
X132718297Y-77455014D01*
X132935134Y-77352389D01*
X133311041Y-76937423D01*
X133471904Y-76549039D01*
X133349915Y-76327000D01*
X132207000Y-76327000D01*
X132207000Y-76347000D01*
X131953000Y-76347000D01*
X131953000Y-76327000D01*
X130810085Y-76327000D01*
X130688096Y-76549039D01*
X130848959Y-76937423D01*
X131224866Y-77352389D01*
X131441703Y-77455014D01*
X131037189Y-77725302D01*
X130726120Y-78190849D01*
X130616887Y-78740000D01*
X130726120Y-79289151D01*
X131037189Y-79754698D01*
X131419275Y-80010000D01*
X131037189Y-80265302D01*
X130726120Y-80730849D01*
X130616887Y-81280000D01*
X130726120Y-81829151D01*
X131037189Y-82294698D01*
X131419275Y-82550000D01*
X131037189Y-82805302D01*
X130726120Y-83270849D01*
X130616887Y-83820000D01*
X130718332Y-84330000D01*
X125821668Y-84330000D01*
X125923113Y-83820000D01*
X125813880Y-83270849D01*
X125502811Y-82805302D01*
X125120725Y-82550000D01*
X125502811Y-82294698D01*
X125813880Y-81829151D01*
X125923113Y-81280000D01*
X125813880Y-80730849D01*
X125502811Y-80265302D01*
X125120725Y-80010000D01*
X125502811Y-79754698D01*
X125813880Y-79289151D01*
X125923113Y-78740000D01*
X125813880Y-78190849D01*
X125502811Y-77725302D01*
X125358535Y-77628899D01*
X125495317Y-77603162D01*
X125711441Y-77464090D01*
X125856431Y-77251890D01*
X125907440Y-77000000D01*
X125907440Y-75850961D01*
X130688096Y-75850961D01*
X130810085Y-76073000D01*
X131953000Y-76073000D01*
X131953000Y-74929371D01*
X132207000Y-74929371D01*
X132207000Y-76073000D01*
X133349915Y-76073000D01*
X133471904Y-75850961D01*
X133311041Y-75462577D01*
X132935134Y-75047611D01*
X132429041Y-74808086D01*
X132207000Y-74929371D01*
X131953000Y-74929371D01*
X131730959Y-74808086D01*
X131224866Y-75047611D01*
X130848959Y-75462577D01*
X130688096Y-75850961D01*
X125907440Y-75850961D01*
X125907440Y-75400000D01*
X125863162Y-75164683D01*
X125724090Y-74948559D01*
X125511890Y-74803569D01*
X125260000Y-74752560D01*
X123660000Y-74752560D01*
X123424683Y-74796838D01*
X123208559Y-74935910D01*
X123063569Y-75148110D01*
X123012560Y-75400000D01*
X123012560Y-77000000D01*
X123056838Y-77235317D01*
X123195910Y-77451441D01*
X123408110Y-77596431D01*
X123563089Y-77627815D01*
X123417189Y-77725302D01*
X123106120Y-78190849D01*
X122996887Y-78740000D01*
X123106120Y-79289151D01*
X123417189Y-79754698D01*
X123799275Y-80010000D01*
X123417189Y-80265302D01*
X123106120Y-80730849D01*
X122996887Y-81280000D01*
X123106120Y-81829151D01*
X123417189Y-82294698D01*
X123799275Y-82550000D01*
X123417189Y-82805302D01*
X123106120Y-83270849D01*
X122996887Y-83820000D01*
X123098332Y-84330000D01*
X115661668Y-84330000D01*
X115763113Y-83820000D01*
X115653880Y-83270849D01*
X115342811Y-82805302D01*
X114960725Y-82550000D01*
X115342811Y-82294698D01*
X115653880Y-81829151D01*
X115763113Y-81280000D01*
X115653880Y-80730849D01*
X115342811Y-80265302D01*
X114960725Y-80010000D01*
X115342811Y-79754698D01*
X115653880Y-79289151D01*
X115763113Y-78740000D01*
X115653880Y-78190849D01*
X115342811Y-77725302D01*
X114960725Y-77470000D01*
X115342811Y-77214698D01*
X115653880Y-76749151D01*
X115763113Y-76200000D01*
X115653880Y-75650849D01*
X115342811Y-75185302D01*
X114877264Y-74874233D01*
X114328113Y-74765000D01*
X114271887Y-74765000D01*
X113722736Y-74874233D01*
X113257189Y-75185302D01*
X112946120Y-75650849D01*
X112836887Y-76200000D01*
X112946120Y-76749151D01*
X113257189Y-77214698D01*
X113639275Y-77470000D01*
X113257189Y-77725302D01*
X112946120Y-78190849D01*
X112836887Y-78740000D01*
X112946120Y-79289151D01*
X113257189Y-79754698D01*
X113639275Y-80010000D01*
X113257189Y-80265302D01*
X112946120Y-80730849D01*
X112836887Y-81280000D01*
X112946120Y-81829151D01*
X113257189Y-82294698D01*
X113639275Y-82550000D01*
X113257189Y-82805302D01*
X112946120Y-83270849D01*
X112836887Y-83820000D01*
X112938332Y-84330000D01*
X100421668Y-84330000D01*
X100523113Y-83820000D01*
X100413880Y-83270849D01*
X100102811Y-82805302D01*
X99720725Y-82550000D01*
X100102811Y-82294698D01*
X100413880Y-81829151D01*
X100523113Y-81280000D01*
X100413880Y-80730849D01*
X100102811Y-80265302D01*
X99720725Y-80010000D01*
X100102811Y-79754698D01*
X100413880Y-79289151D01*
X100523113Y-78740000D01*
X100413880Y-78190849D01*
X100102811Y-77725302D01*
X99958535Y-77628899D01*
X100095317Y-77603162D01*
X100311441Y-77464090D01*
X100456431Y-77251890D01*
X100507440Y-77000000D01*
X100507440Y-75400000D01*
X100463162Y-75164683D01*
X100324090Y-74948559D01*
X100111890Y-74803569D01*
X99860000Y-74752560D01*
X98260000Y-74752560D01*
X98024683Y-74796838D01*
X97808559Y-74935910D01*
X97663569Y-75148110D01*
X97612560Y-75400000D01*
X97612560Y-77000000D01*
X97656838Y-77235317D01*
X97795910Y-77451441D01*
X98008110Y-77596431D01*
X98163089Y-77627815D01*
X98017189Y-77725302D01*
X97706120Y-78190849D01*
X97596887Y-78740000D01*
X97706120Y-79289151D01*
X98017189Y-79754698D01*
X98399275Y-80010000D01*
X98017189Y-80265302D01*
X97706120Y-80730849D01*
X97596887Y-81280000D01*
X97706120Y-81829151D01*
X98017189Y-82294698D01*
X98399275Y-82550000D01*
X98017189Y-82805302D01*
X97706120Y-83270849D01*
X97596887Y-83820000D01*
X97706120Y-84369151D01*
X98017189Y-84834698D01*
X98399275Y-85090000D01*
X98017189Y-85345302D01*
X97706120Y-85810849D01*
X97596887Y-86360000D01*
X97706120Y-86909151D01*
X98017189Y-87374698D01*
X98399275Y-87630000D01*
X98017189Y-87885302D01*
X97706120Y-88350849D01*
X97596887Y-88900000D01*
X97706120Y-89449151D01*
X98017189Y-89914698D01*
X98399275Y-90170000D01*
X98017189Y-90425302D01*
X97706120Y-90890849D01*
X97596887Y-91440000D01*
X97597405Y-91442603D01*
X97280000Y-91125198D01*
X97280000Y-70164802D01*
X98579052Y-68865750D01*
X105181400Y-68865750D01*
X105181400Y-69569909D01*
X105278073Y-69803298D01*
X105456701Y-69981927D01*
X105690090Y-70078600D01*
X106394250Y-70078600D01*
X106553000Y-69919850D01*
X106553000Y-68707000D01*
X105340150Y-68707000D01*
X105181400Y-68865750D01*
X98579052Y-68865750D01*
X99374802Y-68070000D01*
X105181400Y-68070000D01*
X105181400Y-68294250D01*
M02*
