G04 #@! TF.FileFunction,Legend,Top*
%FSLAX46Y46*%
G04 Gerber Fmt 4.6, Leading zero omitted, Abs format (unit mm)*
G04 Created by KiCad (PCBNEW 4.0.7) date *
%MOMM*%
%LPD*%
G01*
G04 APERTURE LIST*
%ADD10C,0.100000*%
%ADD11C,0.150000*%
%ADD12C,0.200000*%
%ADD13C,0.120000*%
G04 APERTURE END LIST*
D10*
D11*
X147886429Y-129511429D02*
X147829287Y-129454286D01*
X147715001Y-129397143D01*
X147600715Y-129397143D01*
X147486429Y-129454286D01*
X147429287Y-129511429D01*
X147372144Y-129625714D01*
X147372144Y-129740000D01*
X147429287Y-129854286D01*
X147486429Y-129911429D01*
X147600715Y-129968571D01*
X147715001Y-129968571D01*
X147829287Y-129911429D01*
X147886429Y-129854286D01*
X147886429Y-129397143D02*
X147886429Y-129854286D01*
X147943572Y-129911429D01*
X148000715Y-129911429D01*
X148115001Y-129854286D01*
X148172144Y-129740000D01*
X148172144Y-129454286D01*
X148057858Y-129282857D01*
X147886429Y-129168571D01*
X147657858Y-129111429D01*
X147429287Y-129168571D01*
X147257858Y-129282857D01*
X147143572Y-129454286D01*
X147086429Y-129682857D01*
X147143572Y-129911429D01*
X147257858Y-130082857D01*
X147429287Y-130197143D01*
X147657858Y-130254286D01*
X147886429Y-130197143D01*
X148057858Y-130082857D01*
X149200715Y-130025714D02*
X149086429Y-130082857D01*
X148857858Y-130082857D01*
X148743572Y-130025714D01*
X148686429Y-129968571D01*
X148629286Y-129854286D01*
X148629286Y-129511429D01*
X148686429Y-129397143D01*
X148743572Y-129340000D01*
X148857858Y-129282857D01*
X149086429Y-129282857D01*
X149200715Y-129340000D01*
X149715000Y-130082857D02*
X149715000Y-128882857D01*
X150229286Y-130082857D02*
X150229286Y-129454286D01*
X150172143Y-129340000D01*
X150057857Y-129282857D01*
X149886429Y-129282857D01*
X149772143Y-129340000D01*
X149715000Y-129397143D01*
X150800714Y-130082857D02*
X150800714Y-129282857D01*
X150800714Y-128882857D02*
X150743571Y-128940000D01*
X150800714Y-128997143D01*
X150857857Y-128940000D01*
X150800714Y-128882857D01*
X150800714Y-128997143D01*
X151886429Y-129282857D02*
X151886429Y-130482857D01*
X151886429Y-130025714D02*
X151772143Y-130082857D01*
X151543572Y-130082857D01*
X151429286Y-130025714D01*
X151372143Y-129968571D01*
X151315000Y-129854286D01*
X151315000Y-129511429D01*
X151372143Y-129397143D01*
X151429286Y-129340000D01*
X151543572Y-129282857D01*
X151772143Y-129282857D01*
X151886429Y-129340000D01*
X152629286Y-130082857D02*
X152515000Y-130025714D01*
X152457857Y-129911429D01*
X152457857Y-128882857D01*
X153600714Y-130082857D02*
X153600714Y-129454286D01*
X153543571Y-129340000D01*
X153429285Y-129282857D01*
X153200714Y-129282857D01*
X153086428Y-129340000D01*
X153600714Y-130025714D02*
X153486428Y-130082857D01*
X153200714Y-130082857D01*
X153086428Y-130025714D01*
X153029285Y-129911429D01*
X153029285Y-129797143D01*
X153086428Y-129682857D01*
X153200714Y-129625714D01*
X153486428Y-129625714D01*
X153600714Y-129568571D01*
X154172142Y-129282857D02*
X154172142Y-130482857D01*
X154172142Y-129340000D02*
X154286428Y-129282857D01*
X154514999Y-129282857D01*
X154629285Y-129340000D01*
X154686428Y-129397143D01*
X154743571Y-129511429D01*
X154743571Y-129854286D01*
X154686428Y-129968571D01*
X154629285Y-130025714D01*
X154514999Y-130082857D01*
X154286428Y-130082857D01*
X154172142Y-130025714D01*
X155257856Y-129282857D02*
X155257856Y-130482857D01*
X155257856Y-129340000D02*
X155372142Y-129282857D01*
X155600713Y-129282857D01*
X155714999Y-129340000D01*
X155772142Y-129397143D01*
X155829285Y-129511429D01*
X155829285Y-129854286D01*
X155772142Y-129968571D01*
X155714999Y-130025714D01*
X155600713Y-130082857D01*
X155372142Y-130082857D01*
X155257856Y-130025714D01*
X156800713Y-130025714D02*
X156686427Y-130082857D01*
X156457856Y-130082857D01*
X156343570Y-130025714D01*
X156286427Y-129911429D01*
X156286427Y-129454286D01*
X156343570Y-129340000D01*
X156457856Y-129282857D01*
X156686427Y-129282857D01*
X156800713Y-129340000D01*
X156857856Y-129454286D01*
X156857856Y-129568571D01*
X156286427Y-129682857D01*
X158229284Y-128997143D02*
X158286427Y-128940000D01*
X158400713Y-128882857D01*
X158686427Y-128882857D01*
X158800713Y-128940000D01*
X158857856Y-128997143D01*
X158914999Y-129111429D01*
X158914999Y-129225714D01*
X158857856Y-129397143D01*
X158172142Y-130082857D01*
X158914999Y-130082857D01*
X159657856Y-128882857D02*
X159772141Y-128882857D01*
X159886427Y-128940000D01*
X159943570Y-128997143D01*
X160000713Y-129111429D01*
X160057856Y-129340000D01*
X160057856Y-129625714D01*
X160000713Y-129854286D01*
X159943570Y-129968571D01*
X159886427Y-130025714D01*
X159772141Y-130082857D01*
X159657856Y-130082857D01*
X159543570Y-130025714D01*
X159486427Y-129968571D01*
X159429284Y-129854286D01*
X159372141Y-129625714D01*
X159372141Y-129340000D01*
X159429284Y-129111429D01*
X159486427Y-128997143D01*
X159543570Y-128940000D01*
X159657856Y-128882857D01*
X161200713Y-130082857D02*
X160514998Y-130082857D01*
X160857856Y-130082857D02*
X160857856Y-128882857D01*
X160743570Y-129054286D01*
X160629284Y-129168571D01*
X160514998Y-129225714D01*
X161772141Y-130082857D02*
X162000713Y-130082857D01*
X162114998Y-130025714D01*
X162172141Y-129968571D01*
X162286427Y-129797143D01*
X162343570Y-129568571D01*
X162343570Y-129111429D01*
X162286427Y-128997143D01*
X162229284Y-128940000D01*
X162114998Y-128882857D01*
X161886427Y-128882857D01*
X161772141Y-128940000D01*
X161714998Y-128997143D01*
X161657855Y-129111429D01*
X161657855Y-129397143D01*
X161714998Y-129511429D01*
X161772141Y-129568571D01*
X161886427Y-129625714D01*
X162114998Y-129625714D01*
X162229284Y-129568571D01*
X162286427Y-129511429D01*
X162343570Y-129397143D01*
X163772141Y-130082857D02*
X163772141Y-128882857D01*
X164457856Y-130082857D01*
X164457856Y-128882857D01*
X165200713Y-130082857D02*
X165086427Y-130025714D01*
X165029284Y-129968571D01*
X164972141Y-129854286D01*
X164972141Y-129511429D01*
X165029284Y-129397143D01*
X165086427Y-129340000D01*
X165200713Y-129282857D01*
X165372141Y-129282857D01*
X165486427Y-129340000D01*
X165543570Y-129397143D01*
X165600713Y-129511429D01*
X165600713Y-129854286D01*
X165543570Y-129968571D01*
X165486427Y-130025714D01*
X165372141Y-130082857D01*
X165200713Y-130082857D01*
X166000713Y-129282857D02*
X166286427Y-130082857D01*
X166572141Y-129282857D01*
X167029284Y-129968571D02*
X167086427Y-130025714D01*
X167029284Y-130082857D01*
X166972141Y-130025714D01*
X167029284Y-129968571D01*
X167029284Y-130082857D01*
X168572142Y-130082857D02*
X168800714Y-130082857D01*
X168914999Y-130025714D01*
X168972142Y-129968571D01*
X169086428Y-129797143D01*
X169143571Y-129568571D01*
X169143571Y-129111429D01*
X169086428Y-128997143D01*
X169029285Y-128940000D01*
X168914999Y-128882857D01*
X168686428Y-128882857D01*
X168572142Y-128940000D01*
X168514999Y-128997143D01*
X168457856Y-129111429D01*
X168457856Y-129397143D01*
X168514999Y-129511429D01*
X168572142Y-129568571D01*
X168686428Y-129625714D01*
X168914999Y-129625714D01*
X169029285Y-129568571D01*
X169086428Y-129511429D01*
X169143571Y-129397143D01*
X151038570Y-107165714D02*
X151209999Y-107222857D01*
X151495713Y-107222857D01*
X151609999Y-107165714D01*
X151667142Y-107108571D01*
X151724285Y-106994286D01*
X151724285Y-106880000D01*
X151667142Y-106765714D01*
X151609999Y-106708571D01*
X151495713Y-106651429D01*
X151267142Y-106594286D01*
X151152856Y-106537143D01*
X151095713Y-106480000D01*
X151038570Y-106365714D01*
X151038570Y-106251429D01*
X151095713Y-106137143D01*
X151152856Y-106080000D01*
X151267142Y-106022857D01*
X151552856Y-106022857D01*
X151724285Y-106080000D01*
X152238570Y-107222857D02*
X152238570Y-106022857D01*
X152238570Y-106594286D02*
X152924285Y-106594286D01*
X152924285Y-107222857D02*
X152924285Y-106022857D01*
X153724285Y-106022857D02*
X153952856Y-106022857D01*
X154067142Y-106080000D01*
X154181428Y-106194286D01*
X154238570Y-106422857D01*
X154238570Y-106822857D01*
X154181428Y-107051429D01*
X154067142Y-107165714D01*
X153952856Y-107222857D01*
X153724285Y-107222857D01*
X153609999Y-107165714D01*
X153495713Y-107051429D01*
X153438570Y-106822857D01*
X153438570Y-106422857D01*
X153495713Y-106194286D01*
X153609999Y-106080000D01*
X153724285Y-106022857D01*
X155438571Y-107222857D02*
X155038571Y-106651429D01*
X154752856Y-107222857D02*
X154752856Y-106022857D01*
X155209999Y-106022857D01*
X155324285Y-106080000D01*
X155381428Y-106137143D01*
X155438571Y-106251429D01*
X155438571Y-106422857D01*
X155381428Y-106537143D01*
X155324285Y-106594286D01*
X155209999Y-106651429D01*
X154752856Y-106651429D01*
X155781428Y-106022857D02*
X156467142Y-106022857D01*
X156124285Y-107222857D02*
X156124285Y-106022857D01*
X158124285Y-106022857D02*
X158124285Y-106880000D01*
X158067143Y-107051429D01*
X157952857Y-107165714D01*
X157781428Y-107222857D01*
X157667143Y-107222857D01*
X159324286Y-107222857D02*
X158638571Y-107222857D01*
X158981429Y-107222857D02*
X158981429Y-106022857D01*
X158867143Y-106194286D01*
X158752857Y-106308571D01*
X158638571Y-106365714D01*
X160752857Y-107108571D02*
X160810000Y-107165714D01*
X160752857Y-107222857D01*
X160695714Y-107165714D01*
X160752857Y-107108571D01*
X160752857Y-107222857D01*
X160752857Y-106765714D02*
X160695714Y-106080000D01*
X160752857Y-106022857D01*
X160810000Y-106080000D01*
X160752857Y-106765714D01*
X160752857Y-106022857D01*
X161324286Y-107108571D02*
X161381429Y-107165714D01*
X161324286Y-107222857D01*
X161267143Y-107165714D01*
X161324286Y-107108571D01*
X161324286Y-107222857D01*
X161324286Y-106765714D02*
X161267143Y-106080000D01*
X161324286Y-106022857D01*
X161381429Y-106080000D01*
X161324286Y-106765714D01*
X161324286Y-106022857D01*
D12*
X180340000Y-115570000D02*
X181610000Y-115570000D01*
X180340000Y-113030000D02*
X181610000Y-113030000D01*
D11*
X184692857Y-123242857D02*
X183892857Y-123242857D01*
X184007143Y-123242857D02*
X183950000Y-123185714D01*
X183892857Y-123071428D01*
X183892857Y-122900000D01*
X183950000Y-122785714D01*
X184064286Y-122728571D01*
X184692857Y-122728571D01*
X184064286Y-122728571D02*
X183950000Y-122671428D01*
X183892857Y-122557142D01*
X183892857Y-122385714D01*
X183950000Y-122271428D01*
X184064286Y-122214285D01*
X184692857Y-122214285D01*
X184692857Y-121642857D02*
X183892857Y-121642857D01*
X183492857Y-121642857D02*
X183550000Y-121700000D01*
X183607143Y-121642857D01*
X183550000Y-121585714D01*
X183492857Y-121642857D01*
X183607143Y-121642857D01*
X184635714Y-120557142D02*
X184692857Y-120671428D01*
X184692857Y-120899999D01*
X184635714Y-121014285D01*
X184578571Y-121071428D01*
X184464286Y-121128571D01*
X184121429Y-121128571D01*
X184007143Y-121071428D01*
X183950000Y-121014285D01*
X183892857Y-120899999D01*
X183892857Y-120671428D01*
X183950000Y-120557142D01*
X184692857Y-120042857D02*
X183892857Y-120042857D01*
X184121429Y-120042857D02*
X184007143Y-119985714D01*
X183950000Y-119928571D01*
X183892857Y-119814285D01*
X183892857Y-119700000D01*
X184692857Y-119128571D02*
X184635714Y-119242857D01*
X184578571Y-119300000D01*
X184464286Y-119357143D01*
X184121429Y-119357143D01*
X184007143Y-119300000D01*
X183950000Y-119242857D01*
X183892857Y-119128571D01*
X183892857Y-118957143D01*
X183950000Y-118842857D01*
X184007143Y-118785714D01*
X184121429Y-118728571D01*
X184464286Y-118728571D01*
X184578571Y-118785714D01*
X184635714Y-118842857D01*
X184692857Y-118957143D01*
X184692857Y-119128571D01*
X184635714Y-118271429D02*
X184692857Y-118100000D01*
X184692857Y-117814286D01*
X184635714Y-117700000D01*
X184578571Y-117642857D01*
X184464286Y-117585714D01*
X184350000Y-117585714D01*
X184235714Y-117642857D01*
X184178571Y-117700000D01*
X184121429Y-117814286D01*
X184064286Y-118042857D01*
X184007143Y-118157143D01*
X183950000Y-118214286D01*
X183835714Y-118271429D01*
X183721429Y-118271429D01*
X183607143Y-118214286D01*
X183550000Y-118157143D01*
X183492857Y-118042857D01*
X183492857Y-117757143D01*
X183550000Y-117585714D01*
X184692857Y-117071429D02*
X183492857Y-117071429D01*
X183492857Y-116785714D01*
X183550000Y-116614286D01*
X183664286Y-116500000D01*
X183778571Y-116442857D01*
X184007143Y-116385714D01*
X184178571Y-116385714D01*
X184407143Y-116442857D01*
X184521429Y-116500000D01*
X184635714Y-116614286D01*
X184692857Y-116785714D01*
X184692857Y-117071429D01*
X184578571Y-114271428D02*
X184635714Y-114328571D01*
X184692857Y-114500000D01*
X184692857Y-114614286D01*
X184635714Y-114785714D01*
X184521429Y-114900000D01*
X184407143Y-114957143D01*
X184178571Y-115014286D01*
X184007143Y-115014286D01*
X183778571Y-114957143D01*
X183664286Y-114900000D01*
X183550000Y-114785714D01*
X183492857Y-114614286D01*
X183492857Y-114500000D01*
X183550000Y-114328571D01*
X183607143Y-114271428D01*
X184350000Y-113814286D02*
X184350000Y-113242857D01*
X184692857Y-113928571D02*
X183492857Y-113528571D01*
X184692857Y-113128571D01*
X184692857Y-112042857D02*
X184121429Y-112442857D01*
X184692857Y-112728572D02*
X183492857Y-112728572D01*
X183492857Y-112271429D01*
X183550000Y-112157143D01*
X183607143Y-112100000D01*
X183721429Y-112042857D01*
X183892857Y-112042857D01*
X184007143Y-112100000D01*
X184064286Y-112157143D01*
X184121429Y-112271429D01*
X184121429Y-112728572D01*
X184692857Y-111528572D02*
X183492857Y-111528572D01*
X183492857Y-111242857D01*
X183550000Y-111071429D01*
X183664286Y-110957143D01*
X183778571Y-110900000D01*
X184007143Y-110842857D01*
X184178571Y-110842857D01*
X184407143Y-110900000D01*
X184521429Y-110957143D01*
X184635714Y-111071429D01*
X184692857Y-111242857D01*
X184692857Y-111528572D01*
X184692857Y-109414286D02*
X183492857Y-109414286D01*
X184064286Y-109414286D02*
X184064286Y-108728571D01*
X184692857Y-108728571D02*
X183492857Y-108728571D01*
X184064286Y-108157143D02*
X184064286Y-107757143D01*
X184692857Y-107585714D02*
X184692857Y-108157143D01*
X183492857Y-108157143D01*
X183492857Y-107585714D01*
X184692857Y-106385714D02*
X184121429Y-106785714D01*
X184692857Y-107071429D02*
X183492857Y-107071429D01*
X183492857Y-106614286D01*
X183550000Y-106500000D01*
X183607143Y-106442857D01*
X183721429Y-106385714D01*
X183892857Y-106385714D01*
X184007143Y-106442857D01*
X184064286Y-106500000D01*
X184121429Y-106614286D01*
X184121429Y-107071429D01*
X184064286Y-105871429D02*
X184064286Y-105471429D01*
X184692857Y-105300000D02*
X184692857Y-105871429D01*
X183492857Y-105871429D01*
X183492857Y-105300000D01*
D12*
X180340000Y-116840000D02*
X177800000Y-114300000D01*
X180340000Y-115570000D02*
X180340000Y-116840000D01*
X181610000Y-113030000D02*
X181610000Y-115570000D01*
X180340000Y-111760000D02*
X180340000Y-113030000D01*
X177800000Y-114300000D02*
X180340000Y-111760000D01*
X176530000Y-106680000D02*
X176530000Y-121920000D01*
X149860000Y-125730000D02*
X170180000Y-125730000D01*
X149860000Y-102870000D02*
X170180000Y-102870000D01*
D11*
X105205715Y-130082857D02*
X105205715Y-128882857D01*
X105662858Y-128882857D01*
X105777144Y-128940000D01*
X105834287Y-128997143D01*
X105891430Y-129111429D01*
X105891430Y-129282857D01*
X105834287Y-129397143D01*
X105777144Y-129454286D01*
X105662858Y-129511429D01*
X105205715Y-129511429D01*
X107091430Y-129968571D02*
X107034287Y-130025714D01*
X106862858Y-130082857D01*
X106748572Y-130082857D01*
X106577144Y-130025714D01*
X106462858Y-129911429D01*
X106405715Y-129797143D01*
X106348572Y-129568571D01*
X106348572Y-129397143D01*
X106405715Y-129168571D01*
X106462858Y-129054286D01*
X106577144Y-128940000D01*
X106748572Y-128882857D01*
X106862858Y-128882857D01*
X107034287Y-128940000D01*
X107091430Y-128997143D01*
X107605715Y-129625714D02*
X108520001Y-129625714D01*
X109262858Y-129397143D02*
X109148572Y-129340000D01*
X109091429Y-129282857D01*
X109034286Y-129168571D01*
X109034286Y-129111429D01*
X109091429Y-128997143D01*
X109148572Y-128940000D01*
X109262858Y-128882857D01*
X109491429Y-128882857D01*
X109605715Y-128940000D01*
X109662858Y-128997143D01*
X109720001Y-129111429D01*
X109720001Y-129168571D01*
X109662858Y-129282857D01*
X109605715Y-129340000D01*
X109491429Y-129397143D01*
X109262858Y-129397143D01*
X109148572Y-129454286D01*
X109091429Y-129511429D01*
X109034286Y-129625714D01*
X109034286Y-129854286D01*
X109091429Y-129968571D01*
X109148572Y-130025714D01*
X109262858Y-130082857D01*
X109491429Y-130082857D01*
X109605715Y-130025714D01*
X109662858Y-129968571D01*
X109720001Y-129854286D01*
X109720001Y-129625714D01*
X109662858Y-129511429D01*
X109605715Y-129454286D01*
X109491429Y-129397143D01*
X110462858Y-128882857D02*
X110577143Y-128882857D01*
X110691429Y-128940000D01*
X110748572Y-128997143D01*
X110805715Y-129111429D01*
X110862858Y-129340000D01*
X110862858Y-129625714D01*
X110805715Y-129854286D01*
X110748572Y-129968571D01*
X110691429Y-130025714D01*
X110577143Y-130082857D01*
X110462858Y-130082857D01*
X110348572Y-130025714D01*
X110291429Y-129968571D01*
X110234286Y-129854286D01*
X110177143Y-129625714D01*
X110177143Y-129340000D01*
X110234286Y-129111429D01*
X110291429Y-128997143D01*
X110348572Y-128940000D01*
X110462858Y-128882857D01*
X111605715Y-128882857D02*
X111720000Y-128882857D01*
X111834286Y-128940000D01*
X111891429Y-128997143D01*
X111948572Y-129111429D01*
X112005715Y-129340000D01*
X112005715Y-129625714D01*
X111948572Y-129854286D01*
X111891429Y-129968571D01*
X111834286Y-130025714D01*
X111720000Y-130082857D01*
X111605715Y-130082857D01*
X111491429Y-130025714D01*
X111434286Y-129968571D01*
X111377143Y-129854286D01*
X111320000Y-129625714D01*
X111320000Y-129340000D01*
X111377143Y-129111429D01*
X111434286Y-128997143D01*
X111491429Y-128940000D01*
X111605715Y-128882857D01*
X113148572Y-130082857D02*
X112462857Y-130082857D01*
X112805715Y-130082857D02*
X112805715Y-128882857D01*
X112691429Y-129054286D01*
X112577143Y-129168571D01*
X112462857Y-129225714D01*
X114577143Y-130082857D02*
X114577143Y-129282857D01*
X114577143Y-129397143D02*
X114634286Y-129340000D01*
X114748572Y-129282857D01*
X114920000Y-129282857D01*
X115034286Y-129340000D01*
X115091429Y-129454286D01*
X115091429Y-130082857D01*
X115091429Y-129454286D02*
X115148572Y-129340000D01*
X115262858Y-129282857D01*
X115434286Y-129282857D01*
X115548572Y-129340000D01*
X115605715Y-129454286D01*
X115605715Y-130082857D01*
X116177143Y-130082857D02*
X116177143Y-129282857D01*
X116177143Y-128882857D02*
X116120000Y-128940000D01*
X116177143Y-128997143D01*
X116234286Y-128940000D01*
X116177143Y-128882857D01*
X116177143Y-128997143D01*
X117262858Y-130025714D02*
X117148572Y-130082857D01*
X116920001Y-130082857D01*
X116805715Y-130025714D01*
X116748572Y-129968571D01*
X116691429Y-129854286D01*
X116691429Y-129511429D01*
X116748572Y-129397143D01*
X116805715Y-129340000D01*
X116920001Y-129282857D01*
X117148572Y-129282857D01*
X117262858Y-129340000D01*
X117777143Y-130082857D02*
X117777143Y-129282857D01*
X117777143Y-129511429D02*
X117834286Y-129397143D01*
X117891429Y-129340000D01*
X118005715Y-129282857D01*
X118120000Y-129282857D01*
X118691429Y-130082857D02*
X118577143Y-130025714D01*
X118520000Y-129968571D01*
X118462857Y-129854286D01*
X118462857Y-129511429D01*
X118520000Y-129397143D01*
X118577143Y-129340000D01*
X118691429Y-129282857D01*
X118862857Y-129282857D01*
X118977143Y-129340000D01*
X119034286Y-129397143D01*
X119091429Y-129511429D01*
X119091429Y-129854286D01*
X119034286Y-129968571D01*
X118977143Y-130025714D01*
X118862857Y-130082857D01*
X118691429Y-130082857D01*
X119548571Y-130025714D02*
X119720000Y-130082857D01*
X120005714Y-130082857D01*
X120120000Y-130025714D01*
X120177143Y-129968571D01*
X120234286Y-129854286D01*
X120234286Y-129740000D01*
X120177143Y-129625714D01*
X120120000Y-129568571D01*
X120005714Y-129511429D01*
X119777143Y-129454286D01*
X119662857Y-129397143D01*
X119605714Y-129340000D01*
X119548571Y-129225714D01*
X119548571Y-129111429D01*
X119605714Y-128997143D01*
X119662857Y-128940000D01*
X119777143Y-128882857D01*
X120062857Y-128882857D01*
X120234286Y-128940000D01*
X120748571Y-130082857D02*
X120748571Y-128882857D01*
X121034286Y-128882857D01*
X121205714Y-128940000D01*
X121320000Y-129054286D01*
X121377143Y-129168571D01*
X121434286Y-129397143D01*
X121434286Y-129568571D01*
X121377143Y-129797143D01*
X121320000Y-129911429D01*
X121205714Y-130025714D01*
X121034286Y-130082857D01*
X120748571Y-130082857D01*
X123548572Y-129968571D02*
X123491429Y-130025714D01*
X123320000Y-130082857D01*
X123205714Y-130082857D01*
X123034286Y-130025714D01*
X122920000Y-129911429D01*
X122862857Y-129797143D01*
X122805714Y-129568571D01*
X122805714Y-129397143D01*
X122862857Y-129168571D01*
X122920000Y-129054286D01*
X123034286Y-128940000D01*
X123205714Y-128882857D01*
X123320000Y-128882857D01*
X123491429Y-128940000D01*
X123548572Y-128997143D01*
X124005714Y-129740000D02*
X124577143Y-129740000D01*
X123891429Y-130082857D02*
X124291429Y-128882857D01*
X124691429Y-130082857D01*
X125777143Y-130082857D02*
X125377143Y-129511429D01*
X125091428Y-130082857D02*
X125091428Y-128882857D01*
X125548571Y-128882857D01*
X125662857Y-128940000D01*
X125720000Y-128997143D01*
X125777143Y-129111429D01*
X125777143Y-129282857D01*
X125720000Y-129397143D01*
X125662857Y-129454286D01*
X125548571Y-129511429D01*
X125091428Y-129511429D01*
X126291428Y-130082857D02*
X126291428Y-128882857D01*
X126577143Y-128882857D01*
X126748571Y-128940000D01*
X126862857Y-129054286D01*
X126920000Y-129168571D01*
X126977143Y-129397143D01*
X126977143Y-129568571D01*
X126920000Y-129797143D01*
X126862857Y-129911429D01*
X126748571Y-130025714D01*
X126577143Y-130082857D01*
X126291428Y-130082857D01*
X128405714Y-130082857D02*
X128405714Y-128882857D01*
X128691429Y-128882857D01*
X128862857Y-128940000D01*
X128977143Y-129054286D01*
X129034286Y-129168571D01*
X129091429Y-129397143D01*
X129091429Y-129568571D01*
X129034286Y-129797143D01*
X128977143Y-129911429D01*
X128862857Y-130025714D01*
X128691429Y-130082857D01*
X128405714Y-130082857D01*
X130291429Y-130082857D02*
X129891429Y-129511429D01*
X129605714Y-130082857D02*
X129605714Y-128882857D01*
X130062857Y-128882857D01*
X130177143Y-128940000D01*
X130234286Y-128997143D01*
X130291429Y-129111429D01*
X130291429Y-129282857D01*
X130234286Y-129397143D01*
X130177143Y-129454286D01*
X130062857Y-129511429D01*
X129605714Y-129511429D01*
X130805714Y-130082857D02*
X130805714Y-128882857D01*
X131205715Y-128882857D02*
X131605715Y-130082857D01*
X132005715Y-128882857D01*
X132405714Y-129454286D02*
X132805714Y-129454286D01*
X132977143Y-130082857D02*
X132405714Y-130082857D01*
X132405714Y-128882857D01*
X132977143Y-128882857D01*
X135148572Y-128882857D02*
X135548572Y-130082857D01*
X135948572Y-128882857D01*
X136977143Y-130082857D02*
X136291428Y-130082857D01*
X136634286Y-130082857D02*
X136634286Y-128882857D01*
X136520000Y-129054286D01*
X136405714Y-129168571D01*
X136291428Y-129225714D01*
X137491428Y-129968571D02*
X137548571Y-130025714D01*
X137491428Y-130082857D01*
X137434285Y-130025714D01*
X137491428Y-129968571D01*
X137491428Y-130082857D01*
X138691429Y-130082857D02*
X138005714Y-130082857D01*
X138348572Y-130082857D02*
X138348572Y-128882857D01*
X138234286Y-129054286D01*
X138120000Y-129168571D01*
X138005714Y-129225714D01*
X130810000Y-104140000D02*
X130810000Y-109220000D01*
X130810000Y-109220000D02*
X128270000Y-109220000D01*
X128270000Y-109220000D02*
X128270000Y-104140000D01*
X128270000Y-104140000D02*
X130810000Y-104140000D01*
X129540000Y-104140000D02*
X129540000Y-102870000D01*
X129540000Y-109220000D02*
X129540000Y-110490000D01*
X125730000Y-104140000D02*
X125730000Y-109220000D01*
X125730000Y-109220000D02*
X123190000Y-109220000D01*
X123190000Y-109220000D02*
X123190000Y-104140000D01*
X123190000Y-104140000D02*
X125730000Y-104140000D01*
X124460000Y-104140000D02*
X124460000Y-102870000D01*
X124460000Y-109220000D02*
X124460000Y-110490000D01*
D13*
X108557000Y-117701000D02*
X107383000Y-117701000D01*
X108557000Y-115979000D02*
X107383000Y-115979000D01*
X126337000Y-94841000D02*
X125163000Y-94841000D01*
X126337000Y-93119000D02*
X125163000Y-93119000D01*
X161897000Y-94841000D02*
X160723000Y-94841000D01*
X161897000Y-93119000D02*
X160723000Y-93119000D01*
X105680000Y-74810000D02*
X100100000Y-74810000D01*
X100100000Y-74810000D02*
X100100000Y-125850000D01*
X100100000Y-125850000D02*
X113260000Y-125850000D01*
X113260000Y-125850000D02*
X113260000Y-74810000D01*
X113260000Y-74810000D02*
X107680000Y-74810000D01*
X97670000Y-74810000D02*
X97670000Y-125850000D01*
X97670000Y-125850000D02*
X115690000Y-125850000D01*
X115690000Y-125850000D02*
X115690000Y-74810000D01*
X115690000Y-74810000D02*
X97670000Y-74810000D01*
X107680000Y-74810000D02*
G75*
G02X105680000Y-74810000I-1000000J0D01*
G01*
X127270000Y-74810000D02*
X125500000Y-74810000D01*
X125500000Y-74810000D02*
X125500000Y-92830000D01*
X125500000Y-92830000D02*
X131040000Y-92830000D01*
X131040000Y-92830000D02*
X131040000Y-74810000D01*
X131040000Y-74810000D02*
X129270000Y-74810000D01*
X123070000Y-74810000D02*
X123070000Y-92830000D01*
X123070000Y-92830000D02*
X133470000Y-92830000D01*
X133470000Y-92830000D02*
X133470000Y-74810000D01*
X133470000Y-74810000D02*
X123070000Y-74810000D01*
X129270000Y-74810000D02*
G75*
G02X127270000Y-74810000I-1000000J0D01*
G01*
X145050000Y-74810000D02*
X143280000Y-74810000D01*
X143280000Y-74810000D02*
X143280000Y-92830000D01*
X143280000Y-92830000D02*
X148820000Y-92830000D01*
X148820000Y-92830000D02*
X148820000Y-74810000D01*
X148820000Y-74810000D02*
X147050000Y-74810000D01*
X140850000Y-74810000D02*
X140850000Y-92830000D01*
X140850000Y-92830000D02*
X151250000Y-92830000D01*
X151250000Y-92830000D02*
X151250000Y-74810000D01*
X151250000Y-74810000D02*
X140850000Y-74810000D01*
X147050000Y-74810000D02*
G75*
G02X145050000Y-74810000I-1000000J0D01*
G01*
X162830000Y-74810000D02*
X161060000Y-74810000D01*
X161060000Y-74810000D02*
X161060000Y-92830000D01*
X161060000Y-92830000D02*
X166600000Y-92830000D01*
X166600000Y-92830000D02*
X166600000Y-74810000D01*
X166600000Y-74810000D02*
X164830000Y-74810000D01*
X158630000Y-74810000D02*
X158630000Y-92830000D01*
X158630000Y-92830000D02*
X169030000Y-92830000D01*
X169030000Y-92830000D02*
X169030000Y-74810000D01*
X169030000Y-74810000D02*
X158630000Y-74810000D01*
X164830000Y-74810000D02*
G75*
G02X162830000Y-74810000I-1000000J0D01*
G01*
X144117000Y-94841000D02*
X142943000Y-94841000D01*
X144117000Y-93119000D02*
X142943000Y-93119000D01*
D11*
X148590000Y-105410000D02*
X148590000Y-125730000D01*
X148590000Y-125730000D02*
X146050000Y-125730000D01*
X146050000Y-125730000D02*
X146050000Y-105410000D01*
X148870000Y-102590000D02*
X148870000Y-104140000D01*
X148590000Y-105410000D02*
X146050000Y-105410000D01*
X145770000Y-104140000D02*
X145770000Y-102590000D01*
X145770000Y-102590000D02*
X148870000Y-102590000D01*
D13*
X140102335Y-123381392D02*
G75*
G03X136870000Y-123224484I-1672335J-1078608D01*
G01*
X140102335Y-125538608D02*
G75*
G02X136870000Y-125695516I-1672335J1078608D01*
G01*
X139471130Y-123380163D02*
G75*
G03X137389039Y-123380000I-1041130J-1079837D01*
G01*
X139471130Y-125539837D02*
G75*
G02X137389039Y-125540000I-1041130J1079837D01*
G01*
X136870000Y-123224000D02*
X136870000Y-123380000D01*
X136870000Y-125540000D02*
X136870000Y-125696000D01*
D11*
X135890000Y-104140000D02*
X135890000Y-109220000D01*
X135890000Y-109220000D02*
X133350000Y-109220000D01*
X133350000Y-109220000D02*
X133350000Y-104140000D01*
X133350000Y-104140000D02*
X135890000Y-104140000D01*
X134620000Y-104140000D02*
X134620000Y-102870000D01*
X134620000Y-109220000D02*
X134620000Y-110490000D01*
X173990000Y-102870000D02*
X176530000Y-102870000D01*
X171170000Y-102590000D02*
X172720000Y-102590000D01*
X173990000Y-102870000D02*
X173990000Y-105410000D01*
X172720000Y-105690000D02*
X171170000Y-105690000D01*
X171170000Y-105690000D02*
X171170000Y-102590000D01*
X173990000Y-105410000D02*
X176530000Y-105410000D01*
X176530000Y-105410000D02*
X176530000Y-102870000D01*
X173990000Y-123190000D02*
X176530000Y-123190000D01*
X171170000Y-122910000D02*
X172720000Y-122910000D01*
X173990000Y-123190000D02*
X173990000Y-125730000D01*
X172720000Y-126010000D02*
X171170000Y-126010000D01*
X171170000Y-126010000D02*
X171170000Y-122910000D01*
X173990000Y-125730000D02*
X176530000Y-125730000D01*
X176530000Y-125730000D02*
X176530000Y-123190000D01*
X107950000Y-69850000D02*
X168910000Y-69850000D01*
X168910000Y-64770000D02*
X105410000Y-64770000D01*
X168910000Y-64770000D02*
X168910000Y-69850000D01*
X105410000Y-64770000D02*
X105410000Y-67310000D01*
X105130000Y-68580000D02*
X105130000Y-70130000D01*
X105410000Y-67310000D02*
X107950000Y-67310000D01*
X107950000Y-67310000D02*
X107950000Y-69850000D01*
X105130000Y-70130000D02*
X106680000Y-70130000D01*
X127452381Y-106846666D02*
X126976190Y-107180000D01*
X127452381Y-107418095D02*
X126452381Y-107418095D01*
X126452381Y-107037142D01*
X126500000Y-106941904D01*
X126547619Y-106894285D01*
X126642857Y-106846666D01*
X126785714Y-106846666D01*
X126880952Y-106894285D01*
X126928571Y-106941904D01*
X126976190Y-107037142D01*
X126976190Y-107418095D01*
X126547619Y-106465714D02*
X126500000Y-106418095D01*
X126452381Y-106322857D01*
X126452381Y-106084761D01*
X126500000Y-105989523D01*
X126547619Y-105941904D01*
X126642857Y-105894285D01*
X126738095Y-105894285D01*
X126880952Y-105941904D01*
X127452381Y-106513333D01*
X127452381Y-105894285D01*
X129992381Y-107370476D02*
X129992381Y-107941905D01*
X129992381Y-107656191D02*
X128992381Y-107656191D01*
X129135238Y-107751429D01*
X129230476Y-107846667D01*
X129278095Y-107941905D01*
X128992381Y-106751429D02*
X128992381Y-106656190D01*
X129040000Y-106560952D01*
X129087619Y-106513333D01*
X129182857Y-106465714D01*
X129373333Y-106418095D01*
X129611429Y-106418095D01*
X129801905Y-106465714D01*
X129897143Y-106513333D01*
X129944762Y-106560952D01*
X129992381Y-106656190D01*
X129992381Y-106751429D01*
X129944762Y-106846667D01*
X129897143Y-106894286D01*
X129801905Y-106941905D01*
X129611429Y-106989524D01*
X129373333Y-106989524D01*
X129182857Y-106941905D01*
X129087619Y-106894286D01*
X129040000Y-106846667D01*
X128992381Y-106751429D01*
X129992381Y-105989524D02*
X128992381Y-105989524D01*
X129992381Y-105418095D02*
X129420952Y-105846667D01*
X128992381Y-105418095D02*
X129563810Y-105989524D01*
X122372381Y-106846666D02*
X121896190Y-107180000D01*
X122372381Y-107418095D02*
X121372381Y-107418095D01*
X121372381Y-107037142D01*
X121420000Y-106941904D01*
X121467619Y-106894285D01*
X121562857Y-106846666D01*
X121705714Y-106846666D01*
X121800952Y-106894285D01*
X121848571Y-106941904D01*
X121896190Y-107037142D01*
X121896190Y-107418095D01*
X122372381Y-105894285D02*
X122372381Y-106465714D01*
X122372381Y-106180000D02*
X121372381Y-106180000D01*
X121515238Y-106275238D01*
X121610476Y-106370476D01*
X121658095Y-106465714D01*
X124912381Y-107370476D02*
X124912381Y-107941905D01*
X124912381Y-107656191D02*
X123912381Y-107656191D01*
X124055238Y-107751429D01*
X124150476Y-107846667D01*
X124198095Y-107941905D01*
X123912381Y-106751429D02*
X123912381Y-106656190D01*
X123960000Y-106560952D01*
X124007619Y-106513333D01*
X124102857Y-106465714D01*
X124293333Y-106418095D01*
X124531429Y-106418095D01*
X124721905Y-106465714D01*
X124817143Y-106513333D01*
X124864762Y-106560952D01*
X124912381Y-106656190D01*
X124912381Y-106751429D01*
X124864762Y-106846667D01*
X124817143Y-106894286D01*
X124721905Y-106941905D01*
X124531429Y-106989524D01*
X124293333Y-106989524D01*
X124102857Y-106941905D01*
X124007619Y-106894286D01*
X123960000Y-106846667D01*
X123912381Y-106751429D01*
X124912381Y-105989524D02*
X123912381Y-105989524D01*
X124912381Y-105418095D02*
X124340952Y-105846667D01*
X123912381Y-105418095D02*
X124483810Y-105989524D01*
X103973334Y-117197143D02*
X103925715Y-117244762D01*
X103782858Y-117292381D01*
X103687620Y-117292381D01*
X103544762Y-117244762D01*
X103449524Y-117149524D01*
X103401905Y-117054286D01*
X103354286Y-116863810D01*
X103354286Y-116720952D01*
X103401905Y-116530476D01*
X103449524Y-116435238D01*
X103544762Y-116340000D01*
X103687620Y-116292381D01*
X103782858Y-116292381D01*
X103925715Y-116340000D01*
X103973334Y-116387619D01*
X104925715Y-117292381D02*
X104354286Y-117292381D01*
X104640000Y-117292381D02*
X104640000Y-116292381D01*
X104544762Y-116435238D01*
X104449524Y-116530476D01*
X104354286Y-116578095D01*
X121753334Y-94337143D02*
X121705715Y-94384762D01*
X121562858Y-94432381D01*
X121467620Y-94432381D01*
X121324762Y-94384762D01*
X121229524Y-94289524D01*
X121181905Y-94194286D01*
X121134286Y-94003810D01*
X121134286Y-93860952D01*
X121181905Y-93670476D01*
X121229524Y-93575238D01*
X121324762Y-93480000D01*
X121467620Y-93432381D01*
X121562858Y-93432381D01*
X121705715Y-93480000D01*
X121753334Y-93527619D01*
X122134286Y-93527619D02*
X122181905Y-93480000D01*
X122277143Y-93432381D01*
X122515239Y-93432381D01*
X122610477Y-93480000D01*
X122658096Y-93527619D01*
X122705715Y-93622857D01*
X122705715Y-93718095D01*
X122658096Y-93860952D01*
X122086667Y-94432381D01*
X122705715Y-94432381D01*
X157313334Y-94337143D02*
X157265715Y-94384762D01*
X157122858Y-94432381D01*
X157027620Y-94432381D01*
X156884762Y-94384762D01*
X156789524Y-94289524D01*
X156741905Y-94194286D01*
X156694286Y-94003810D01*
X156694286Y-93860952D01*
X156741905Y-93670476D01*
X156789524Y-93575238D01*
X156884762Y-93480000D01*
X157027620Y-93432381D01*
X157122858Y-93432381D01*
X157265715Y-93480000D01*
X157313334Y-93527619D01*
X158170477Y-93765714D02*
X158170477Y-94432381D01*
X157932381Y-93384762D02*
X157694286Y-94099048D01*
X158313334Y-94099048D01*
X105703810Y-74262381D02*
X105703810Y-73262381D01*
X106751429Y-74167143D02*
X106703810Y-74214762D01*
X106560953Y-74262381D01*
X106465715Y-74262381D01*
X106322857Y-74214762D01*
X106227619Y-74119524D01*
X106180000Y-74024286D01*
X106132381Y-73833810D01*
X106132381Y-73690952D01*
X106180000Y-73500476D01*
X106227619Y-73405238D01*
X106322857Y-73310000D01*
X106465715Y-73262381D01*
X106560953Y-73262381D01*
X106703810Y-73310000D01*
X106751429Y-73357619D01*
X107703810Y-74262381D02*
X107132381Y-74262381D01*
X107418095Y-74262381D02*
X107418095Y-73262381D01*
X107322857Y-73405238D01*
X107227619Y-73500476D01*
X107132381Y-73548095D01*
X106560952Y-100583810D02*
X106513333Y-100679048D01*
X106465714Y-100726667D01*
X106370476Y-100774286D01*
X106322857Y-100774286D01*
X106227619Y-100726667D01*
X106180000Y-100679048D01*
X106132381Y-100583810D01*
X106132381Y-100393333D01*
X106180000Y-100298095D01*
X106227619Y-100250476D01*
X106322857Y-100202857D01*
X106370476Y-100202857D01*
X106465714Y-100250476D01*
X106513333Y-100298095D01*
X106560952Y-100393333D01*
X106560952Y-100583810D01*
X106608571Y-100679048D01*
X106656190Y-100726667D01*
X106751429Y-100774286D01*
X106941905Y-100774286D01*
X107037143Y-100726667D01*
X107084762Y-100679048D01*
X107132381Y-100583810D01*
X107132381Y-100393333D01*
X107084762Y-100298095D01*
X107037143Y-100250476D01*
X106941905Y-100202857D01*
X106751429Y-100202857D01*
X106656190Y-100250476D01*
X106608571Y-100298095D01*
X106560952Y-100393333D01*
X106227619Y-99821905D02*
X106180000Y-99774286D01*
X106132381Y-99679048D01*
X106132381Y-99440952D01*
X106180000Y-99345714D01*
X106227619Y-99298095D01*
X106322857Y-99250476D01*
X106418095Y-99250476D01*
X106560952Y-99298095D01*
X107132381Y-99869524D01*
X107132381Y-99250476D01*
X106132381Y-98345714D02*
X106132381Y-98821905D01*
X106608571Y-98869524D01*
X106560952Y-98821905D01*
X106513333Y-98726667D01*
X106513333Y-98488571D01*
X106560952Y-98393333D01*
X106608571Y-98345714D01*
X106703810Y-98298095D01*
X106941905Y-98298095D01*
X107037143Y-98345714D01*
X107084762Y-98393333D01*
X107132381Y-98488571D01*
X107132381Y-98726667D01*
X107084762Y-98821905D01*
X107037143Y-98869524D01*
X106132381Y-97393333D02*
X106132381Y-97869524D01*
X106608571Y-97917143D01*
X106560952Y-97869524D01*
X106513333Y-97774286D01*
X106513333Y-97536190D01*
X106560952Y-97440952D01*
X106608571Y-97393333D01*
X106703810Y-97345714D01*
X106941905Y-97345714D01*
X107037143Y-97393333D01*
X107084762Y-97440952D01*
X107132381Y-97536190D01*
X107132381Y-97774286D01*
X107084762Y-97869524D01*
X107037143Y-97917143D01*
X127293810Y-74262381D02*
X127293810Y-73262381D01*
X128341429Y-74167143D02*
X128293810Y-74214762D01*
X128150953Y-74262381D01*
X128055715Y-74262381D01*
X127912857Y-74214762D01*
X127817619Y-74119524D01*
X127770000Y-74024286D01*
X127722381Y-73833810D01*
X127722381Y-73690952D01*
X127770000Y-73500476D01*
X127817619Y-73405238D01*
X127912857Y-73310000D01*
X128055715Y-73262381D01*
X128150953Y-73262381D01*
X128293810Y-73310000D01*
X128341429Y-73357619D01*
X128722381Y-73357619D02*
X128770000Y-73310000D01*
X128865238Y-73262381D01*
X129103334Y-73262381D01*
X129198572Y-73310000D01*
X129246191Y-73357619D01*
X129293810Y-73452857D01*
X129293810Y-73548095D01*
X129246191Y-73690952D01*
X128674762Y-74262381D01*
X129293810Y-74262381D01*
X128722381Y-84939047D02*
X128722381Y-85415238D01*
X127722381Y-85415238D01*
X128674762Y-84653333D02*
X128722381Y-84510476D01*
X128722381Y-84272380D01*
X128674762Y-84177142D01*
X128627143Y-84129523D01*
X128531905Y-84081904D01*
X128436667Y-84081904D01*
X128341429Y-84129523D01*
X128293810Y-84177142D01*
X128246190Y-84272380D01*
X128198571Y-84462857D01*
X128150952Y-84558095D01*
X128103333Y-84605714D01*
X128008095Y-84653333D01*
X127912857Y-84653333D01*
X127817619Y-84605714D01*
X127770000Y-84558095D01*
X127722381Y-84462857D01*
X127722381Y-84224761D01*
X127770000Y-84081904D01*
X127722381Y-83748571D02*
X127722381Y-83129523D01*
X128103333Y-83462857D01*
X128103333Y-83319999D01*
X128150952Y-83224761D01*
X128198571Y-83177142D01*
X128293810Y-83129523D01*
X128531905Y-83129523D01*
X128627143Y-83177142D01*
X128674762Y-83224761D01*
X128722381Y-83319999D01*
X128722381Y-83605714D01*
X128674762Y-83700952D01*
X128627143Y-83748571D01*
X127722381Y-82510476D02*
X127722381Y-82415237D01*
X127770000Y-82319999D01*
X127817619Y-82272380D01*
X127912857Y-82224761D01*
X128103333Y-82177142D01*
X128341429Y-82177142D01*
X128531905Y-82224761D01*
X128627143Y-82272380D01*
X128674762Y-82319999D01*
X128722381Y-82415237D01*
X128722381Y-82510476D01*
X128674762Y-82605714D01*
X128627143Y-82653333D01*
X128531905Y-82700952D01*
X128341429Y-82748571D01*
X128103333Y-82748571D01*
X127912857Y-82700952D01*
X127817619Y-82653333D01*
X127770000Y-82605714D01*
X127722381Y-82510476D01*
X145073810Y-74262381D02*
X145073810Y-73262381D01*
X146121429Y-74167143D02*
X146073810Y-74214762D01*
X145930953Y-74262381D01*
X145835715Y-74262381D01*
X145692857Y-74214762D01*
X145597619Y-74119524D01*
X145550000Y-74024286D01*
X145502381Y-73833810D01*
X145502381Y-73690952D01*
X145550000Y-73500476D01*
X145597619Y-73405238D01*
X145692857Y-73310000D01*
X145835715Y-73262381D01*
X145930953Y-73262381D01*
X146073810Y-73310000D01*
X146121429Y-73357619D01*
X146454762Y-73262381D02*
X147073810Y-73262381D01*
X146740476Y-73643333D01*
X146883334Y-73643333D01*
X146978572Y-73690952D01*
X147026191Y-73738571D01*
X147073810Y-73833810D01*
X147073810Y-74071905D01*
X147026191Y-74167143D01*
X146978572Y-74214762D01*
X146883334Y-74262381D01*
X146597619Y-74262381D01*
X146502381Y-74214762D01*
X146454762Y-74167143D01*
X146502381Y-84939047D02*
X146502381Y-85415238D01*
X145502381Y-85415238D01*
X146454762Y-84653333D02*
X146502381Y-84510476D01*
X146502381Y-84272380D01*
X146454762Y-84177142D01*
X146407143Y-84129523D01*
X146311905Y-84081904D01*
X146216667Y-84081904D01*
X146121429Y-84129523D01*
X146073810Y-84177142D01*
X146026190Y-84272380D01*
X145978571Y-84462857D01*
X145930952Y-84558095D01*
X145883333Y-84605714D01*
X145788095Y-84653333D01*
X145692857Y-84653333D01*
X145597619Y-84605714D01*
X145550000Y-84558095D01*
X145502381Y-84462857D01*
X145502381Y-84224761D01*
X145550000Y-84081904D01*
X145502381Y-83748571D02*
X145502381Y-83129523D01*
X145883333Y-83462857D01*
X145883333Y-83319999D01*
X145930952Y-83224761D01*
X145978571Y-83177142D01*
X146073810Y-83129523D01*
X146311905Y-83129523D01*
X146407143Y-83177142D01*
X146454762Y-83224761D01*
X146502381Y-83319999D01*
X146502381Y-83605714D01*
X146454762Y-83700952D01*
X146407143Y-83748571D01*
X145597619Y-82748571D02*
X145550000Y-82700952D01*
X145502381Y-82605714D01*
X145502381Y-82367618D01*
X145550000Y-82272380D01*
X145597619Y-82224761D01*
X145692857Y-82177142D01*
X145788095Y-82177142D01*
X145930952Y-82224761D01*
X146502381Y-82796190D01*
X146502381Y-82177142D01*
X162853810Y-74262381D02*
X162853810Y-73262381D01*
X163901429Y-74167143D02*
X163853810Y-74214762D01*
X163710953Y-74262381D01*
X163615715Y-74262381D01*
X163472857Y-74214762D01*
X163377619Y-74119524D01*
X163330000Y-74024286D01*
X163282381Y-73833810D01*
X163282381Y-73690952D01*
X163330000Y-73500476D01*
X163377619Y-73405238D01*
X163472857Y-73310000D01*
X163615715Y-73262381D01*
X163710953Y-73262381D01*
X163853810Y-73310000D01*
X163901429Y-73357619D01*
X164758572Y-73595714D02*
X164758572Y-74262381D01*
X164520476Y-73214762D02*
X164282381Y-73929048D01*
X164901429Y-73929048D01*
X164282381Y-84939047D02*
X164282381Y-85415238D01*
X163282381Y-85415238D01*
X164234762Y-84653333D02*
X164282381Y-84510476D01*
X164282381Y-84272380D01*
X164234762Y-84177142D01*
X164187143Y-84129523D01*
X164091905Y-84081904D01*
X163996667Y-84081904D01*
X163901429Y-84129523D01*
X163853810Y-84177142D01*
X163806190Y-84272380D01*
X163758571Y-84462857D01*
X163710952Y-84558095D01*
X163663333Y-84605714D01*
X163568095Y-84653333D01*
X163472857Y-84653333D01*
X163377619Y-84605714D01*
X163330000Y-84558095D01*
X163282381Y-84462857D01*
X163282381Y-84224761D01*
X163330000Y-84081904D01*
X163282381Y-83462857D02*
X163282381Y-83367618D01*
X163330000Y-83272380D01*
X163377619Y-83224761D01*
X163472857Y-83177142D01*
X163663333Y-83129523D01*
X163901429Y-83129523D01*
X164091905Y-83177142D01*
X164187143Y-83224761D01*
X164234762Y-83272380D01*
X164282381Y-83367618D01*
X164282381Y-83462857D01*
X164234762Y-83558095D01*
X164187143Y-83605714D01*
X164091905Y-83653333D01*
X163901429Y-83700952D01*
X163663333Y-83700952D01*
X163472857Y-83653333D01*
X163377619Y-83605714D01*
X163330000Y-83558095D01*
X163282381Y-83462857D01*
X163615714Y-82272380D02*
X164282381Y-82272380D01*
X163234762Y-82510476D02*
X163949048Y-82748571D01*
X163949048Y-82129523D01*
X139533334Y-94337143D02*
X139485715Y-94384762D01*
X139342858Y-94432381D01*
X139247620Y-94432381D01*
X139104762Y-94384762D01*
X139009524Y-94289524D01*
X138961905Y-94194286D01*
X138914286Y-94003810D01*
X138914286Y-93860952D01*
X138961905Y-93670476D01*
X139009524Y-93575238D01*
X139104762Y-93480000D01*
X139247620Y-93432381D01*
X139342858Y-93432381D01*
X139485715Y-93480000D01*
X139533334Y-93527619D01*
X139866667Y-93432381D02*
X140485715Y-93432381D01*
X140152381Y-93813333D01*
X140295239Y-93813333D01*
X140390477Y-93860952D01*
X140438096Y-93908571D01*
X140485715Y-94003810D01*
X140485715Y-94241905D01*
X140438096Y-94337143D01*
X140390477Y-94384762D01*
X140295239Y-94432381D01*
X140009524Y-94432381D01*
X139914286Y-94384762D01*
X139866667Y-94337143D01*
X146986667Y-101052381D02*
X146986667Y-101766667D01*
X146939047Y-101909524D01*
X146843809Y-102004762D01*
X146700952Y-102052381D01*
X146605714Y-102052381D01*
X147415238Y-101147619D02*
X147462857Y-101100000D01*
X147558095Y-101052381D01*
X147796191Y-101052381D01*
X147891429Y-101100000D01*
X147939048Y-101147619D01*
X147986667Y-101242857D01*
X147986667Y-101338095D01*
X147939048Y-101480952D01*
X147367619Y-102052381D01*
X147986667Y-102052381D01*
X155298095Y-114466667D02*
X155774286Y-114466667D01*
X155202857Y-114752381D02*
X155536190Y-113752381D01*
X155869524Y-114752381D01*
X156202857Y-114228571D02*
X156536191Y-114228571D01*
X156679048Y-114752381D02*
X156202857Y-114752381D01*
X156202857Y-113752381D01*
X156679048Y-113752381D01*
X157107619Y-114371429D02*
X157869524Y-114371429D01*
X158345714Y-114752381D02*
X158345714Y-114085714D01*
X158345714Y-114180952D02*
X158393333Y-114133333D01*
X158488571Y-114085714D01*
X158631429Y-114085714D01*
X158726667Y-114133333D01*
X158774286Y-114228571D01*
X158774286Y-114752381D01*
X158774286Y-114228571D02*
X158821905Y-114133333D01*
X158917143Y-114085714D01*
X159060000Y-114085714D01*
X159155238Y-114133333D01*
X159202857Y-114228571D01*
X159202857Y-114752381D01*
X159679047Y-114752381D02*
X159679047Y-114085714D01*
X159679047Y-113752381D02*
X159631428Y-113800000D01*
X159679047Y-113847619D01*
X159726666Y-113800000D01*
X159679047Y-113752381D01*
X159679047Y-113847619D01*
X160583809Y-114704762D02*
X160488571Y-114752381D01*
X160298094Y-114752381D01*
X160202856Y-114704762D01*
X160155237Y-114657143D01*
X160107618Y-114561905D01*
X160107618Y-114276190D01*
X160155237Y-114180952D01*
X160202856Y-114133333D01*
X160298094Y-114085714D01*
X160488571Y-114085714D01*
X160583809Y-114133333D01*
X161012380Y-114752381D02*
X161012380Y-114085714D01*
X161012380Y-114276190D02*
X161059999Y-114180952D01*
X161107618Y-114133333D01*
X161202856Y-114085714D01*
X161298095Y-114085714D01*
X161774285Y-114752381D02*
X161679047Y-114704762D01*
X161631428Y-114657143D01*
X161583809Y-114561905D01*
X161583809Y-114276190D01*
X161631428Y-114180952D01*
X161679047Y-114133333D01*
X161774285Y-114085714D01*
X161917143Y-114085714D01*
X162012381Y-114133333D01*
X162060000Y-114180952D01*
X162107619Y-114276190D01*
X162107619Y-114561905D01*
X162060000Y-114657143D01*
X162012381Y-114704762D01*
X161917143Y-114752381D01*
X161774285Y-114752381D01*
X162488571Y-114704762D02*
X162631428Y-114752381D01*
X162869524Y-114752381D01*
X162964762Y-114704762D01*
X163012381Y-114657143D01*
X163060000Y-114561905D01*
X163060000Y-114466667D01*
X163012381Y-114371429D01*
X162964762Y-114323810D01*
X162869524Y-114276190D01*
X162679047Y-114228571D01*
X162583809Y-114180952D01*
X162536190Y-114133333D01*
X162488571Y-114038095D01*
X162488571Y-113942857D01*
X162536190Y-113847619D01*
X162583809Y-113800000D01*
X162679047Y-113752381D01*
X162917143Y-113752381D01*
X163060000Y-113800000D01*
X163488571Y-114752381D02*
X163488571Y-113752381D01*
X163726666Y-113752381D01*
X163869524Y-113800000D01*
X163964762Y-113895238D01*
X164012381Y-113990476D01*
X164060000Y-114180952D01*
X164060000Y-114323810D01*
X164012381Y-114514286D01*
X163964762Y-114609524D01*
X163869524Y-114704762D01*
X163726666Y-114752381D01*
X163488571Y-114752381D01*
X164488571Y-114371429D02*
X165250476Y-114371429D01*
X166202857Y-114752381D02*
X165726666Y-114752381D01*
X165726666Y-113752381D01*
X167012381Y-114752381D02*
X166536190Y-114752381D01*
X166536190Y-113752381D01*
X167917143Y-114657143D02*
X167869524Y-114704762D01*
X167726667Y-114752381D01*
X167631429Y-114752381D01*
X167488571Y-114704762D01*
X167393333Y-114609524D01*
X167345714Y-114514286D01*
X167298095Y-114323810D01*
X167298095Y-114180952D01*
X167345714Y-113990476D01*
X167393333Y-113895238D01*
X167488571Y-113800000D01*
X167631429Y-113752381D01*
X167726667Y-113752381D01*
X167869524Y-113800000D01*
X167917143Y-113847619D01*
X168345714Y-114752381D02*
X168345714Y-113752381D01*
X168917143Y-114752381D01*
X168917143Y-113752381D01*
X169250476Y-113752381D02*
X169583809Y-114752381D01*
X169917143Y-113752381D01*
X137691905Y-121952381D02*
X137691905Y-120952381D01*
X137930000Y-120952381D01*
X138072858Y-121000000D01*
X138168096Y-121095238D01*
X138215715Y-121190476D01*
X138263334Y-121380952D01*
X138263334Y-121523810D01*
X138215715Y-121714286D01*
X138168096Y-121809524D01*
X138072858Y-121904762D01*
X137930000Y-121952381D01*
X137691905Y-121952381D01*
X139215715Y-121952381D02*
X138644286Y-121952381D01*
X138930000Y-121952381D02*
X138930000Y-120952381D01*
X138834762Y-121095238D01*
X138739524Y-121190476D01*
X138644286Y-121238095D01*
X132532381Y-106846666D02*
X132056190Y-107180000D01*
X132532381Y-107418095D02*
X131532381Y-107418095D01*
X131532381Y-107037142D01*
X131580000Y-106941904D01*
X131627619Y-106894285D01*
X131722857Y-106846666D01*
X131865714Y-106846666D01*
X131960952Y-106894285D01*
X132008571Y-106941904D01*
X132056190Y-107037142D01*
X132056190Y-107418095D01*
X131532381Y-106513333D02*
X131532381Y-105894285D01*
X131913333Y-106227619D01*
X131913333Y-106084761D01*
X131960952Y-105989523D01*
X132008571Y-105941904D01*
X132103810Y-105894285D01*
X132341905Y-105894285D01*
X132437143Y-105941904D01*
X132484762Y-105989523D01*
X132532381Y-106084761D01*
X132532381Y-106370476D01*
X132484762Y-106465714D01*
X132437143Y-106513333D01*
X134072381Y-107965714D02*
X134072381Y-107346666D01*
X134453333Y-107680000D01*
X134453333Y-107537142D01*
X134500952Y-107441904D01*
X134548571Y-107394285D01*
X134643810Y-107346666D01*
X134881905Y-107346666D01*
X134977143Y-107394285D01*
X135024762Y-107441904D01*
X135072381Y-107537142D01*
X135072381Y-107822857D01*
X135024762Y-107918095D01*
X134977143Y-107965714D01*
X135072381Y-106870476D02*
X135072381Y-106680000D01*
X135024762Y-106584761D01*
X134977143Y-106537142D01*
X134834286Y-106441904D01*
X134643810Y-106394285D01*
X134262857Y-106394285D01*
X134167619Y-106441904D01*
X134120000Y-106489523D01*
X134072381Y-106584761D01*
X134072381Y-106775238D01*
X134120000Y-106870476D01*
X134167619Y-106918095D01*
X134262857Y-106965714D01*
X134500952Y-106965714D01*
X134596190Y-106918095D01*
X134643810Y-106870476D01*
X134691429Y-106775238D01*
X134691429Y-106584761D01*
X134643810Y-106489523D01*
X134596190Y-106441904D01*
X134500952Y-106394285D01*
X134072381Y-105775238D02*
X134072381Y-105679999D01*
X134120000Y-105584761D01*
X134167619Y-105537142D01*
X134262857Y-105489523D01*
X134453333Y-105441904D01*
X134691429Y-105441904D01*
X134881905Y-105489523D01*
X134977143Y-105537142D01*
X135024762Y-105584761D01*
X135072381Y-105679999D01*
X135072381Y-105775238D01*
X135024762Y-105870476D01*
X134977143Y-105918095D01*
X134881905Y-105965714D01*
X134691429Y-106013333D01*
X134453333Y-106013333D01*
X134262857Y-105965714D01*
X134167619Y-105918095D01*
X134120000Y-105870476D01*
X134072381Y-105775238D01*
X105989524Y-63857143D02*
X105941905Y-63904762D01*
X105799048Y-63952381D01*
X105703810Y-63952381D01*
X105560952Y-63904762D01*
X105465714Y-63809524D01*
X105418095Y-63714286D01*
X105370476Y-63523810D01*
X105370476Y-63380952D01*
X105418095Y-63190476D01*
X105465714Y-63095238D01*
X105560952Y-63000000D01*
X105703810Y-62952381D01*
X105799048Y-62952381D01*
X105941905Y-63000000D01*
X105989524Y-63047619D01*
X106418095Y-63952381D02*
X106418095Y-62952381D01*
X106989524Y-63952381D01*
X106989524Y-62952381D01*
X107989524Y-63952381D02*
X107418095Y-63952381D01*
X107703809Y-63952381D02*
X107703809Y-62952381D01*
X107608571Y-63095238D01*
X107513333Y-63190476D01*
X107418095Y-63238095D01*
M02*
