M48
;DRILL file {KiCad 4.0.7} date 
;FORMAT={-:-/ absolute / metric / decimal}
FMAT,2
METRIC,TZ
T1C0.400
T2C0.800
T3C0.900
T4C1.001
T5C1.016
T6C3.200
%
G90
G05
M71
T1
X137.16Y-81.28
T2
X99.06Y-76.2
X99.06Y-78.74
X99.06Y-81.28
X99.06Y-83.82
X99.06Y-86.36
X99.06Y-88.9
X99.06Y-91.44
X99.06Y-93.98
X99.06Y-96.52
X99.06Y-99.06
X99.06Y-101.6
X99.06Y-104.14
X99.06Y-106.68
X99.06Y-109.22
X99.06Y-111.76
X99.06Y-114.3
X99.06Y-116.84
X99.06Y-119.38
X99.06Y-121.92
X99.06Y-124.46
X106.72Y-116.84
X109.22Y-116.84
X114.3Y-76.2
X114.3Y-78.74
X114.3Y-81.28
X114.3Y-83.82
X114.3Y-86.36
X114.3Y-88.9
X114.3Y-91.44
X114.3Y-93.98
X114.3Y-96.52
X114.3Y-99.06
X114.3Y-101.6
X114.3Y-104.14
X114.3Y-106.68
X114.3Y-109.22
X114.3Y-111.76
X114.3Y-114.3
X114.3Y-116.84
X114.3Y-119.38
X114.3Y-121.92
X114.3Y-124.46
X124.46Y-76.2
X124.46Y-78.74
X124.46Y-81.28
X124.46Y-83.82
X124.46Y-86.36
X124.46Y-88.9
X124.46Y-91.44
X124.5Y-93.98
X127.Y-93.98
X132.08Y-76.2
X132.08Y-78.74
X132.08Y-81.28
X132.08Y-83.82
X132.08Y-86.36
X132.08Y-88.9
X132.08Y-91.44
X142.24Y-76.2
X142.24Y-78.74
X142.24Y-81.28
X142.24Y-83.82
X142.24Y-86.36
X142.24Y-88.9
X142.24Y-91.44
X142.28Y-93.98
X144.78Y-93.98
X149.86Y-76.2
X149.86Y-78.74
X149.86Y-81.28
X149.86Y-83.82
X149.86Y-86.36
X149.86Y-88.9
X149.86Y-91.44
X160.02Y-76.2
X160.02Y-78.74
X160.02Y-81.28
X160.02Y-83.82
X160.02Y-86.36
X160.02Y-88.9
X160.02Y-91.44
X160.06Y-93.98
X162.56Y-93.98
X167.64Y-76.2
X167.64Y-78.74
X167.64Y-81.28
X167.64Y-83.82
X167.64Y-86.36
X167.64Y-88.9
X167.64Y-91.44
T3
X137.16Y-124.46
X139.7Y-124.46
T4
X124.46Y-101.6
X124.46Y-111.76
X129.54Y-101.6
X129.54Y-111.76
X134.62Y-101.6
X134.62Y-111.76
T5
X106.68Y-66.04
X106.68Y-68.58
X109.22Y-66.04
X109.22Y-68.58
X111.76Y-66.04
X111.76Y-68.58
X114.3Y-66.04
X114.3Y-68.58
X116.84Y-66.04
X116.84Y-68.58
X119.38Y-66.04
X119.38Y-68.58
X121.92Y-66.04
X121.92Y-68.58
X124.46Y-66.04
X124.46Y-68.58
X127.Y-66.04
X127.Y-68.58
X129.54Y-66.04
X129.54Y-68.58
X132.08Y-66.04
X132.08Y-68.58
X134.62Y-66.04
X134.62Y-68.58
X137.16Y-66.04
X137.16Y-68.58
X139.7Y-66.04
X139.7Y-68.58
X142.24Y-66.04
X142.24Y-68.58
X144.78Y-66.04
X144.78Y-68.58
X147.32Y-66.04
X147.32Y-68.58
X147.32Y-104.14
X147.32Y-106.68
X147.32Y-109.22
X147.32Y-111.76
X147.32Y-114.3
X147.32Y-116.84
X147.32Y-119.38
X147.32Y-121.92
X147.32Y-124.46
X149.86Y-66.04
X149.86Y-68.58
X152.4Y-66.04
X152.4Y-68.58
X154.94Y-66.04
X154.94Y-68.58
X157.48Y-66.04
X157.48Y-68.58
X160.02Y-66.04
X160.02Y-68.58
X162.56Y-66.04
X162.56Y-68.58
X165.1Y-66.04
X165.1Y-68.58
X167.64Y-66.04
X167.64Y-68.58
X172.72Y-104.14
X172.72Y-124.46
X175.26Y-104.14
X175.26Y-124.46
T6
X93.98Y-63.5
X93.98Y-129.54
X182.88Y-63.5
X182.88Y-129.54
T0
M30
